<?xml version="1.0" encoding="UTF-8" standalone="no"?>
<!DOCTYPE svg PUBLIC "-//W3C//DTD SVG 1.1//EN"
 "http://www.w3.org/Graphics/SVG/1.1/DTD/svg11.dtd">
<!-- Generated by graphviz version 2.38.0 (20140413.2041)
 -->
<!-- Title: controllers_diagram Pages: 1 -->
<svg width="821pt" height="843pt"
 viewBox="0.00 0.00 820.50 843.00" xmlns="http://www.w3.org/2000/svg" xmlns:xlink="http://www.w3.org/1999/xlink">
<g id="graph0" class="graph" transform="scale(1 1) rotate(0) translate(384 459)">
<title>controllers_diagram</title>
<polygon fill="none" stroke="none" points="-384,384 -384,-459 436.5,-459 436.5,384 -384,384"/>
<!-- _diagram_info -->
<g id="node1" class="node"><title>_diagram_info</title>
<text text-anchor="start" x="-372" y="316.4" font-family="Times,serif" font-size="13.00">Controllers diagram</text>
<text text-anchor="start" x="-372" y="330.4" font-family="Times,serif" font-size="13.00">Date: Sep 21 2017 &#45; 12:32</text>
<text text-anchor="start" x="-372" y="344.4" font-family="Times,serif" font-size="13.00">Migration version: 20170921165236</text>
<text text-anchor="start" x="-372" y="358.4" font-family="Times,serif" font-size="13.00">Generated by RailRoady 1.5.3</text>
<text text-anchor="start" x="-372" y="372.4" font-family="Times,serif" font-size="13.00">http://railroady.prestonlee.com</text>
</g>
<!-- ApplicationController -->
<g id="node2" class="node"><title>ApplicationController</title>
<path fill="none" stroke="black" d="M-102,246.5C-102,246.5 10,246.5 10,246.5 16,246.5 22,240.5 22,234.5 22,234.5 22,165.5 22,165.5 22,159.5 16,153.5 10,153.5 10,153.5 -102,153.5 -102,153.5 -108,153.5 -114,159.5 -114,165.5 -114,165.5 -114,234.5 -114,234.5 -114,240.5 -108,246.5 -102,246.5"/>
<text text-anchor="middle" x="-46" y="168.7" font-family="Times,serif" font-size="14.00">ApplicationController</text>
<polyline fill="none" stroke="black" points="-114,176.5 22,176.5 "/>
<text text-anchor="start" x="-106" y="191.7" font-family="Times,serif" font-size="14.00">set_cache_buster</text>
<polyline fill="none" stroke="black" points="-114,199.5 22,199.5 "/>
<polyline fill="none" stroke="black" points="-114,223.5 22,223.5 "/>
<text text-anchor="start" x="-106" y="238.7" font-family="Times,serif" font-size="14.00">_layout</text>
</g>
<!-- HealthServicesController -->
<g id="node3" class="node"><title>HealthServicesController</title>
<path fill="none" stroke="black" d="M107,94.5C107,94.5 237,94.5 237,94.5 243,94.5 249,88.5 249,82.5 249,82.5 249,-106.5 249,-106.5 249,-112.5 243,-118.5 237,-118.5 237,-118.5 107,-118.5 107,-118.5 101,-118.5 95,-112.5 95,-106.5 95,-106.5 95,82.5 95,82.5 95,88.5 101,94.5 107,94.5"/>
<text text-anchor="middle" x="172" y="-103.3" font-family="Times,serif" font-size="14.00">HealthServicesController</text>
<polyline fill="none" stroke="black" points="95,-95.5 249,-95.5 "/>
<text text-anchor="start" x="103" y="-80.3" font-family="Times,serif" font-size="14.00">create</text>
<text text-anchor="start" x="103" y="-65.3" font-family="Times,serif" font-size="14.00">destroy</text>
<text text-anchor="start" x="103" y="-50.3" font-family="Times,serif" font-size="14.00">edit</text>
<text text-anchor="start" x="103" y="-35.3" font-family="Times,serif" font-size="14.00">index</text>
<text text-anchor="start" x="103" y="-20.3" font-family="Times,serif" font-size="14.00">new</text>
<text text-anchor="start" x="103" y="-5.3" font-family="Times,serif" font-size="14.00">show</text>
<text text-anchor="start" x="103" y="9.7" font-family="Times,serif" font-size="14.00">update</text>
<polyline fill="none" stroke="black" points="95,17.5 249,17.5 "/>
<polyline fill="none" stroke="black" points="95,41.5 249,41.5 "/>
<text text-anchor="start" x="103" y="56.7" font-family="Times,serif" font-size="14.00">_layout</text>
<text text-anchor="start" x="103" y="71.7" font-family="Times,serif" font-size="14.00">health_service_params</text>
<text text-anchor="start" x="103" y="86.7" font-family="Times,serif" font-size="14.00">set_health_service</text>
</g>
<!-- ContactsController -->
<g id="node4" class="node"><title>ContactsController</title>
<path fill="none" stroke="black" d="M-44.5,-133.5C-44.5,-133.5 50.5,-133.5 50.5,-133.5 56.5,-133.5 62.5,-139.5 62.5,-145.5 62.5,-145.5 62.5,-334.5 62.5,-334.5 62.5,-340.5 56.5,-346.5 50.5,-346.5 50.5,-346.5 -44.5,-346.5 -44.5,-346.5 -50.5,-346.5 -56.5,-340.5 -56.5,-334.5 -56.5,-334.5 -56.5,-145.5 -56.5,-145.5 -56.5,-139.5 -50.5,-133.5 -44.5,-133.5"/>
<text text-anchor="middle" x="3" y="-331.3" font-family="Times,serif" font-size="14.00">ContactsController</text>
<polyline fill="none" stroke="black" points="-56.5,-323.5 62.5,-323.5 "/>
<text text-anchor="start" x="-48.5" y="-308.3" font-family="Times,serif" font-size="14.00">create</text>
<text text-anchor="start" x="-48.5" y="-293.3" font-family="Times,serif" font-size="14.00">destroy</text>
<text text-anchor="start" x="-48.5" y="-278.3" font-family="Times,serif" font-size="14.00">edit</text>
<text text-anchor="start" x="-48.5" y="-263.3" font-family="Times,serif" font-size="14.00">index</text>
<text text-anchor="start" x="-48.5" y="-248.3" font-family="Times,serif" font-size="14.00">new</text>
<text text-anchor="start" x="-48.5" y="-233.3" font-family="Times,serif" font-size="14.00">show</text>
<text text-anchor="start" x="-48.5" y="-218.3" font-family="Times,serif" font-size="14.00">update</text>
<polyline fill="none" stroke="black" points="-56.5,-210.5 62.5,-210.5 "/>
<polyline fill="none" stroke="black" points="-56.5,-186.5 62.5,-186.5 "/>
<text text-anchor="start" x="-48.5" y="-171.3" font-family="Times,serif" font-size="14.00">_layout</text>
<text text-anchor="start" x="-48.5" y="-156.3" font-family="Times,serif" font-size="14.00">contact_params</text>
<text text-anchor="start" x="-48.5" y="-141.3" font-family="Times,serif" font-size="14.00">set_contact</text>
</g>
<!-- PeopleController -->
<g id="node5" class="node"><title>PeopleController</title>
<path fill="none" stroke="black" d="M335.5,37.5C335.5,37.5 420.5,37.5 420.5,37.5 426.5,37.5 432.5,31.5 432.5,25.5 432.5,25.5 432.5,-163.5 432.5,-163.5 432.5,-169.5 426.5,-175.5 420.5,-175.5 420.5,-175.5 335.5,-175.5 335.5,-175.5 329.5,-175.5 323.5,-169.5 323.5,-163.5 323.5,-163.5 323.5,25.5 323.5,25.5 323.5,31.5 329.5,37.5 335.5,37.5"/>
<text text-anchor="middle" x="378" y="-160.3" font-family="Times,serif" font-size="14.00">PeopleController</text>
<polyline fill="none" stroke="black" points="323.5,-152.5 432.5,-152.5 "/>
<text text-anchor="start" x="331.5" y="-137.3" font-family="Times,serif" font-size="14.00">create</text>
<text text-anchor="start" x="331.5" y="-122.3" font-family="Times,serif" font-size="14.00">destroy</text>
<text text-anchor="start" x="331.5" y="-107.3" font-family="Times,serif" font-size="14.00">edit</text>
<text text-anchor="start" x="331.5" y="-92.3" font-family="Times,serif" font-size="14.00">index</text>
<text text-anchor="start" x="331.5" y="-77.3" font-family="Times,serif" font-size="14.00">new</text>
<text text-anchor="start" x="331.5" y="-62.3" font-family="Times,serif" font-size="14.00">show</text>
<text text-anchor="start" x="331.5" y="-47.3" font-family="Times,serif" font-size="14.00">update</text>
<polyline fill="none" stroke="black" points="323.5,-39.5 432.5,-39.5 "/>
<polyline fill="none" stroke="black" points="323.5,-15.5 432.5,-15.5 "/>
<text text-anchor="start" x="331.5" y="-0.3" font-family="Times,serif" font-size="14.00">_layout</text>
<text text-anchor="start" x="331.5" y="14.7" font-family="Times,serif" font-size="14.00">person_params</text>
<text text-anchor="start" x="331.5" y="29.7" font-family="Times,serif" font-size="14.00">set_person</text>
</g>
<!-- EventsController -->
<g id="node6" class="node"><title>EventsController</title>
<path fill="none" stroke="black" d="M335.5,-209.5C335.5,-209.5 420.5,-209.5 420.5,-209.5 426.5,-209.5 432.5,-215.5 432.5,-221.5 432.5,-221.5 432.5,-410.5 432.5,-410.5 432.5,-416.5 426.5,-422.5 420.5,-422.5 420.5,-422.5 335.5,-422.5 335.5,-422.5 329.5,-422.5 323.5,-416.5 323.5,-410.5 323.5,-410.5 323.5,-221.5 323.5,-221.5 323.5,-215.5 329.5,-209.5 335.5,-209.5"/>
<text text-anchor="middle" x="378" y="-407.3" font-family="Times,serif" font-size="14.00">EventsController</text>
<polyline fill="none" stroke="black" points="323.5,-399.5 432.5,-399.5 "/>
<text text-anchor="start" x="331.5" y="-384.3" font-family="Times,serif" font-size="14.00">create</text>
<text text-anchor="start" x="331.5" y="-369.3" font-family="Times,serif" font-size="14.00">destroy</text>
<text text-anchor="start" x="331.5" y="-354.3" font-family="Times,serif" font-size="14.00">edit</text>
<text text-anchor="start" x="331.5" y="-339.3" font-family="Times,serif" font-size="14.00">index</text>
<text text-anchor="start" x="331.5" y="-324.3" font-family="Times,serif" font-size="14.00">new</text>
<text text-anchor="start" x="331.5" y="-309.3" font-family="Times,serif" font-size="14.00">show</text>
<text text-anchor="start" x="331.5" y="-294.3" font-family="Times,serif" font-size="14.00">update</text>
<polyline fill="none" stroke="black" points="323.5,-286.5 432.5,-286.5 "/>
<polyline fill="none" stroke="black" points="323.5,-262.5 432.5,-262.5 "/>
<text text-anchor="start" x="331.5" y="-247.3" font-family="Times,serif" font-size="14.00">_layout</text>
<text text-anchor="start" x="331.5" y="-232.3" font-family="Times,serif" font-size="14.00">event_params</text>
<text text-anchor="start" x="331.5" y="-217.3" font-family="Times,serif" font-size="14.00">set_event</text>
</g>
<!-- HomeController -->
<g id="node7" class="node"><title>HomeController</title>
<path fill="none" stroke="black" d="M-349,-361.5C-349,-361.5 -267,-361.5 -267,-361.5 -261,-361.5 -255,-367.5 -255,-373.5 -255,-373.5 -255,-442.5 -255,-442.5 -255,-448.5 -261,-454.5 -267,-454.5 -267,-454.5 -349,-454.5 -349,-454.5 -355,-454.5 -361,-448.5 -361,-442.5 -361,-442.5 -361,-373.5 -361,-373.5 -361,-367.5 -355,-361.5 -349,-361.5"/>
<text text-anchor="middle" x="-308" y="-439.3" font-family="Times,serif" font-size="14.00">HomeController</text>
<polyline fill="none" stroke="black" points="-361,-431.5 -255,-431.5 "/>
<text text-anchor="start" x="-353" y="-416.3" font-family="Times,serif" font-size="14.00">index</text>
<polyline fill="none" stroke="black" points="-361,-408.5 -255,-408.5 "/>
<polyline fill="none" stroke="black" points="-361,-384.5 -255,-384.5 "/>
<text text-anchor="start" x="-353" y="-369.3" font-family="Times,serif" font-size="14.00">_layout</text>
</g>
<!-- ResidencesController -->
<g id="node8" class="node"><title>ResidencesController</title>
<path fill="none" stroke="black" d="M164.5,-152.5C164.5,-152.5 273.5,-152.5 273.5,-152.5 279.5,-152.5 285.5,-158.5 285.5,-164.5 285.5,-164.5 285.5,-353.5 285.5,-353.5 285.5,-359.5 279.5,-365.5 273.5,-365.5 273.5,-365.5 164.5,-365.5 164.5,-365.5 158.5,-365.5 152.5,-359.5 152.5,-353.5 152.5,-353.5 152.5,-164.5 152.5,-164.5 152.5,-158.5 158.5,-152.5 164.5,-152.5"/>
<text text-anchor="middle" x="219" y="-350.3" font-family="Times,serif" font-size="14.00">ResidencesController</text>
<polyline fill="none" stroke="black" points="152.5,-342.5 285.5,-342.5 "/>
<text text-anchor="start" x="160.5" y="-327.3" font-family="Times,serif" font-size="14.00">create</text>
<text text-anchor="start" x="160.5" y="-312.3" font-family="Times,serif" font-size="14.00">destroy</text>
<text text-anchor="start" x="160.5" y="-297.3" font-family="Times,serif" font-size="14.00">edit</text>
<text text-anchor="start" x="160.5" y="-282.3" font-family="Times,serif" font-size="14.00">index</text>
<text text-anchor="start" x="160.5" y="-267.3" font-family="Times,serif" font-size="14.00">new</text>
<text text-anchor="start" x="160.5" y="-252.3" font-family="Times,serif" font-size="14.00">show</text>
<text text-anchor="start" x="160.5" y="-237.3" font-family="Times,serif" font-size="14.00">update</text>
<polyline fill="none" stroke="black" points="152.5,-229.5 285.5,-229.5 "/>
<polyline fill="none" stroke="black" points="152.5,-205.5 285.5,-205.5 "/>
<text text-anchor="start" x="160.5" y="-190.3" font-family="Times,serif" font-size="14.00">_layout</text>
<text text-anchor="start" x="160.5" y="-175.3" font-family="Times,serif" font-size="14.00">residence_params</text>
<text text-anchor="start" x="160.5" y="-160.3" font-family="Times,serif" font-size="14.00">set_residence</text>
</g>
<!-- AnnouncementsController -->
<g id="node9" class="node"><title>AnnouncementsController</title>
<path fill="none" stroke="black" d="M-82.5,113.5C-82.5,113.5 54.5,113.5 54.5,113.5 60.5,113.5 66.5,107.5 66.5,101.5 66.5,101.5 66.5,-87.5 66.5,-87.5 66.5,-93.5 60.5,-99.5 54.5,-99.5 54.5,-99.5 -82.5,-99.5 -82.5,-99.5 -88.5,-99.5 -94.5,-93.5 -94.5,-87.5 -94.5,-87.5 -94.5,101.5 -94.5,101.5 -94.5,107.5 -88.5,113.5 -82.5,113.5"/>
<text text-anchor="middle" x="-14" y="-84.3" font-family="Times,serif" font-size="14.00">AnnouncementsController</text>
<polyline fill="none" stroke="black" points="-94.5,-76.5 66.5,-76.5 "/>
<text text-anchor="start" x="-86.5" y="-61.3" font-family="Times,serif" font-size="14.00">create</text>
<text text-anchor="start" x="-86.5" y="-46.3" font-family="Times,serif" font-size="14.00">destroy</text>
<text text-anchor="start" x="-86.5" y="-31.3" font-family="Times,serif" font-size="14.00">edit</text>
<text text-anchor="start" x="-86.5" y="-16.3" font-family="Times,serif" font-size="14.00">index</text>
<text text-anchor="start" x="-86.5" y="-1.3" font-family="Times,serif" font-size="14.00">new</text>
<text text-anchor="start" x="-86.5" y="13.7" font-family="Times,serif" font-size="14.00">show</text>
<text text-anchor="start" x="-86.5" y="28.7" font-family="Times,serif" font-size="14.00">update</text>
<polyline fill="none" stroke="black" points="-94.5,36.5 66.5,36.5 "/>
<polyline fill="none" stroke="black" points="-94.5,60.5 66.5,60.5 "/>
<text text-anchor="start" x="-86.5" y="75.7" font-family="Times,serif" font-size="14.00">_layout</text>
<text text-anchor="start" x="-86.5" y="90.7" font-family="Times,serif" font-size="14.00">announcement_params</text>
<text text-anchor="start" x="-86.5" y="105.7" font-family="Times,serif" font-size="14.00">set_announcement</text>
</g>
<!-- CandidatesController -->
<g id="node10" class="node"><title>CandidatesController</title>
<path fill="none" stroke="black" d="M-216,-228.5C-216,-228.5 -108,-228.5 -108,-228.5 -102,-228.5 -96,-234.5 -96,-240.5 -96,-240.5 -96,-429.5 -96,-429.5 -96,-435.5 -102,-441.5 -108,-441.5 -108,-441.5 -216,-441.5 -216,-441.5 -222,-441.5 -228,-435.5 -228,-429.5 -228,-429.5 -228,-240.5 -228,-240.5 -228,-234.5 -222,-228.5 -216,-228.5"/>
<text text-anchor="middle" x="-162" y="-426.3" font-family="Times,serif" font-size="14.00">CandidatesController</text>
<polyline fill="none" stroke="black" points="-228,-418.5 -96,-418.5 "/>
<text text-anchor="start" x="-220" y="-403.3" font-family="Times,serif" font-size="14.00">create</text>
<text text-anchor="start" x="-220" y="-388.3" font-family="Times,serif" font-size="14.00">destroy</text>
<text text-anchor="start" x="-220" y="-373.3" font-family="Times,serif" font-size="14.00">edit</text>
<text text-anchor="start" x="-220" y="-358.3" font-family="Times,serif" font-size="14.00">index</text>
<text text-anchor="start" x="-220" y="-343.3" font-family="Times,serif" font-size="14.00">new</text>
<text text-anchor="start" x="-220" y="-328.3" font-family="Times,serif" font-size="14.00">show</text>
<text text-anchor="start" x="-220" y="-313.3" font-family="Times,serif" font-size="14.00">update</text>
<polyline fill="none" stroke="black" points="-228,-305.5 -96,-305.5 "/>
<polyline fill="none" stroke="black" points="-228,-281.5 -96,-281.5 "/>
<text text-anchor="start" x="-220" y="-266.3" font-family="Times,serif" font-size="14.00">_layout</text>
<text text-anchor="start" x="-220" y="-251.3" font-family="Times,serif" font-size="14.00">candidate_params</text>
<text text-anchor="start" x="-220" y="-236.3" font-family="Times,serif" font-size="14.00">set_candidate</text>
</g>
<!-- OpinionsController -->
<g id="node11" class="node"><title>OpinionsController</title>
<path fill="none" stroke="black" d="M-235,18.5C-235,18.5 -137,18.5 -137,18.5 -131,18.5 -125,12.5 -125,6.5 -125,6.5 -125,-182.5 -125,-182.5 -125,-188.5 -131,-194.5 -137,-194.5 -137,-194.5 -235,-194.5 -235,-194.5 -241,-194.5 -247,-188.5 -247,-182.5 -247,-182.5 -247,6.5 -247,6.5 -247,12.5 -241,18.5 -235,18.5"/>
<text text-anchor="middle" x="-186" y="-179.3" font-family="Times,serif" font-size="14.00">OpinionsController</text>
<polyline fill="none" stroke="black" points="-247,-171.5 -125,-171.5 "/>
<text text-anchor="start" x="-239" y="-156.3" font-family="Times,serif" font-size="14.00">create</text>
<text text-anchor="start" x="-239" y="-141.3" font-family="Times,serif" font-size="14.00">destroy</text>
<text text-anchor="start" x="-239" y="-126.3" font-family="Times,serif" font-size="14.00">edit</text>
<text text-anchor="start" x="-239" y="-111.3" font-family="Times,serif" font-size="14.00">index</text>
<text text-anchor="start" x="-239" y="-96.3" font-family="Times,serif" font-size="14.00">new</text>
<text text-anchor="start" x="-239" y="-81.3" font-family="Times,serif" font-size="14.00">show</text>
<text text-anchor="start" x="-239" y="-66.3" font-family="Times,serif" font-size="14.00">update</text>
<polyline fill="none" stroke="black" points="-247,-58.5 -125,-58.5 "/>
<polyline fill="none" stroke="black" points="-247,-34.5 -125,-34.5 "/>
<text text-anchor="start" x="-239" y="-19.3" font-family="Times,serif" font-size="14.00">_layout</text>
<text text-anchor="start" x="-239" y="-4.3" font-family="Times,serif" font-size="14.00">opinion_params</text>
<text text-anchor="start" x="-239" y="10.7" font-family="Times,serif" font-size="14.00">set_opinion</text>
</g>
<!-- ElectionsController -->
<g id="node12" class="node"><title>ElectionsController</title>
<path fill="none" stroke="black" d="M-254,265.5C-254,265.5 -156,265.5 -156,265.5 -150,265.5 -144,259.5 -144,253.5 -144,253.5 -144,64.5 -144,64.5 -144,58.5 -150,52.5 -156,52.5 -156,52.5 -254,52.5 -254,52.5 -260,52.5 -266,58.5 -266,64.5 -266,64.5 -266,253.5 -266,253.5 -266,259.5 -260,265.5 -254,265.5"/>
<text text-anchor="middle" x="-205" y="67.7" font-family="Times,serif" font-size="14.00">ElectionsController</text>
<polyline fill="none" stroke="black" points="-266,75.5 -144,75.5 "/>
<text text-anchor="start" x="-258" y="90.7" font-family="Times,serif" font-size="14.00">create</text>
<text text-anchor="start" x="-258" y="105.7" font-family="Times,serif" font-size="14.00">destroy</text>
<text text-anchor="start" x="-258" y="120.7" font-family="Times,serif" font-size="14.00">edit</text>
<text text-anchor="start" x="-258" y="135.7" font-family="Times,serif" font-size="14.00">index</text>
<text text-anchor="start" x="-258" y="150.7" font-family="Times,serif" font-size="14.00">new</text>
<text text-anchor="start" x="-258" y="165.7" font-family="Times,serif" font-size="14.00">show</text>
<text text-anchor="start" x="-258" y="180.7" font-family="Times,serif" font-size="14.00">update</text>
<polyline fill="none" stroke="black" points="-266,188.5 -144,188.5 "/>
<polyline fill="none" stroke="black" points="-266,212.5 -144,212.5 "/>
<text text-anchor="start" x="-258" y="227.7" font-family="Times,serif" font-size="14.00">_layout</text>
<text text-anchor="start" x="-258" y="242.7" font-family="Times,serif" font-size="14.00">election_params</text>
<text text-anchor="start" x="-258" y="257.7" font-family="Times,serif" font-size="14.00">set_election</text>
</g>
<!-- ChildrenController -->
<g id="node13" class="node"><title>ChildrenController</title>
<path fill="none" stroke="black" d="M297.5,284.5C297.5,284.5 392.5,284.5 392.5,284.5 398.5,284.5 404.5,278.5 404.5,272.5 404.5,272.5 404.5,83.5 404.5,83.5 404.5,77.5 398.5,71.5 392.5,71.5 392.5,71.5 297.5,71.5 297.5,71.5 291.5,71.5 285.5,77.5 285.5,83.5 285.5,83.5 285.5,272.5 285.5,272.5 285.5,278.5 291.5,284.5 297.5,284.5"/>
<text text-anchor="middle" x="345" y="86.7" font-family="Times,serif" font-size="14.00">ChildrenController</text>
<polyline fill="none" stroke="black" points="285.5,94.5 404.5,94.5 "/>
<text text-anchor="start" x="293.5" y="109.7" font-family="Times,serif" font-size="14.00">create</text>
<text text-anchor="start" x="293.5" y="124.7" font-family="Times,serif" font-size="14.00">destroy</text>
<text text-anchor="start" x="293.5" y="139.7" font-family="Times,serif" font-size="14.00">edit</text>
<text text-anchor="start" x="293.5" y="154.7" font-family="Times,serif" font-size="14.00">index</text>
<text text-anchor="start" x="293.5" y="169.7" font-family="Times,serif" font-size="14.00">new</text>
<text text-anchor="start" x="293.5" y="184.7" font-family="Times,serif" font-size="14.00">show</text>
<text text-anchor="start" x="293.5" y="199.7" font-family="Times,serif" font-size="14.00">update</text>
<polyline fill="none" stroke="black" points="285.5,207.5 404.5,207.5 "/>
<polyline fill="none" stroke="black" points="285.5,231.5 404.5,231.5 "/>
<text text-anchor="start" x="293.5" y="246.7" font-family="Times,serif" font-size="14.00">_layout</text>
<text text-anchor="start" x="293.5" y="261.7" font-family="Times,serif" font-size="14.00">child_params</text>
<text text-anchor="start" x="293.5" y="276.7" font-family="Times,serif" font-size="14.00">set_child</text>
</g>
<!-- CensosController -->
<g id="node14" class="node"><title>CensosController</title>
<path fill="none" stroke="black" d="M106.5,341.5C106.5,341.5 193.5,341.5 193.5,341.5 199.5,341.5 205.5,335.5 205.5,329.5 205.5,329.5 205.5,140.5 205.5,140.5 205.5,134.5 199.5,128.5 193.5,128.5 193.5,128.5 106.5,128.5 106.5,128.5 100.5,128.5 94.5,134.5 94.5,140.5 94.5,140.5 94.5,329.5 94.5,329.5 94.5,335.5 100.5,341.5 106.5,341.5"/>
<text text-anchor="middle" x="150" y="143.7" font-family="Times,serif" font-size="14.00">CensosController</text>
<polyline fill="none" stroke="black" points="94.5,151.5 205.5,151.5 "/>
<text text-anchor="start" x="102.5" y="166.7" font-family="Times,serif" font-size="14.00">create</text>
<text text-anchor="start" x="102.5" y="181.7" font-family="Times,serif" font-size="14.00">destroy</text>
<text text-anchor="start" x="102.5" y="196.7" font-family="Times,serif" font-size="14.00">edit</text>
<text text-anchor="start" x="102.5" y="211.7" font-family="Times,serif" font-size="14.00">index</text>
<text text-anchor="start" x="102.5" y="226.7" font-family="Times,serif" font-size="14.00">new</text>
<text text-anchor="start" x="102.5" y="241.7" font-family="Times,serif" font-size="14.00">show</text>
<text text-anchor="start" x="102.5" y="256.7" font-family="Times,serif" font-size="14.00">update</text>
<polyline fill="none" stroke="black" points="94.5,264.5 205.5,264.5 "/>
<polyline fill="none" stroke="black" points="94.5,288.5 205.5,288.5 "/>
<text text-anchor="start" x="102.5" y="303.7" font-family="Times,serif" font-size="14.00">_layout</text>
<text text-anchor="start" x="102.5" y="318.7" font-family="Times,serif" font-size="14.00">censo_params</text>
<text text-anchor="start" x="102.5" y="333.7" font-family="Times,serif" font-size="14.00">set_censo</text>
</g>
</g>
</svg>
