<?xml version="1.0" encoding="UTF-8" standalone="no"?>
<!DOCTYPE svg PUBLIC "-//W3C//DTD SVG 1.1//EN"
 "http://www.w3.org/Graphics/SVG/1.1/DTD/svg11.dtd">
<!-- Generated by graphviz version 2.38.0 (20140413.2041)
 -->
<!-- Title: controllers_diagram Pages: 1 -->
<svg width="805pt" height="843pt"
 viewBox="0.00 0.00 805.00 843.00" xmlns="http://www.w3.org/2000/svg" xmlns:xlink="http://www.w3.org/1999/xlink">
<g id="graph0" class="graph" transform="scale(1 1) rotate(0) translate(384 459)">
<title>controllers_diagram</title>
<polygon fill="none" stroke="none" points="-384,384 -384,-459 421,-459 421,384 -384,384"/>
<!-- _diagram_info -->
<g id="node1" class="node"><title>_diagram_info</title>
<text text-anchor="start" x="-372" y="316.4" font-family="Times,serif" font-size="13.00">Controllers diagram</text>
<text text-anchor="start" x="-372" y="330.4" font-family="Times,serif" font-size="13.00">Date: Sep 21 2017 &#45; 12:13</text>
<text text-anchor="start" x="-372" y="344.4" font-family="Times,serif" font-size="13.00">Migration version: 20170921165236</text>
<text text-anchor="start" x="-372" y="358.4" font-family="Times,serif" font-size="13.00">Generated by RailRoady 1.5.3</text>
<text text-anchor="start" x="-372" y="372.4" font-family="Times,serif" font-size="13.00">http://railroady.prestonlee.com</text>
</g>
<!-- ContactsController -->
<g id="node2" class="node"><title>ContactsController</title>
<path fill="none" stroke="black" d="M-44.5,-133.5C-44.5,-133.5 50.5,-133.5 50.5,-133.5 56.5,-133.5 62.5,-139.5 62.5,-145.5 62.5,-145.5 62.5,-334.5 62.5,-334.5 62.5,-340.5 56.5,-346.5 50.5,-346.5 50.5,-346.5 -44.5,-346.5 -44.5,-346.5 -50.5,-346.5 -56.5,-340.5 -56.5,-334.5 -56.5,-334.5 -56.5,-145.5 -56.5,-145.5 -56.5,-139.5 -50.5,-133.5 -44.5,-133.5"/>
<text text-anchor="middle" x="3" y="-331.3" font-family="Times,serif" font-size="14.00">ContactsController</text>
<polyline fill="none" stroke="black" points="-56.5,-323.5 62.5,-323.5 "/>
<text text-anchor="start" x="-48.5" y="-308.3" font-family="Times,serif" font-size="14.00">create</text>
<text text-anchor="start" x="-48.5" y="-293.3" font-family="Times,serif" font-size="14.00">destroy</text>
<text text-anchor="start" x="-48.5" y="-278.3" font-family="Times,serif" font-size="14.00">edit</text>
<text text-anchor="start" x="-48.5" y="-263.3" font-family="Times,serif" font-size="14.00">index</text>
<text text-anchor="start" x="-48.5" y="-248.3" font-family="Times,serif" font-size="14.00">new</text>
<text text-anchor="start" x="-48.5" y="-233.3" font-family="Times,serif" font-size="14.00">show</text>
<text text-anchor="start" x="-48.5" y="-218.3" font-family="Times,serif" font-size="14.00">update</text>
<polyline fill="none" stroke="black" points="-56.5,-210.5 62.5,-210.5 "/>
<polyline fill="none" stroke="black" points="-56.5,-186.5 62.5,-186.5 "/>
<text text-anchor="start" x="-48.5" y="-171.3" font-family="Times,serif" font-size="14.00">_layout</text>
<text text-anchor="start" x="-48.5" y="-156.3" font-family="Times,serif" font-size="14.00">contact_params</text>
<text text-anchor="start" x="-48.5" y="-141.3" font-family="Times,serif" font-size="14.00">set_contact</text>
</g>
<!-- HomeController -->
<g id="node3" class="node"><title>HomeController</title>
<path fill="none" stroke="black" d="M-349,-361.5C-349,-361.5 -267,-361.5 -267,-361.5 -261,-361.5 -255,-367.5 -255,-373.5 -255,-373.5 -255,-442.5 -255,-442.5 -255,-448.5 -261,-454.5 -267,-454.5 -267,-454.5 -349,-454.5 -349,-454.5 -355,-454.5 -361,-448.5 -361,-442.5 -361,-442.5 -361,-373.5 -361,-373.5 -361,-367.5 -355,-361.5 -349,-361.5"/>
<text text-anchor="middle" x="-308" y="-439.3" font-family="Times,serif" font-size="14.00">HomeController</text>
<polyline fill="none" stroke="black" points="-361,-431.5 -255,-431.5 "/>
<text text-anchor="start" x="-353" y="-416.3" font-family="Times,serif" font-size="14.00">index</text>
<polyline fill="none" stroke="black" points="-361,-408.5 -255,-408.5 "/>
<polyline fill="none" stroke="black" points="-361,-384.5 -255,-384.5 "/>
<text text-anchor="start" x="-353" y="-369.3" font-family="Times,serif" font-size="14.00">_layout</text>
</g>
<!-- ElectionsController -->
<g id="node4" class="node"><title>ElectionsController</title>
<path fill="none" stroke="black" d="M164,-152.5C164,-152.5 262,-152.5 262,-152.5 268,-152.5 274,-158.5 274,-164.5 274,-164.5 274,-353.5 274,-353.5 274,-359.5 268,-365.5 262,-365.5 262,-365.5 164,-365.5 164,-365.5 158,-365.5 152,-359.5 152,-353.5 152,-353.5 152,-164.5 152,-164.5 152,-158.5 158,-152.5 164,-152.5"/>
<text text-anchor="middle" x="213" y="-350.3" font-family="Times,serif" font-size="14.00">ElectionsController</text>
<polyline fill="none" stroke="black" points="152,-342.5 274,-342.5 "/>
<text text-anchor="start" x="160" y="-327.3" font-family="Times,serif" font-size="14.00">create</text>
<text text-anchor="start" x="160" y="-312.3" font-family="Times,serif" font-size="14.00">destroy</text>
<text text-anchor="start" x="160" y="-297.3" font-family="Times,serif" font-size="14.00">edit</text>
<text text-anchor="start" x="160" y="-282.3" font-family="Times,serif" font-size="14.00">index</text>
<text text-anchor="start" x="160" y="-267.3" font-family="Times,serif" font-size="14.00">new</text>
<text text-anchor="start" x="160" y="-252.3" font-family="Times,serif" font-size="14.00">show</text>
<text text-anchor="start" x="160" y="-237.3" font-family="Times,serif" font-size="14.00">update</text>
<polyline fill="none" stroke="black" points="152,-229.5 274,-229.5 "/>
<polyline fill="none" stroke="black" points="152,-205.5 274,-205.5 "/>
<text text-anchor="start" x="160" y="-190.3" font-family="Times,serif" font-size="14.00">_layout</text>
<text text-anchor="start" x="160" y="-175.3" font-family="Times,serif" font-size="14.00">election_params</text>
<text text-anchor="start" x="160" y="-160.3" font-family="Times,serif" font-size="14.00">set_election</text>
</g>
<!-- ResidencesController -->
<g id="node5" class="node"><title>ResidencesController</title>
<path fill="none" stroke="black" d="M-215.5,-228.5C-215.5,-228.5 -106.5,-228.5 -106.5,-228.5 -100.5,-228.5 -94.5,-234.5 -94.5,-240.5 -94.5,-240.5 -94.5,-429.5 -94.5,-429.5 -94.5,-435.5 -100.5,-441.5 -106.5,-441.5 -106.5,-441.5 -215.5,-441.5 -215.5,-441.5 -221.5,-441.5 -227.5,-435.5 -227.5,-429.5 -227.5,-429.5 -227.5,-240.5 -227.5,-240.5 -227.5,-234.5 -221.5,-228.5 -215.5,-228.5"/>
<text text-anchor="middle" x="-161" y="-426.3" font-family="Times,serif" font-size="14.00">ResidencesController</text>
<polyline fill="none" stroke="black" points="-227.5,-418.5 -94.5,-418.5 "/>
<text text-anchor="start" x="-219.5" y="-403.3" font-family="Times,serif" font-size="14.00">create</text>
<text text-anchor="start" x="-219.5" y="-388.3" font-family="Times,serif" font-size="14.00">destroy</text>
<text text-anchor="start" x="-219.5" y="-373.3" font-family="Times,serif" font-size="14.00">edit</text>
<text text-anchor="start" x="-219.5" y="-358.3" font-family="Times,serif" font-size="14.00">index</text>
<text text-anchor="start" x="-219.5" y="-343.3" font-family="Times,serif" font-size="14.00">new</text>
<text text-anchor="start" x="-219.5" y="-328.3" font-family="Times,serif" font-size="14.00">show</text>
<text text-anchor="start" x="-219.5" y="-313.3" font-family="Times,serif" font-size="14.00">update</text>
<polyline fill="none" stroke="black" points="-227.5,-305.5 -94.5,-305.5 "/>
<polyline fill="none" stroke="black" points="-227.5,-281.5 -94.5,-281.5 "/>
<text text-anchor="start" x="-219.5" y="-266.3" font-family="Times,serif" font-size="14.00">_layout</text>
<text text-anchor="start" x="-219.5" y="-251.3" font-family="Times,serif" font-size="14.00">residence_params</text>
<text text-anchor="start" x="-219.5" y="-236.3" font-family="Times,serif" font-size="14.00">set_residence</text>
</g>
<!-- HealthServicesController -->
<g id="node6" class="node"><title>HealthServicesController</title>
<path fill="none" stroke="black" d="M107,94.5C107,94.5 237,94.5 237,94.5 243,94.5 249,88.5 249,82.5 249,82.5 249,-106.5 249,-106.5 249,-112.5 243,-118.5 237,-118.5 237,-118.5 107,-118.5 107,-118.5 101,-118.5 95,-112.5 95,-106.5 95,-106.5 95,82.5 95,82.5 95,88.5 101,94.5 107,94.5"/>
<text text-anchor="middle" x="172" y="-103.3" font-family="Times,serif" font-size="14.00">HealthServicesController</text>
<polyline fill="none" stroke="black" points="95,-95.5 249,-95.5 "/>
<text text-anchor="start" x="103" y="-80.3" font-family="Times,serif" font-size="14.00">create</text>
<text text-anchor="start" x="103" y="-65.3" font-family="Times,serif" font-size="14.00">destroy</text>
<text text-anchor="start" x="103" y="-50.3" font-family="Times,serif" font-size="14.00">edit</text>
<text text-anchor="start" x="103" y="-35.3" font-family="Times,serif" font-size="14.00">index</text>
<text text-anchor="start" x="103" y="-20.3" font-family="Times,serif" font-size="14.00">new</text>
<text text-anchor="start" x="103" y="-5.3" font-family="Times,serif" font-size="14.00">show</text>
<text text-anchor="start" x="103" y="9.7" font-family="Times,serif" font-size="14.00">update</text>
<polyline fill="none" stroke="black" points="95,17.5 249,17.5 "/>
<polyline fill="none" stroke="black" points="95,41.5 249,41.5 "/>
<text text-anchor="start" x="103" y="56.7" font-family="Times,serif" font-size="14.00">_layout</text>
<text text-anchor="start" x="103" y="71.7" font-family="Times,serif" font-size="14.00">health_service_params</text>
<text text-anchor="start" x="103" y="86.7" font-family="Times,serif" font-size="14.00">set_health_service</text>
</g>
<!-- CensosController -->
<g id="node7" class="node"><title>CensosController</title>
<path fill="none" stroke="black" d="M315.5,37.5C315.5,37.5 402.5,37.5 402.5,37.5 408.5,37.5 414.5,31.5 414.5,25.5 414.5,25.5 414.5,-163.5 414.5,-163.5 414.5,-169.5 408.5,-175.5 402.5,-175.5 402.5,-175.5 315.5,-175.5 315.5,-175.5 309.5,-175.5 303.5,-169.5 303.5,-163.5 303.5,-163.5 303.5,25.5 303.5,25.5 303.5,31.5 309.5,37.5 315.5,37.5"/>
<text text-anchor="middle" x="359" y="-160.3" font-family="Times,serif" font-size="14.00">CensosController</text>
<polyline fill="none" stroke="black" points="303.5,-152.5 414.5,-152.5 "/>
<text text-anchor="start" x="311.5" y="-137.3" font-family="Times,serif" font-size="14.00">create</text>
<text text-anchor="start" x="311.5" y="-122.3" font-family="Times,serif" font-size="14.00">destroy</text>
<text text-anchor="start" x="311.5" y="-107.3" font-family="Times,serif" font-size="14.00">edit</text>
<text text-anchor="start" x="311.5" y="-92.3" font-family="Times,serif" font-size="14.00">index</text>
<text text-anchor="start" x="311.5" y="-77.3" font-family="Times,serif" font-size="14.00">new</text>
<text text-anchor="start" x="311.5" y="-62.3" font-family="Times,serif" font-size="14.00">show</text>
<text text-anchor="start" x="311.5" y="-47.3" font-family="Times,serif" font-size="14.00">update</text>
<polyline fill="none" stroke="black" points="303.5,-39.5 414.5,-39.5 "/>
<polyline fill="none" stroke="black" points="303.5,-15.5 414.5,-15.5 "/>
<text text-anchor="start" x="311.5" y="-0.3" font-family="Times,serif" font-size="14.00">_layout</text>
<text text-anchor="start" x="311.5" y="14.7" font-family="Times,serif" font-size="14.00">censo_params</text>
<text text-anchor="start" x="311.5" y="29.7" font-family="Times,serif" font-size="14.00">set_censo</text>
</g>
<!-- ChildrenController -->
<g id="node8" class="node"><title>ChildrenController</title>
<path fill="none" stroke="black" d="M-234.5,18.5C-234.5,18.5 -139.5,18.5 -139.5,18.5 -133.5,18.5 -127.5,12.5 -127.5,6.5 -127.5,6.5 -127.5,-182.5 -127.5,-182.5 -127.5,-188.5 -133.5,-194.5 -139.5,-194.5 -139.5,-194.5 -234.5,-194.5 -234.5,-194.5 -240.5,-194.5 -246.5,-188.5 -246.5,-182.5 -246.5,-182.5 -246.5,6.5 -246.5,6.5 -246.5,12.5 -240.5,18.5 -234.5,18.5"/>
<text text-anchor="middle" x="-187" y="-179.3" font-family="Times,serif" font-size="14.00">ChildrenController</text>
<polyline fill="none" stroke="black" points="-246.5,-171.5 -127.5,-171.5 "/>
<text text-anchor="start" x="-238.5" y="-156.3" font-family="Times,serif" font-size="14.00">create</text>
<text text-anchor="start" x="-238.5" y="-141.3" font-family="Times,serif" font-size="14.00">destroy</text>
<text text-anchor="start" x="-238.5" y="-126.3" font-family="Times,serif" font-size="14.00">edit</text>
<text text-anchor="start" x="-238.5" y="-111.3" font-family="Times,serif" font-size="14.00">index</text>
<text text-anchor="start" x="-238.5" y="-96.3" font-family="Times,serif" font-size="14.00">new</text>
<text text-anchor="start" x="-238.5" y="-81.3" font-family="Times,serif" font-size="14.00">show</text>
<text text-anchor="start" x="-238.5" y="-66.3" font-family="Times,serif" font-size="14.00">update</text>
<polyline fill="none" stroke="black" points="-246.5,-58.5 -127.5,-58.5 "/>
<polyline fill="none" stroke="black" points="-246.5,-34.5 -127.5,-34.5 "/>
<text text-anchor="start" x="-238.5" y="-19.3" font-family="Times,serif" font-size="14.00">_layout</text>
<text text-anchor="start" x="-238.5" y="-4.3" font-family="Times,serif" font-size="14.00">child_params</text>
<text text-anchor="start" x="-238.5" y="10.7" font-family="Times,serif" font-size="14.00">set_child</text>
</g>
<!-- EventsController -->
<g id="node9" class="node"><title>EventsController</title>
<path fill="none" stroke="black" d="M316.5,-209.5C316.5,-209.5 401.5,-209.5 401.5,-209.5 407.5,-209.5 413.5,-215.5 413.5,-221.5 413.5,-221.5 413.5,-410.5 413.5,-410.5 413.5,-416.5 407.5,-422.5 401.5,-422.5 401.5,-422.5 316.5,-422.5 316.5,-422.5 310.5,-422.5 304.5,-416.5 304.5,-410.5 304.5,-410.5 304.5,-221.5 304.5,-221.5 304.5,-215.5 310.5,-209.5 316.5,-209.5"/>
<text text-anchor="middle" x="359" y="-407.3" font-family="Times,serif" font-size="14.00">EventsController</text>
<polyline fill="none" stroke="black" points="304.5,-399.5 413.5,-399.5 "/>
<text text-anchor="start" x="312.5" y="-384.3" font-family="Times,serif" font-size="14.00">create</text>
<text text-anchor="start" x="312.5" y="-369.3" font-family="Times,serif" font-size="14.00">destroy</text>
<text text-anchor="start" x="312.5" y="-354.3" font-family="Times,serif" font-size="14.00">edit</text>
<text text-anchor="start" x="312.5" y="-339.3" font-family="Times,serif" font-size="14.00">index</text>
<text text-anchor="start" x="312.5" y="-324.3" font-family="Times,serif" font-size="14.00">new</text>
<text text-anchor="start" x="312.5" y="-309.3" font-family="Times,serif" font-size="14.00">show</text>
<text text-anchor="start" x="312.5" y="-294.3" font-family="Times,serif" font-size="14.00">update</text>
<polyline fill="none" stroke="black" points="304.5,-286.5 413.5,-286.5 "/>
<polyline fill="none" stroke="black" points="304.5,-262.5 413.5,-262.5 "/>
<text text-anchor="start" x="312.5" y="-247.3" font-family="Times,serif" font-size="14.00">_layout</text>
<text text-anchor="start" x="312.5" y="-232.3" font-family="Times,serif" font-size="14.00">event_params</text>
<text text-anchor="start" x="312.5" y="-217.3" font-family="Times,serif" font-size="14.00">set_event</text>
</g>
<!-- OpinionsController -->
<g id="node10" class="node"><title>OpinionsController</title>
<path fill="none" stroke="black" d="M-254,265.5C-254,265.5 -156,265.5 -156,265.5 -150,265.5 -144,259.5 -144,253.5 -144,253.5 -144,64.5 -144,64.5 -144,58.5 -150,52.5 -156,52.5 -156,52.5 -254,52.5 -254,52.5 -260,52.5 -266,58.5 -266,64.5 -266,64.5 -266,253.5 -266,253.5 -266,259.5 -260,265.5 -254,265.5"/>
<text text-anchor="middle" x="-205" y="67.7" font-family="Times,serif" font-size="14.00">OpinionsController</text>
<polyline fill="none" stroke="black" points="-266,75.5 -144,75.5 "/>
<text text-anchor="start" x="-258" y="90.7" font-family="Times,serif" font-size="14.00">create</text>
<text text-anchor="start" x="-258" y="105.7" font-family="Times,serif" font-size="14.00">destroy</text>
<text text-anchor="start" x="-258" y="120.7" font-family="Times,serif" font-size="14.00">edit</text>
<text text-anchor="start" x="-258" y="135.7" font-family="Times,serif" font-size="14.00">index</text>
<text text-anchor="start" x="-258" y="150.7" font-family="Times,serif" font-size="14.00">new</text>
<text text-anchor="start" x="-258" y="165.7" font-family="Times,serif" font-size="14.00">show</text>
<text text-anchor="start" x="-258" y="180.7" font-family="Times,serif" font-size="14.00">update</text>
<polyline fill="none" stroke="black" points="-266,188.5 -144,188.5 "/>
<polyline fill="none" stroke="black" points="-266,212.5 -144,212.5 "/>
<text text-anchor="start" x="-258" y="227.7" font-family="Times,serif" font-size="14.00">_layout</text>
<text text-anchor="start" x="-258" y="242.7" font-family="Times,serif" font-size="14.00">opinion_params</text>
<text text-anchor="start" x="-258" y="257.7" font-family="Times,serif" font-size="14.00">set_opinion</text>
</g>
<!-- PeopleController -->
<g id="node11" class="node"><title>PeopleController</title>
<path fill="none" stroke="black" d="M107.5,341.5C107.5,341.5 192.5,341.5 192.5,341.5 198.5,341.5 204.5,335.5 204.5,329.5 204.5,329.5 204.5,140.5 204.5,140.5 204.5,134.5 198.5,128.5 192.5,128.5 192.5,128.5 107.5,128.5 107.5,128.5 101.5,128.5 95.5,134.5 95.5,140.5 95.5,140.5 95.5,329.5 95.5,329.5 95.5,335.5 101.5,341.5 107.5,341.5"/>
<text text-anchor="middle" x="150" y="143.7" font-family="Times,serif" font-size="14.00">PeopleController</text>
<polyline fill="none" stroke="black" points="95.5,151.5 204.5,151.5 "/>
<text text-anchor="start" x="103.5" y="166.7" font-family="Times,serif" font-size="14.00">create</text>
<text text-anchor="start" x="103.5" y="181.7" font-family="Times,serif" font-size="14.00">destroy</text>
<text text-anchor="start" x="103.5" y="196.7" font-family="Times,serif" font-size="14.00">edit</text>
<text text-anchor="start" x="103.5" y="211.7" font-family="Times,serif" font-size="14.00">index</text>
<text text-anchor="start" x="103.5" y="226.7" font-family="Times,serif" font-size="14.00">new</text>
<text text-anchor="start" x="103.5" y="241.7" font-family="Times,serif" font-size="14.00">show</text>
<text text-anchor="start" x="103.5" y="256.7" font-family="Times,serif" font-size="14.00">update</text>
<polyline fill="none" stroke="black" points="95.5,264.5 204.5,264.5 "/>
<polyline fill="none" stroke="black" points="95.5,288.5 204.5,288.5 "/>
<text text-anchor="start" x="103.5" y="303.7" font-family="Times,serif" font-size="14.00">_layout</text>
<text text-anchor="start" x="103.5" y="318.7" font-family="Times,serif" font-size="14.00">person_params</text>
<text text-anchor="start" x="103.5" y="333.7" font-family="Times,serif" font-size="14.00">set_person</text>
</g>
<!-- AnnouncementsController -->
<g id="node12" class="node"><title>AnnouncementsController</title>
<path fill="none" stroke="black" d="M-82.5,113.5C-82.5,113.5 54.5,113.5 54.5,113.5 60.5,113.5 66.5,107.5 66.5,101.5 66.5,101.5 66.5,-87.5 66.5,-87.5 66.5,-93.5 60.5,-99.5 54.5,-99.5 54.5,-99.5 -82.5,-99.5 -82.5,-99.5 -88.5,-99.5 -94.5,-93.5 -94.5,-87.5 -94.5,-87.5 -94.5,101.5 -94.5,101.5 -94.5,107.5 -88.5,113.5 -82.5,113.5"/>
<text text-anchor="middle" x="-14" y="-84.3" font-family="Times,serif" font-size="14.00">AnnouncementsController</text>
<polyline fill="none" stroke="black" points="-94.5,-76.5 66.5,-76.5 "/>
<text text-anchor="start" x="-86.5" y="-61.3" font-family="Times,serif" font-size="14.00">create</text>
<text text-anchor="start" x="-86.5" y="-46.3" font-family="Times,serif" font-size="14.00">destroy</text>
<text text-anchor="start" x="-86.5" y="-31.3" font-family="Times,serif" font-size="14.00">edit</text>
<text text-anchor="start" x="-86.5" y="-16.3" font-family="Times,serif" font-size="14.00">index</text>
<text text-anchor="start" x="-86.5" y="-1.3" font-family="Times,serif" font-size="14.00">new</text>
<text text-anchor="start" x="-86.5" y="13.7" font-family="Times,serif" font-size="14.00">show</text>
<text text-anchor="start" x="-86.5" y="28.7" font-family="Times,serif" font-size="14.00">update</text>
<polyline fill="none" stroke="black" points="-94.5,36.5 66.5,36.5 "/>
<polyline fill="none" stroke="black" points="-94.5,60.5 66.5,60.5 "/>
<text text-anchor="start" x="-86.5" y="75.7" font-family="Times,serif" font-size="14.00">_layout</text>
<text text-anchor="start" x="-86.5" y="90.7" font-family="Times,serif" font-size="14.00">announcement_params</text>
<text text-anchor="start" x="-86.5" y="105.7" font-family="Times,serif" font-size="14.00">set_announcement</text>
</g>
<!-- ApplicationController -->
<g id="node13" class="node"><title>ApplicationController</title>
<path fill="none" stroke="black" d="M-102,246.5C-102,246.5 10,246.5 10,246.5 16,246.5 22,240.5 22,234.5 22,234.5 22,165.5 22,165.5 22,159.5 16,153.5 10,153.5 10,153.5 -102,153.5 -102,153.5 -108,153.5 -114,159.5 -114,165.5 -114,165.5 -114,234.5 -114,234.5 -114,240.5 -108,246.5 -102,246.5"/>
<text text-anchor="middle" x="-46" y="168.7" font-family="Times,serif" font-size="14.00">ApplicationController</text>
<polyline fill="none" stroke="black" points="-114,176.5 22,176.5 "/>
<text text-anchor="start" x="-106" y="191.7" font-family="Times,serif" font-size="14.00">set_cache_buster</text>
<polyline fill="none" stroke="black" points="-114,199.5 22,199.5 "/>
<polyline fill="none" stroke="black" points="-114,223.5 22,223.5 "/>
<text text-anchor="start" x="-106" y="238.7" font-family="Times,serif" font-size="14.00">_layout</text>
</g>
<!-- CandidatesController -->
<g id="node14" class="node"><title>CandidatesController</title>
<path fill="none" stroke="black" d="M297,284.5C297,284.5 405,284.5 405,284.5 411,284.5 417,278.5 417,272.5 417,272.5 417,83.5 417,83.5 417,77.5 411,71.5 405,71.5 405,71.5 297,71.5 297,71.5 291,71.5 285,77.5 285,83.5 285,83.5 285,272.5 285,272.5 285,278.5 291,284.5 297,284.5"/>
<text text-anchor="middle" x="351" y="86.7" font-family="Times,serif" font-size="14.00">CandidatesController</text>
<polyline fill="none" stroke="black" points="285,94.5 417,94.5 "/>
<text text-anchor="start" x="293" y="109.7" font-family="Times,serif" font-size="14.00">create</text>
<text text-anchor="start" x="293" y="124.7" font-family="Times,serif" font-size="14.00">destroy</text>
<text text-anchor="start" x="293" y="139.7" font-family="Times,serif" font-size="14.00">edit</text>
<text text-anchor="start" x="293" y="154.7" font-family="Times,serif" font-size="14.00">index</text>
<text text-anchor="start" x="293" y="169.7" font-family="Times,serif" font-size="14.00">new</text>
<text text-anchor="start" x="293" y="184.7" font-family="Times,serif" font-size="14.00">show</text>
<text text-anchor="start" x="293" y="199.7" font-family="Times,serif" font-size="14.00">update</text>
<polyline fill="none" stroke="black" points="285,207.5 417,207.5 "/>
<polyline fill="none" stroke="black" points="285,231.5 417,231.5 "/>
<text text-anchor="start" x="293" y="246.7" font-family="Times,serif" font-size="14.00">_layout</text>
<text text-anchor="start" x="293" y="261.7" font-family="Times,serif" font-size="14.00">candidate_params</text>
<text text-anchor="start" x="293" y="276.7" font-family="Times,serif" font-size="14.00">set_candidate</text>
</g>
</g>
</svg>
