<?xml version="1.0" encoding="UTF-8" standalone="no"?>
<!DOCTYPE svg PUBLIC "-//W3C//DTD SVG 1.1//EN"
 "http://www.w3.org/Graphics/SVG/1.1/DTD/svg11.dtd">
<!-- Generated by graphviz version 2.38.0 (20140413.2041)
 -->
<!-- Title: controllers_diagram Pages: 1 -->
<svg width="1016pt" height="978pt"
 viewBox="0.00 0.00 1015.50 978.00" xmlns="http://www.w3.org/2000/svg" xmlns:xlink="http://www.w3.org/1999/xlink">
<g id="graph0" class="graph" transform="scale(1 1) rotate(0) translate(381.5 560)">
<title>controllers_diagram</title>
<polygon fill="none" stroke="none" points="-381.5,418 -381.5,-560 634,-560 634,418 -381.5,418"/>
<!-- _diagram_info -->
<g id="node1" class="node"><title>_diagram_info</title>
<text text-anchor="start" x="278" y="350.4" font-family="Times,serif" font-size="13.00">Controllers diagram</text>
<text text-anchor="start" x="278" y="364.4" font-family="Times,serif" font-size="13.00">Date: Oct 11 2017 &#45; 22:13</text>
<text text-anchor="start" x="278" y="378.4" font-family="Times,serif" font-size="13.00">Migration version: 20171011133215</text>
<text text-anchor="start" x="278" y="392.4" font-family="Times,serif" font-size="13.00">Generated by RailRoady 1.5.3</text>
<text text-anchor="start" x="278" y="406.4" font-family="Times,serif" font-size="13.00">http://railroady.prestonlee.com</text>
</g>
<!-- CensosController -->
<g id="node2" class="node"><title>CensosController</title>
<path fill="none" stroke="black" d="M317.5,53.5C317.5,53.5 404.5,53.5 404.5,53.5 410.5,53.5 416.5,47.5 416.5,41.5 416.5,41.5 416.5,-147.5 416.5,-147.5 416.5,-153.5 410.5,-159.5 404.5,-159.5 404.5,-159.5 317.5,-159.5 317.5,-159.5 311.5,-159.5 305.5,-153.5 305.5,-147.5 305.5,-147.5 305.5,41.5 305.5,41.5 305.5,47.5 311.5,53.5 317.5,53.5"/>
<text text-anchor="middle" x="361" y="-144.3" font-family="Times,serif" font-size="14.00">CensosController</text>
<polyline fill="none" stroke="black" points="305.5,-136.5 416.5,-136.5 "/>
<text text-anchor="start" x="313.5" y="-121.3" font-family="Times,serif" font-size="14.00">create</text>
<text text-anchor="start" x="313.5" y="-106.3" font-family="Times,serif" font-size="14.00">destroy</text>
<text text-anchor="start" x="313.5" y="-91.3" font-family="Times,serif" font-size="14.00">edit</text>
<text text-anchor="start" x="313.5" y="-76.3" font-family="Times,serif" font-size="14.00">index</text>
<text text-anchor="start" x="313.5" y="-61.3" font-family="Times,serif" font-size="14.00">new</text>
<text text-anchor="start" x="313.5" y="-46.3" font-family="Times,serif" font-size="14.00">show</text>
<text text-anchor="start" x="313.5" y="-31.3" font-family="Times,serif" font-size="14.00">update</text>
<polyline fill="none" stroke="black" points="305.5,-23.5 416.5,-23.5 "/>
<polyline fill="none" stroke="black" points="305.5,0.5 416.5,0.5 "/>
<text text-anchor="start" x="313.5" y="15.7" font-family="Times,serif" font-size="14.00">_layout</text>
<text text-anchor="start" x="313.5" y="30.7" font-family="Times,serif" font-size="14.00">censo_params</text>
<text text-anchor="start" x="313.5" y="45.7" font-family="Times,serif" font-size="14.00">set_censo</text>
</g>
<!-- GovernorController -->
<g id="node3" class="node"><title>GovernorController</title>
<path fill="none" stroke="black" d="M156,-145C156,-145 256,-145 256,-145 262,-145 268,-151 268,-157 268,-157 268,-361 268,-361 268,-367 262,-373 256,-373 256,-373 156,-373 156,-373 150,-373 144,-367 144,-361 144,-361 144,-157 144,-157 144,-151 150,-145 156,-145"/>
<text text-anchor="middle" x="206" y="-357.8" font-family="Times,serif" font-size="14.00">GovernorController</text>
<polyline fill="none" stroke="black" points="144,-350 268,-350 "/>
<text text-anchor="start" x="152" y="-334.8" font-family="Times,serif" font-size="14.00">announcement</text>
<text text-anchor="start" x="152" y="-319.8" font-family="Times,serif" font-size="14.00">certificate</text>
<text text-anchor="start" x="152" y="-304.8" font-family="Times,serif" font-size="14.00">election</text>
<text text-anchor="start" x="152" y="-289.8" font-family="Times,serif" font-size="14.00">email</text>
<text text-anchor="start" x="152" y="-274.8" font-family="Times,serif" font-size="14.00">find_censo</text>
<text text-anchor="start" x="152" y="-259.8" font-family="Times,serif" font-size="14.00">home</text>
<text text-anchor="start" x="152" y="-244.8" font-family="Times,serif" font-size="14.00">map</text>
<text text-anchor="start" x="152" y="-229.8" font-family="Times,serif" font-size="14.00">publish_event</text>
<text text-anchor="start" x="152" y="-214.8" font-family="Times,serif" font-size="14.00">register_censo</text>
<text text-anchor="start" x="152" y="-199.8" font-family="Times,serif" font-size="14.00">statistic</text>
<polyline fill="none" stroke="black" points="144,-192 268,-192 "/>
<polyline fill="none" stroke="black" points="144,-168 268,-168 "/>
<text text-anchor="start" x="152" y="-152.8" font-family="Times,serif" font-size="14.00">_layout</text>
</g>
<!-- ElectionsController -->
<g id="node4" class="node"><title>ElectionsController</title>
<path fill="none" stroke="black" d="M318,-198.5C318,-198.5 416,-198.5 416,-198.5 422,-198.5 428,-204.5 428,-210.5 428,-210.5 428,-399.5 428,-399.5 428,-405.5 422,-411.5 416,-411.5 416,-411.5 318,-411.5 318,-411.5 312,-411.5 306,-405.5 306,-399.5 306,-399.5 306,-210.5 306,-210.5 306,-204.5 312,-198.5 318,-198.5"/>
<text text-anchor="middle" x="367" y="-396.3" font-family="Times,serif" font-size="14.00">ElectionsController</text>
<polyline fill="none" stroke="black" points="306,-388.5 428,-388.5 "/>
<text text-anchor="start" x="314" y="-373.3" font-family="Times,serif" font-size="14.00">create</text>
<text text-anchor="start" x="314" y="-358.3" font-family="Times,serif" font-size="14.00">destroy</text>
<text text-anchor="start" x="314" y="-343.3" font-family="Times,serif" font-size="14.00">edit</text>
<text text-anchor="start" x="314" y="-328.3" font-family="Times,serif" font-size="14.00">index</text>
<text text-anchor="start" x="314" y="-313.3" font-family="Times,serif" font-size="14.00">new</text>
<text text-anchor="start" x="314" y="-298.3" font-family="Times,serif" font-size="14.00">show</text>
<text text-anchor="start" x="314" y="-283.3" font-family="Times,serif" font-size="14.00">update</text>
<polyline fill="none" stroke="black" points="306,-275.5 428,-275.5 "/>
<polyline fill="none" stroke="black" points="306,-251.5 428,-251.5 "/>
<text text-anchor="start" x="314" y="-236.3" font-family="Times,serif" font-size="14.00">_layout</text>
<text text-anchor="start" x="314" y="-221.3" font-family="Times,serif" font-size="14.00">election_params</text>
<text text-anchor="start" x="314" y="-206.3" font-family="Times,serif" font-size="14.00">set_election</text>
</g>
<!-- StatisticsController -->
<g id="node5" class="node"><title>StatisticsController</title>
<path fill="none" stroke="black" d="M461.5,53C461.5,53 558.5,53 558.5,53 564.5,53 570.5,47 570.5,41 570.5,41 570.5,-73 570.5,-73 570.5,-79 564.5,-85 558.5,-85 558.5,-85 461.5,-85 461.5,-85 455.5,-85 449.5,-79 449.5,-73 449.5,-73 449.5,41 449.5,41 449.5,47 455.5,53 461.5,53"/>
<text text-anchor="middle" x="510" y="-69.8" font-family="Times,serif" font-size="14.00">StatisticsController</text>
<polyline fill="none" stroke="black" points="449.5,-62 570.5,-62 "/>
<text text-anchor="start" x="457.5" y="-46.8" font-family="Times,serif" font-size="14.00">average</text>
<text text-anchor="start" x="457.5" y="-31.8" font-family="Times,serif" font-size="14.00">children</text>
<text text-anchor="start" x="457.5" y="-16.8" font-family="Times,serif" font-size="14.00">health</text>
<text text-anchor="start" x="457.5" y="-1.8" font-family="Times,serif" font-size="14.00">total</text>
<polyline fill="none" stroke="black" points="449.5,6 570.5,6 "/>
<polyline fill="none" stroke="black" points="449.5,30 570.5,30 "/>
<text text-anchor="start" x="457.5" y="45.2" font-family="Times,serif" font-size="14.00">_layout</text>
</g>
<!-- CandidatesController -->
<g id="node6" class="node"><title>CandidatesController</title>
<path fill="none" stroke="black" d="M-6,-162.5C-6,-162.5 102,-162.5 102,-162.5 108,-162.5 114,-168.5 114,-174.5 114,-174.5 114,-363.5 114,-363.5 114,-369.5 108,-375.5 102,-375.5 102,-375.5 -6,-375.5 -6,-375.5 -12,-375.5 -18,-369.5 -18,-363.5 -18,-363.5 -18,-174.5 -18,-174.5 -18,-168.5 -12,-162.5 -6,-162.5"/>
<text text-anchor="middle" x="48" y="-360.3" font-family="Times,serif" font-size="14.00">CandidatesController</text>
<polyline fill="none" stroke="black" points="-18,-352.5 114,-352.5 "/>
<text text-anchor="start" x="-10" y="-337.3" font-family="Times,serif" font-size="14.00">create</text>
<text text-anchor="start" x="-10" y="-322.3" font-family="Times,serif" font-size="14.00">destroy</text>
<text text-anchor="start" x="-10" y="-307.3" font-family="Times,serif" font-size="14.00">edit</text>
<text text-anchor="start" x="-10" y="-292.3" font-family="Times,serif" font-size="14.00">index</text>
<text text-anchor="start" x="-10" y="-277.3" font-family="Times,serif" font-size="14.00">new</text>
<text text-anchor="start" x="-10" y="-262.3" font-family="Times,serif" font-size="14.00">show</text>
<text text-anchor="start" x="-10" y="-247.3" font-family="Times,serif" font-size="14.00">update</text>
<polyline fill="none" stroke="black" points="-18,-239.5 114,-239.5 "/>
<polyline fill="none" stroke="black" points="-18,-215.5 114,-215.5 "/>
<text text-anchor="start" x="-10" y="-200.3" font-family="Times,serif" font-size="14.00">_layout</text>
<text text-anchor="start" x="-10" y="-185.3" font-family="Times,serif" font-size="14.00">candidate_params</text>
<text text-anchor="start" x="-10" y="-170.3" font-family="Times,serif" font-size="14.00">set_candidate</text>
</g>
<!-- User::RegistrationsController -->
<g id="node7" class="node"><title>User::RegistrationsController</title>
<path fill="none" stroke="black" d="M-114,-433C-114,-433 38,-433 38,-433 44,-433 50,-439 50,-445 50,-445 50,-515 50,-515 50,-521 44,-527 38,-527 38,-527 -114,-527 -114,-527 -120,-527 -126,-521 -126,-515 -126,-515 -126,-445 -126,-445 -126,-439 -120,-433 -114,-433"/>
<text text-anchor="middle" x="-38" y="-511.8" font-family="Times,serif" font-size="14.00">User::RegistrationsController</text>
<polyline fill="none" stroke="black" points="-126,-504 50,-504 "/>
<polyline fill="none" stroke="black" points="-126,-480 50,-480 "/>
<polyline fill="none" stroke="black" points="-126,-456 50,-456 "/>
<text text-anchor="start" x="-118" y="-440.8" font-family="Times,serif" font-size="14.00">_layout</text>
</g>
<!-- User::UnlocksController -->
<g id="node8" class="node"><title>User::UnlocksController</title>
<path fill="none" stroke="black" d="M462,-451C462,-451 588,-451 588,-451 594,-451 600,-457 600,-463 600,-463 600,-533 600,-533 600,-539 594,-545 588,-545 588,-545 462,-545 462,-545 456,-545 450,-539 450,-533 450,-533 450,-463 450,-463 450,-457 456,-451 462,-451"/>
<text text-anchor="middle" x="525" y="-529.8" font-family="Times,serif" font-size="14.00">User::UnlocksController</text>
<polyline fill="none" stroke="black" points="450,-522 600,-522 "/>
<polyline fill="none" stroke="black" points="450,-498 600,-498 "/>
<polyline fill="none" stroke="black" points="450,-474 600,-474 "/>
<text text-anchor="start" x="458" y="-458.8" font-family="Times,serif" font-size="14.00">_layout</text>
</g>
<!-- User::PasswordsController -->
<g id="node9" class="node"><title>User::PasswordsController</title>
<path fill="none" stroke="black" d="M480,305C480,305 618,305 618,305 624,305 630,299 630,293 630,293 630,223 630,223 630,217 624,211 618,211 618,211 480,211 480,211 474,211 468,217 468,223 468,223 468,293 468,293 468,299 474,305 480,305"/>
<text text-anchor="middle" x="549" y="226.2" font-family="Times,serif" font-size="14.00">User::PasswordsController</text>
<polyline fill="none" stroke="black" points="468,234 630,234 "/>
<polyline fill="none" stroke="black" points="468,258 630,258 "/>
<polyline fill="none" stroke="black" points="468,282 630,282 "/>
<text text-anchor="start" x="476" y="297.2" font-family="Times,serif" font-size="14.00">_layout</text>
</g>
<!-- User::ConfirmationsController -->
<g id="node10" class="node"><title>User::ConfirmationsController</title>
<path fill="none" stroke="black" d="M102,-415C102,-415 262,-415 262,-415 268,-415 274,-421 274,-427 274,-427 274,-497 274,-497 274,-503 268,-509 262,-509 262,-509 102,-509 102,-509 96,-509 90,-503 90,-497 90,-497 90,-427 90,-427 90,-421 96,-415 102,-415"/>
<text text-anchor="middle" x="182" y="-493.8" font-family="Times,serif" font-size="14.00">User::ConfirmationsController</text>
<polyline fill="none" stroke="black" points="90,-486 274,-486 "/>
<polyline fill="none" stroke="black" points="90,-462 274,-462 "/>
<polyline fill="none" stroke="black" points="90,-438 274,-438 "/>
<text text-anchor="start" x="98" y="-422.8" font-family="Times,serif" font-size="14.00">_layout</text>
</g>
<!-- User::SessionsController -->
<g id="node11" class="node"><title>User::SessionsController</title>
<path fill="none" stroke="black" d="M480,179C480,179 608,179 608,179 614,179 620,173 620,167 620,167 620,97 620,97 620,91 614,85 608,85 608,85 480,85 480,85 474,85 468,91 468,97 468,97 468,167 468,167 468,173 474,179 480,179"/>
<text text-anchor="middle" x="544" y="100.2" font-family="Times,serif" font-size="14.00">User::SessionsController</text>
<polyline fill="none" stroke="black" points="468,108 620,108 "/>
<polyline fill="none" stroke="black" points="468,132 620,132 "/>
<polyline fill="none" stroke="black" points="468,156 620,156 "/>
<text text-anchor="start" x="476" y="171.2" font-family="Times,serif" font-size="14.00">_layout</text>
</g>
<!-- User::OmniauthCallbacksController -->
<g id="node12" class="node"><title>User::OmniauthCallbacksController</title>
<path fill="none" stroke="black" d="M-186.5,251C-186.5,251 2.5,251 2.5,251 8.5,251 14.5,245 14.5,239 14.5,239 14.5,169 14.5,169 14.5,163 8.5,157 2.5,157 2.5,157 -186.5,157 -186.5,157 -192.5,157 -198.5,163 -198.5,169 -198.5,169 -198.5,239 -198.5,239 -198.5,245 -192.5,251 -186.5,251"/>
<text text-anchor="middle" x="-92" y="172.2" font-family="Times,serif" font-size="14.00">User::OmniauthCallbacksController</text>
<polyline fill="none" stroke="black" points="-198.5,180 14.5,180 "/>
<polyline fill="none" stroke="black" points="-198.5,204 14.5,204 "/>
<polyline fill="none" stroke="black" points="-198.5,228 14.5,228 "/>
<text text-anchor="start" x="-190.5" y="243.2" font-family="Times,serif" font-size="14.00">_layout</text>
</g>
<!-- ApplicationController -->
<g id="node13" class="node"><title>ApplicationController</title>
<path fill="none" stroke="black" d="M480,-127C480,-127 592,-127 592,-127 598,-127 604,-133 604,-139 604,-139 604,-209 604,-209 604,-215 598,-221 592,-221 592,-221 480,-221 480,-221 474,-221 468,-215 468,-209 468,-209 468,-139 468,-139 468,-133 474,-127 480,-127"/>
<text text-anchor="middle" x="536" y="-205.8" font-family="Times,serif" font-size="14.00">ApplicationController</text>
<polyline fill="none" stroke="black" points="468,-198 604,-198 "/>
<polyline fill="none" stroke="black" points="468,-174 604,-174 "/>
<polyline fill="none" stroke="black" points="468,-150 604,-150 "/>
<text text-anchor="start" x="476" y="-134.8" font-family="Times,serif" font-size="14.00">_layout</text>
</g>
<!-- ResidencesController -->
<g id="node14" class="node"><title>ResidencesController</title>
<path fill="none" stroke="black" d="M-167.5,-180.5C-167.5,-180.5 -58.5,-180.5 -58.5,-180.5 -52.5,-180.5 -46.5,-186.5 -46.5,-192.5 -46.5,-192.5 -46.5,-381.5 -46.5,-381.5 -46.5,-387.5 -52.5,-393.5 -58.5,-393.5 -58.5,-393.5 -167.5,-393.5 -167.5,-393.5 -173.5,-393.5 -179.5,-387.5 -179.5,-381.5 -179.5,-381.5 -179.5,-192.5 -179.5,-192.5 -179.5,-186.5 -173.5,-180.5 -167.5,-180.5"/>
<text text-anchor="middle" x="-113" y="-378.3" font-family="Times,serif" font-size="14.00">ResidencesController</text>
<polyline fill="none" stroke="black" points="-179.5,-370.5 -46.5,-370.5 "/>
<text text-anchor="start" x="-171.5" y="-355.3" font-family="Times,serif" font-size="14.00">create</text>
<text text-anchor="start" x="-171.5" y="-340.3" font-family="Times,serif" font-size="14.00">destroy</text>
<text text-anchor="start" x="-171.5" y="-325.3" font-family="Times,serif" font-size="14.00">edit</text>
<text text-anchor="start" x="-171.5" y="-310.3" font-family="Times,serif" font-size="14.00">index</text>
<text text-anchor="start" x="-171.5" y="-295.3" font-family="Times,serif" font-size="14.00">new</text>
<text text-anchor="start" x="-171.5" y="-280.3" font-family="Times,serif" font-size="14.00">show</text>
<text text-anchor="start" x="-171.5" y="-265.3" font-family="Times,serif" font-size="14.00">update</text>
<polyline fill="none" stroke="black" points="-179.5,-257.5 -46.5,-257.5 "/>
<polyline fill="none" stroke="black" points="-179.5,-233.5 -46.5,-233.5 "/>
<text text-anchor="start" x="-171.5" y="-218.3" font-family="Times,serif" font-size="14.00">_layout</text>
<text text-anchor="start" x="-171.5" y="-203.3" font-family="Times,serif" font-size="14.00">residence_params</text>
<text text-anchor="start" x="-171.5" y="-188.3" font-family="Times,serif" font-size="14.00">set_residence</text>
</g>
<!-- AnnouncementsController -->
<g id="node15" class="node"><title>AnnouncementsController</title>
<path fill="none" stroke="black" d="M-77.5,125.5C-77.5,125.5 59.5,125.5 59.5,125.5 65.5,125.5 71.5,119.5 71.5,113.5 71.5,113.5 71.5,-105.5 71.5,-105.5 71.5,-111.5 65.5,-117.5 59.5,-117.5 59.5,-117.5 -77.5,-117.5 -77.5,-117.5 -83.5,-117.5 -89.5,-111.5 -89.5,-105.5 -89.5,-105.5 -89.5,113.5 -89.5,113.5 -89.5,119.5 -83.5,125.5 -77.5,125.5"/>
<text text-anchor="middle" x="-9" y="-102.3" font-family="Times,serif" font-size="14.00">AnnouncementsController</text>
<polyline fill="none" stroke="black" points="-89.5,-94.5 71.5,-94.5 "/>
<text text-anchor="start" x="-81.5" y="-79.3" font-family="Times,serif" font-size="14.00">create</text>
<text text-anchor="start" x="-81.5" y="-64.3" font-family="Times,serif" font-size="14.00">destroy</text>
<text text-anchor="start" x="-81.5" y="-49.3" font-family="Times,serif" font-size="14.00">edit</text>
<text text-anchor="start" x="-81.5" y="-34.3" font-family="Times,serif" font-size="14.00">index</text>
<text text-anchor="start" x="-81.5" y="-19.3" font-family="Times,serif" font-size="14.00">new</text>
<text text-anchor="start" x="-81.5" y="-4.3" font-family="Times,serif" font-size="14.00">show</text>
<text text-anchor="start" x="-81.5" y="10.7" font-family="Times,serif" font-size="14.00">update</text>
<polyline fill="none" stroke="black" points="-89.5,18.5 71.5,18.5 "/>
<polyline fill="none" stroke="black" points="-89.5,42.5 71.5,42.5 "/>
<text text-anchor="start" x="-81.5" y="57.7" font-family="Times,serif" font-size="14.00">_layout</text>
<text text-anchor="start" x="-81.5" y="72.7" font-family="Times,serif" font-size="14.00">announcement_params</text>
<text text-anchor="start" x="-81.5" y="87.7" font-family="Times,serif" font-size="14.00">set_announcement</text>
<text text-anchor="start" x="-81.5" y="102.7" font-family="Times,serif" font-size="14.00">sort_column</text>
<text text-anchor="start" x="-81.5" y="117.7" font-family="Times,serif" font-size="14.00">sort_direction</text>
</g>
<!-- EventsController -->
<g id="node16" class="node"><title>EventsController</title>
<path fill="none" stroke="black" d="M-221.5,107.5C-221.5,107.5 -136.5,107.5 -136.5,107.5 -130.5,107.5 -124.5,101.5 -124.5,95.5 -124.5,95.5 -124.5,-123.5 -124.5,-123.5 -124.5,-129.5 -130.5,-135.5 -136.5,-135.5 -136.5,-135.5 -221.5,-135.5 -221.5,-135.5 -227.5,-135.5 -233.5,-129.5 -233.5,-123.5 -233.5,-123.5 -233.5,95.5 -233.5,95.5 -233.5,101.5 -227.5,107.5 -221.5,107.5"/>
<text text-anchor="middle" x="-179" y="-120.3" font-family="Times,serif" font-size="14.00">EventsController</text>
<polyline fill="none" stroke="black" points="-233.5,-112.5 -124.5,-112.5 "/>
<text text-anchor="start" x="-225.5" y="-97.3" font-family="Times,serif" font-size="14.00">create</text>
<text text-anchor="start" x="-225.5" y="-82.3" font-family="Times,serif" font-size="14.00">destroy</text>
<text text-anchor="start" x="-225.5" y="-67.3" font-family="Times,serif" font-size="14.00">edit</text>
<text text-anchor="start" x="-225.5" y="-52.3" font-family="Times,serif" font-size="14.00">index</text>
<text text-anchor="start" x="-225.5" y="-37.3" font-family="Times,serif" font-size="14.00">new</text>
<text text-anchor="start" x="-225.5" y="-22.3" font-family="Times,serif" font-size="14.00">show</text>
<text text-anchor="start" x="-225.5" y="-7.3" font-family="Times,serif" font-size="14.00">update</text>
<polyline fill="none" stroke="black" points="-233.5,0.5 -124.5,0.5 "/>
<polyline fill="none" stroke="black" points="-233.5,24.5 -124.5,24.5 "/>
<text text-anchor="start" x="-225.5" y="39.7" font-family="Times,serif" font-size="14.00">_layout</text>
<text text-anchor="start" x="-225.5" y="54.7" font-family="Times,serif" font-size="14.00">event_params</text>
<text text-anchor="start" x="-225.5" y="69.7" font-family="Times,serif" font-size="14.00">set_event</text>
<text text-anchor="start" x="-225.5" y="84.7" font-family="Times,serif" font-size="14.00">sort_column</text>
<text text-anchor="start" x="-225.5" y="99.7" font-family="Times,serif" font-size="14.00">sort_direction</text>
</g>
<!-- Users::OmniauthCallbacksController -->
<g id="node17" class="node"><title>Users::OmniauthCallbacksController</title>
<path fill="none" stroke="black" d="M-186,395C-186,395 8,395 8,395 14,395 20,389 20,383 20,383 20,299 20,299 20,293 14,287 8,287 8,287 -186,287 -186,287 -192,287 -198,293 -198,299 -198,299 -198,383 -198,383 -198,389 -192,395 -186,395"/>
<text text-anchor="middle" x="-89" y="302.2" font-family="Times,serif" font-size="14.00">Users::OmniauthCallbacksController</text>
<polyline fill="none" stroke="black" points="-198,310 20,310 "/>
<text text-anchor="start" x="-190" y="325.2" font-family="Times,serif" font-size="14.00">facebook</text>
<text text-anchor="start" x="-190" y="340.2" font-family="Times,serif" font-size="14.00">failure</text>
<polyline fill="none" stroke="black" points="-198,348 20,348 "/>
<polyline fill="none" stroke="black" points="-198,372 20,372 "/>
<text text-anchor="start" x="-190" y="387.2" font-family="Times,serif" font-size="14.00">_layout</text>
</g>
<!-- HealthServicesController -->
<g id="node18" class="node"><title>HealthServicesController</title>
<path fill="none" stroke="black" d="M120,107.5C120,107.5 250,107.5 250,107.5 256,107.5 262,101.5 262,95.5 262,95.5 262,-93.5 262,-93.5 262,-99.5 256,-105.5 250,-105.5 250,-105.5 120,-105.5 120,-105.5 114,-105.5 108,-99.5 108,-93.5 108,-93.5 108,95.5 108,95.5 108,101.5 114,107.5 120,107.5"/>
<text text-anchor="middle" x="185" y="-90.3" font-family="Times,serif" font-size="14.00">HealthServicesController</text>
<polyline fill="none" stroke="black" points="108,-82.5 262,-82.5 "/>
<text text-anchor="start" x="116" y="-67.3" font-family="Times,serif" font-size="14.00">create</text>
<text text-anchor="start" x="116" y="-52.3" font-family="Times,serif" font-size="14.00">destroy</text>
<text text-anchor="start" x="116" y="-37.3" font-family="Times,serif" font-size="14.00">edit</text>
<text text-anchor="start" x="116" y="-22.3" font-family="Times,serif" font-size="14.00">index</text>
<text text-anchor="start" x="116" y="-7.3" font-family="Times,serif" font-size="14.00">new</text>
<text text-anchor="start" x="116" y="7.7" font-family="Times,serif" font-size="14.00">show</text>
<text text-anchor="start" x="116" y="22.7" font-family="Times,serif" font-size="14.00">update</text>
<polyline fill="none" stroke="black" points="108,30.5 262,30.5 "/>
<polyline fill="none" stroke="black" points="108,54.5 262,54.5 "/>
<text text-anchor="start" x="116" y="69.7" font-family="Times,serif" font-size="14.00">_layout</text>
<text text-anchor="start" x="116" y="84.7" font-family="Times,serif" font-size="14.00">health_service_params</text>
<text text-anchor="start" x="116" y="99.7" font-family="Times,serif" font-size="14.00">set_health_service</text>
</g>
<!-- ChildrenController -->
<g id="node19" class="node"><title>ChildrenController</title>
<path fill="none" stroke="black" d="M-329.5,-342.5C-329.5,-342.5 -234.5,-342.5 -234.5,-342.5 -228.5,-342.5 -222.5,-348.5 -222.5,-354.5 -222.5,-354.5 -222.5,-543.5 -222.5,-543.5 -222.5,-549.5 -228.5,-555.5 -234.5,-555.5 -234.5,-555.5 -329.5,-555.5 -329.5,-555.5 -335.5,-555.5 -341.5,-549.5 -341.5,-543.5 -341.5,-543.5 -341.5,-354.5 -341.5,-354.5 -341.5,-348.5 -335.5,-342.5 -329.5,-342.5"/>
<text text-anchor="middle" x="-282" y="-540.3" font-family="Times,serif" font-size="14.00">ChildrenController</text>
<polyline fill="none" stroke="black" points="-341.5,-532.5 -222.5,-532.5 "/>
<text text-anchor="start" x="-333.5" y="-517.3" font-family="Times,serif" font-size="14.00">create</text>
<text text-anchor="start" x="-333.5" y="-502.3" font-family="Times,serif" font-size="14.00">destroy</text>
<text text-anchor="start" x="-333.5" y="-487.3" font-family="Times,serif" font-size="14.00">edit</text>
<text text-anchor="start" x="-333.5" y="-472.3" font-family="Times,serif" font-size="14.00">index</text>
<text text-anchor="start" x="-333.5" y="-457.3" font-family="Times,serif" font-size="14.00">new</text>
<text text-anchor="start" x="-333.5" y="-442.3" font-family="Times,serif" font-size="14.00">show</text>
<text text-anchor="start" x="-333.5" y="-427.3" font-family="Times,serif" font-size="14.00">update</text>
<polyline fill="none" stroke="black" points="-341.5,-419.5 -222.5,-419.5 "/>
<polyline fill="none" stroke="black" points="-341.5,-395.5 -222.5,-395.5 "/>
<text text-anchor="start" x="-333.5" y="-380.3" font-family="Times,serif" font-size="14.00">_layout</text>
<text text-anchor="start" x="-333.5" y="-365.3" font-family="Times,serif" font-size="14.00">child_params</text>
<text text-anchor="start" x="-333.5" y="-350.3" font-family="Times,serif" font-size="14.00">set_child</text>
</g>
<!-- OpinionsController -->
<g id="node20" class="node"><title>OpinionsController</title>
<path fill="none" stroke="black" d="M-348,359.5C-348,359.5 -250,359.5 -250,359.5 -244,359.5 -238,353.5 -238,347.5 -238,347.5 -238,158.5 -238,158.5 -238,152.5 -244,146.5 -250,146.5 -250,146.5 -348,146.5 -348,146.5 -354,146.5 -360,152.5 -360,158.5 -360,158.5 -360,347.5 -360,347.5 -360,353.5 -354,359.5 -348,359.5"/>
<text text-anchor="middle" x="-299" y="161.7" font-family="Times,serif" font-size="14.00">OpinionsController</text>
<polyline fill="none" stroke="black" points="-360,169.5 -238,169.5 "/>
<text text-anchor="start" x="-352" y="184.7" font-family="Times,serif" font-size="14.00">create</text>
<text text-anchor="start" x="-352" y="199.7" font-family="Times,serif" font-size="14.00">destroy</text>
<text text-anchor="start" x="-352" y="214.7" font-family="Times,serif" font-size="14.00">edit</text>
<text text-anchor="start" x="-352" y="229.7" font-family="Times,serif" font-size="14.00">index</text>
<text text-anchor="start" x="-352" y="244.7" font-family="Times,serif" font-size="14.00">new</text>
<text text-anchor="start" x="-352" y="259.7" font-family="Times,serif" font-size="14.00">show</text>
<text text-anchor="start" x="-352" y="274.7" font-family="Times,serif" font-size="14.00">update</text>
<polyline fill="none" stroke="black" points="-360,282.5 -238,282.5 "/>
<polyline fill="none" stroke="black" points="-360,306.5 -238,306.5 "/>
<text text-anchor="start" x="-352" y="321.7" font-family="Times,serif" font-size="14.00">_layout</text>
<text text-anchor="start" x="-352" y="336.7" font-family="Times,serif" font-size="14.00">opinion_params</text>
<text text-anchor="start" x="-352" y="351.7" font-family="Times,serif" font-size="14.00">set_opinion</text>
</g>
<!-- ContactsController -->
<g id="node21" class="node"><title>ContactsController</title>
<path fill="none" stroke="black" d="M120.5,359.5C120.5,359.5 215.5,359.5 215.5,359.5 221.5,359.5 227.5,353.5 227.5,347.5 227.5,347.5 227.5,158.5 227.5,158.5 227.5,152.5 221.5,146.5 215.5,146.5 215.5,146.5 120.5,146.5 120.5,146.5 114.5,146.5 108.5,152.5 108.5,158.5 108.5,158.5 108.5,347.5 108.5,347.5 108.5,353.5 114.5,359.5 120.5,359.5"/>
<text text-anchor="middle" x="168" y="161.7" font-family="Times,serif" font-size="14.00">ContactsController</text>
<polyline fill="none" stroke="black" points="108.5,169.5 227.5,169.5 "/>
<text text-anchor="start" x="116.5" y="184.7" font-family="Times,serif" font-size="14.00">create</text>
<text text-anchor="start" x="116.5" y="199.7" font-family="Times,serif" font-size="14.00">destroy</text>
<text text-anchor="start" x="116.5" y="214.7" font-family="Times,serif" font-size="14.00">edit</text>
<text text-anchor="start" x="116.5" y="229.7" font-family="Times,serif" font-size="14.00">index</text>
<text text-anchor="start" x="116.5" y="244.7" font-family="Times,serif" font-size="14.00">new</text>
<text text-anchor="start" x="116.5" y="259.7" font-family="Times,serif" font-size="14.00">show</text>
<text text-anchor="start" x="116.5" y="274.7" font-family="Times,serif" font-size="14.00">update</text>
<polyline fill="none" stroke="black" points="108.5,282.5 227.5,282.5 "/>
<polyline fill="none" stroke="black" points="108.5,306.5 227.5,306.5 "/>
<text text-anchor="start" x="116.5" y="321.7" font-family="Times,serif" font-size="14.00">_layout</text>
<text text-anchor="start" x="116.5" y="336.7" font-family="Times,serif" font-size="14.00">contact_params</text>
<text text-anchor="start" x="116.5" y="351.7" font-family="Times,serif" font-size="14.00">set_contact</text>
</g>
<!-- HomeController -->
<g id="node22" class="node"><title>HomeController</title>
<path fill="none" stroke="black" d="M318,-450.5C318,-450.5 400,-450.5 400,-450.5 406,-450.5 412,-456.5 412,-462.5 412,-462.5 412,-531.5 412,-531.5 412,-537.5 406,-543.5 400,-543.5 400,-543.5 318,-543.5 318,-543.5 312,-543.5 306,-537.5 306,-531.5 306,-531.5 306,-462.5 306,-462.5 306,-456.5 312,-450.5 318,-450.5"/>
<text text-anchor="middle" x="359" y="-528.3" font-family="Times,serif" font-size="14.00">HomeController</text>
<polyline fill="none" stroke="black" points="306,-520.5 412,-520.5 "/>
<text text-anchor="start" x="314" y="-505.3" font-family="Times,serif" font-size="14.00">index</text>
<polyline fill="none" stroke="black" points="306,-497.5 412,-497.5 "/>
<polyline fill="none" stroke="black" points="306,-473.5 412,-473.5 "/>
<text text-anchor="start" x="314" y="-458.3" font-family="Times,serif" font-size="14.00">_layout</text>
</g>
<!-- CertificatesController -->
<g id="node23" class="node"><title>CertificatesController</title>
<path fill="none" stroke="black" d="M318,305.5C318,305.5 428,305.5 428,305.5 434,305.5 440,299.5 440,293.5 440,293.5 440,104.5 440,104.5 440,98.5 434,92.5 428,92.5 428,92.5 318,92.5 318,92.5 312,92.5 306,98.5 306,104.5 306,104.5 306,293.5 306,293.5 306,299.5 312,305.5 318,305.5"/>
<text text-anchor="middle" x="373" y="107.7" font-family="Times,serif" font-size="14.00">CertificatesController</text>
<polyline fill="none" stroke="black" points="306,115.5 440,115.5 "/>
<text text-anchor="start" x="314" y="130.7" font-family="Times,serif" font-size="14.00">create</text>
<text text-anchor="start" x="314" y="145.7" font-family="Times,serif" font-size="14.00">destroy</text>
<text text-anchor="start" x="314" y="160.7" font-family="Times,serif" font-size="14.00">edit</text>
<text text-anchor="start" x="314" y="175.7" font-family="Times,serif" font-size="14.00">index</text>
<text text-anchor="start" x="314" y="190.7" font-family="Times,serif" font-size="14.00">new</text>
<text text-anchor="start" x="314" y="205.7" font-family="Times,serif" font-size="14.00">show</text>
<text text-anchor="start" x="314" y="220.7" font-family="Times,serif" font-size="14.00">update</text>
<polyline fill="none" stroke="black" points="306,228.5 440,228.5 "/>
<polyline fill="none" stroke="black" points="306,252.5 440,252.5 "/>
<text text-anchor="start" x="314" y="267.7" font-family="Times,serif" font-size="14.00">_layout</text>
<text text-anchor="start" x="314" y="282.7" font-family="Times,serif" font-size="14.00">certificate_params</text>
<text text-anchor="start" x="314" y="297.7" font-family="Times,serif" font-size="14.00">set_certificate</text>
</g>
<!-- PeopleController -->
<g id="node24" class="node"><title>PeopleController</title>
<path fill="none" stroke="black" d="M-365.5,-0.5C-365.5,-0.5 -280.5,-0.5 -280.5,-0.5 -274.5,-0.5 -268.5,-6.5 -268.5,-12.5 -268.5,-12.5 -268.5,-201.5 -268.5,-201.5 -268.5,-207.5 -274.5,-213.5 -280.5,-213.5 -280.5,-213.5 -365.5,-213.5 -365.5,-213.5 -371.5,-213.5 -377.5,-207.5 -377.5,-201.5 -377.5,-201.5 -377.5,-12.5 -377.5,-12.5 -377.5,-6.5 -371.5,-0.5 -365.5,-0.5"/>
<text text-anchor="middle" x="-323" y="-198.3" font-family="Times,serif" font-size="14.00">PeopleController</text>
<polyline fill="none" stroke="black" points="-377.5,-190.5 -268.5,-190.5 "/>
<text text-anchor="start" x="-369.5" y="-175.3" font-family="Times,serif" font-size="14.00">create</text>
<text text-anchor="start" x="-369.5" y="-160.3" font-family="Times,serif" font-size="14.00">destroy</text>
<text text-anchor="start" x="-369.5" y="-145.3" font-family="Times,serif" font-size="14.00">edit</text>
<text text-anchor="start" x="-369.5" y="-130.3" font-family="Times,serif" font-size="14.00">index</text>
<text text-anchor="start" x="-369.5" y="-115.3" font-family="Times,serif" font-size="14.00">new</text>
<text text-anchor="start" x="-369.5" y="-100.3" font-family="Times,serif" font-size="14.00">show</text>
<text text-anchor="start" x="-369.5" y="-85.3" font-family="Times,serif" font-size="14.00">update</text>
<polyline fill="none" stroke="black" points="-377.5,-77.5 -268.5,-77.5 "/>
<polyline fill="none" stroke="black" points="-377.5,-53.5 -268.5,-53.5 "/>
<text text-anchor="start" x="-369.5" y="-38.3" font-family="Times,serif" font-size="14.00">_layout</text>
<text text-anchor="start" x="-369.5" y="-23.3" font-family="Times,serif" font-size="14.00">person_params</text>
<text text-anchor="start" x="-369.5" y="-8.3" font-family="Times,serif" font-size="14.00">set_person</text>
</g>
</g>
</svg>
