<?xml version="1.0" encoding="UTF-8" standalone="no"?>
<!DOCTYPE svg PUBLIC "-//W3C//DTD SVG 1.1//EN"
 "http://www.w3.org/Graphics/SVG/1.1/DTD/svg11.dtd">
<!-- Generated by graphviz version 2.38.0 (20140413.2041)
 -->
<!-- Title: controllers_diagram Pages: 1 -->
<svg width="1129pt" height="1115pt"
 viewBox="0.00 0.00 1128.50 1114.50" xmlns="http://www.w3.org/2000/svg" xmlns:xlink="http://www.w3.org/1999/xlink">
<g id="graph0" class="graph" transform="scale(1 1) rotate(0) translate(479 617)">
<title>controllers_diagram</title>
<polygon fill="none" stroke="none" points="-479,497.5 -479,-617 649.5,-617 649.5,497.5 -479,497.5"/>
<!-- _diagram_info -->
<g id="node1" class="node"><title>_diagram_info</title>
<text text-anchor="start" x="274" y="335.4" font-family="Times,serif" font-size="13.00">Controllers diagram</text>
<text text-anchor="start" x="274" y="349.4" font-family="Times,serif" font-size="13.00">Date: Nov 19 2017 &#45; 12:30</text>
<text text-anchor="start" x="274" y="363.4" font-family="Times,serif" font-size="13.00">Migration version: 20171106222443</text>
<text text-anchor="start" x="274" y="377.4" font-family="Times,serif" font-size="13.00">Generated by RailRoady 1.5.3</text>
<text text-anchor="start" x="274" y="391.4" font-family="Times,serif" font-size="13.00">http://railroady.prestonlee.com</text>
</g>
<!-- CensosController -->
<g id="node2" class="node"><title>CensosController</title>
<path fill="none" stroke="black" d="M258.5,-399.5C258.5,-399.5 345.5,-399.5 345.5,-399.5 351.5,-399.5 357.5,-405.5 357.5,-411.5 357.5,-411.5 357.5,-600.5 357.5,-600.5 357.5,-606.5 351.5,-612.5 345.5,-612.5 345.5,-612.5 258.5,-612.5 258.5,-612.5 252.5,-612.5 246.5,-606.5 246.5,-600.5 246.5,-600.5 246.5,-411.5 246.5,-411.5 246.5,-405.5 252.5,-399.5 258.5,-399.5"/>
<text text-anchor="middle" x="302" y="-597.3" font-family="Times,serif" font-size="14.00">CensosController</text>
<polyline fill="none" stroke="black" points="246.5,-589.5 357.5,-589.5 "/>
<text text-anchor="start" x="254.5" y="-574.3" font-family="Times,serif" font-size="14.00">create</text>
<text text-anchor="start" x="254.5" y="-559.3" font-family="Times,serif" font-size="14.00">destroy</text>
<text text-anchor="start" x="254.5" y="-544.3" font-family="Times,serif" font-size="14.00">edit</text>
<text text-anchor="start" x="254.5" y="-529.3" font-family="Times,serif" font-size="14.00">index</text>
<text text-anchor="start" x="254.5" y="-514.3" font-family="Times,serif" font-size="14.00">new</text>
<text text-anchor="start" x="254.5" y="-499.3" font-family="Times,serif" font-size="14.00">show</text>
<text text-anchor="start" x="254.5" y="-484.3" font-family="Times,serif" font-size="14.00">update</text>
<polyline fill="none" stroke="black" points="246.5,-476.5 357.5,-476.5 "/>
<polyline fill="none" stroke="black" points="246.5,-452.5 357.5,-452.5 "/>
<text text-anchor="start" x="254.5" y="-437.3" font-family="Times,serif" font-size="14.00">_layout</text>
<text text-anchor="start" x="254.5" y="-422.3" font-family="Times,serif" font-size="14.00">censo_params</text>
<text text-anchor="start" x="254.5" y="-407.3" font-family="Times,serif" font-size="14.00">set_censo</text>
</g>
<!-- RequestCensosController -->
<g id="node3" class="node"><title>RequestCensosController</title>
<path fill="none" stroke="black" d="M107.5,94.5C107.5,94.5 238.5,94.5 238.5,94.5 244.5,94.5 250.5,88.5 250.5,82.5 250.5,82.5 250.5,-166.5 250.5,-166.5 250.5,-172.5 244.5,-178.5 238.5,-178.5 238.5,-178.5 107.5,-178.5 107.5,-178.5 101.5,-178.5 95.5,-172.5 95.5,-166.5 95.5,-166.5 95.5,82.5 95.5,82.5 95.5,88.5 101.5,94.5 107.5,94.5"/>
<text text-anchor="middle" x="173" y="-163.3" font-family="Times,serif" font-size="14.00">RequestCensosController</text>
<polyline fill="none" stroke="black" points="95.5,-155.5 250.5,-155.5 "/>
<text text-anchor="start" x="103.5" y="-140.3" font-family="Times,serif" font-size="14.00">create</text>
<text text-anchor="start" x="103.5" y="-125.3" font-family="Times,serif" font-size="14.00">destroy</text>
<text text-anchor="start" x="103.5" y="-110.3" font-family="Times,serif" font-size="14.00">edit</text>
<text text-anchor="start" x="103.5" y="-95.3" font-family="Times,serif" font-size="14.00">index</text>
<text text-anchor="start" x="103.5" y="-80.3" font-family="Times,serif" font-size="14.00">new</text>
<text text-anchor="start" x="103.5" y="-65.3" font-family="Times,serif" font-size="14.00">show</text>
<text text-anchor="start" x="103.5" y="-50.3" font-family="Times,serif" font-size="14.00">update</text>
<polyline fill="none" stroke="black" points="95.5,-42.5 250.5,-42.5 "/>
<polyline fill="none" stroke="black" points="95.5,-18.5 250.5,-18.5 "/>
<text text-anchor="start" x="103.5" y="-3.3" font-family="Times,serif" font-size="14.00">_layout</text>
<text text-anchor="start" x="103.5" y="11.7" font-family="Times,serif" font-size="14.00">authorize_admin</text>
<text text-anchor="start" x="103.5" y="26.7" font-family="Times,serif" font-size="14.00">request_censo_params</text>
<text text-anchor="start" x="103.5" y="41.7" font-family="Times,serif" font-size="14.00">set_request_censo</text>
<text text-anchor="start" x="103.5" y="56.7" font-family="Times,serif" font-size="14.00">sort_column</text>
<text text-anchor="start" x="103.5" y="71.7" font-family="Times,serif" font-size="14.00">sort_direction</text>
<text text-anchor="start" x="103.5" y="86.7" font-family="Times,serif" font-size="14.00">sortable_columns</text>
</g>
<!-- ElectionsController -->
<g id="node4" class="node"><title>ElectionsController</title>
<path fill="none" stroke="black" d="M297,284.5C297,284.5 395,284.5 395,284.5 401,284.5 407,278.5 407,272.5 407,272.5 407,83.5 407,83.5 407,77.5 401,71.5 395,71.5 395,71.5 297,71.5 297,71.5 291,71.5 285,77.5 285,83.5 285,83.5 285,272.5 285,272.5 285,278.5 291,284.5 297,284.5"/>
<text text-anchor="middle" x="346" y="86.7" font-family="Times,serif" font-size="14.00">ElectionsController</text>
<polyline fill="none" stroke="black" points="285,94.5 407,94.5 "/>
<text text-anchor="start" x="293" y="109.7" font-family="Times,serif" font-size="14.00">create</text>
<text text-anchor="start" x="293" y="124.7" font-family="Times,serif" font-size="14.00">destroy</text>
<text text-anchor="start" x="293" y="139.7" font-family="Times,serif" font-size="14.00">edit</text>
<text text-anchor="start" x="293" y="154.7" font-family="Times,serif" font-size="14.00">index</text>
<text text-anchor="start" x="293" y="169.7" font-family="Times,serif" font-size="14.00">new</text>
<text text-anchor="start" x="293" y="184.7" font-family="Times,serif" font-size="14.00">show</text>
<text text-anchor="start" x="293" y="199.7" font-family="Times,serif" font-size="14.00">update</text>
<polyline fill="none" stroke="black" points="285,207.5 407,207.5 "/>
<polyline fill="none" stroke="black" points="285,231.5 407,231.5 "/>
<text text-anchor="start" x="293" y="246.7" font-family="Times,serif" font-size="14.00">_layout</text>
<text text-anchor="start" x="293" y="261.7" font-family="Times,serif" font-size="14.00">election_params</text>
<text text-anchor="start" x="293" y="276.7" font-family="Times,serif" font-size="14.00">set_election</text>
</g>
<!-- StatisticsController -->
<g id="node5" class="node"><title>StatisticsController</title>
<path fill="none" stroke="black" d="M106.5,-399C106.5,-399 203.5,-399 203.5,-399 209.5,-399 215.5,-405 215.5,-411 215.5,-411 215.5,-555 215.5,-555 215.5,-561 209.5,-567 203.5,-567 203.5,-567 106.5,-567 106.5,-567 100.5,-567 94.5,-561 94.5,-555 94.5,-555 94.5,-411 94.5,-411 94.5,-405 100.5,-399 106.5,-399"/>
<text text-anchor="middle" x="155" y="-551.8" font-family="Times,serif" font-size="14.00">StatisticsController</text>
<polyline fill="none" stroke="black" points="94.5,-544 215.5,-544 "/>
<text text-anchor="start" x="102.5" y="-528.8" font-family="Times,serif" font-size="14.00">average</text>
<text text-anchor="start" x="102.5" y="-513.8" font-family="Times,serif" font-size="14.00">censo_date</text>
<text text-anchor="start" x="102.5" y="-498.8" font-family="Times,serif" font-size="14.00">children</text>
<text text-anchor="start" x="102.5" y="-483.8" font-family="Times,serif" font-size="14.00">gender</text>
<text text-anchor="start" x="102.5" y="-468.8" font-family="Times,serif" font-size="14.00">health</text>
<text text-anchor="start" x="102.5" y="-453.8" font-family="Times,serif" font-size="14.00">total</text>
<polyline fill="none" stroke="black" points="94.5,-446 215.5,-446 "/>
<polyline fill="none" stroke="black" points="94.5,-422 215.5,-422 "/>
<text text-anchor="start" x="102.5" y="-406.8" font-family="Times,serif" font-size="14.00">_layout</text>
</g>
<!-- CandidatesController -->
<g id="node6" class="node"><title>CandidatesController</title>
<path fill="none" stroke="black" d="M-311,322C-311,322 -203,322 -203,322 -197,322 -191,316 -191,310 -191,310 -191,106 -191,106 -191,100 -197,94 -203,94 -203,94 -311,94 -311,94 -317,94 -323,100 -323,106 -323,106 -323,310 -323,310 -323,316 -317,322 -311,322"/>
<text text-anchor="middle" x="-257" y="109.2" font-family="Times,serif" font-size="14.00">CandidatesController</text>
<polyline fill="none" stroke="black" points="-323,117 -191,117 "/>
<text text-anchor="start" x="-315" y="132.2" font-family="Times,serif" font-size="14.00">create</text>
<text text-anchor="start" x="-315" y="147.2" font-family="Times,serif" font-size="14.00">destroy</text>
<text text-anchor="start" x="-315" y="162.2" font-family="Times,serif" font-size="14.00">edit</text>
<text text-anchor="start" x="-315" y="177.2" font-family="Times,serif" font-size="14.00">index</text>
<text text-anchor="start" x="-315" y="192.2" font-family="Times,serif" font-size="14.00">new</text>
<text text-anchor="start" x="-315" y="207.2" font-family="Times,serif" font-size="14.00">show</text>
<text text-anchor="start" x="-315" y="222.2" font-family="Times,serif" font-size="14.00">update</text>
<text text-anchor="start" x="-315" y="237.2" font-family="Times,serif" font-size="14.00">upvote</text>
<polyline fill="none" stroke="black" points="-323,245 -191,245 "/>
<polyline fill="none" stroke="black" points="-323,269 -191,269 "/>
<text text-anchor="start" x="-315" y="284.2" font-family="Times,serif" font-size="14.00">_layout</text>
<text text-anchor="start" x="-315" y="299.2" font-family="Times,serif" font-size="14.00">candidate_params</text>
<text text-anchor="start" x="-315" y="314.2" font-family="Times,serif" font-size="14.00">set_candidate</text>
</g>
<!-- NewslettersController -->
<g id="node7" class="node"><title>NewslettersController</title>
<path fill="none" stroke="black" d="M107,360C107,360 219,360 219,360 225,360 231,354 231,348 231,348 231,144 231,144 231,138 225,132 219,132 219,132 107,132 107,132 101,132 95,138 95,144 95,144 95,348 95,348 95,354 101,360 107,360"/>
<text text-anchor="middle" x="163" y="147.2" font-family="Times,serif" font-size="14.00">NewslettersController</text>
<polyline fill="none" stroke="black" points="95,155 231,155 "/>
<text text-anchor="start" x="103" y="170.2" font-family="Times,serif" font-size="14.00">create</text>
<text text-anchor="start" x="103" y="185.2" font-family="Times,serif" font-size="14.00">deliver</text>
<text text-anchor="start" x="103" y="200.2" font-family="Times,serif" font-size="14.00">destroy</text>
<text text-anchor="start" x="103" y="215.2" font-family="Times,serif" font-size="14.00">edit</text>
<text text-anchor="start" x="103" y="230.2" font-family="Times,serif" font-size="14.00">index</text>
<text text-anchor="start" x="103" y="245.2" font-family="Times,serif" font-size="14.00">new</text>
<text text-anchor="start" x="103" y="260.2" font-family="Times,serif" font-size="14.00">show</text>
<text text-anchor="start" x="103" y="275.2" font-family="Times,serif" font-size="14.00">update</text>
<polyline fill="none" stroke="black" points="95,283 231,283 "/>
<polyline fill="none" stroke="black" points="95,307 231,307 "/>
<text text-anchor="start" x="103" y="322.2" font-family="Times,serif" font-size="14.00">_layout</text>
<text text-anchor="start" x="103" y="337.2" font-family="Times,serif" font-size="14.00">newsletter_params</text>
<text text-anchor="start" x="103" y="352.2" font-family="Times,serif" font-size="14.00">set_newsletter</text>
</g>
<!-- ApplicationController -->
<g id="node8" class="node"><title>ApplicationController</title>
<path fill="none" stroke="black" d="M-463,474C-463,474 -351,474 -351,474 -345,474 -339,468 -339,462 -339,462 -339,378 -339,378 -339,372 -345,366 -351,366 -351,366 -463,366 -463,366 -469,366 -475,372 -475,378 -475,378 -475,462 -475,462 -475,468 -469,474 -463,474"/>
<text text-anchor="middle" x="-407" y="381.2" font-family="Times,serif" font-size="14.00">ApplicationController</text>
<polyline fill="none" stroke="black" points="-475,389 -339,389 "/>
<text text-anchor="start" x="-467" y="404.2" font-family="Times,serif" font-size="14.00">set_current_user</text>
<text text-anchor="start" x="-467" y="419.2" font-family="Times,serif" font-size="14.00">user_not_auth</text>
<polyline fill="none" stroke="black" points="-475,427 -339,427 "/>
<polyline fill="none" stroke="black" points="-475,451 -339,451 "/>
<text text-anchor="start" x="-467" y="466.2" font-family="Times,serif" font-size="14.00">_layout</text>
</g>
<!-- ResidencesController -->
<g id="node9" class="node"><title>ResidencesController</title>
<path fill="none" stroke="black" d="M297.5,37.5C297.5,37.5 406.5,37.5 406.5,37.5 412.5,37.5 418.5,31.5 418.5,25.5 418.5,25.5 418.5,-163.5 418.5,-163.5 418.5,-169.5 412.5,-175.5 406.5,-175.5 406.5,-175.5 297.5,-175.5 297.5,-175.5 291.5,-175.5 285.5,-169.5 285.5,-163.5 285.5,-163.5 285.5,25.5 285.5,25.5 285.5,31.5 291.5,37.5 297.5,37.5"/>
<text text-anchor="middle" x="352" y="-160.3" font-family="Times,serif" font-size="14.00">ResidencesController</text>
<polyline fill="none" stroke="black" points="285.5,-152.5 418.5,-152.5 "/>
<text text-anchor="start" x="293.5" y="-137.3" font-family="Times,serif" font-size="14.00">create</text>
<text text-anchor="start" x="293.5" y="-122.3" font-family="Times,serif" font-size="14.00">destroy</text>
<text text-anchor="start" x="293.5" y="-107.3" font-family="Times,serif" font-size="14.00">edit</text>
<text text-anchor="start" x="293.5" y="-92.3" font-family="Times,serif" font-size="14.00">index</text>
<text text-anchor="start" x="293.5" y="-77.3" font-family="Times,serif" font-size="14.00">new</text>
<text text-anchor="start" x="293.5" y="-62.3" font-family="Times,serif" font-size="14.00">show</text>
<text text-anchor="start" x="293.5" y="-47.3" font-family="Times,serif" font-size="14.00">update</text>
<polyline fill="none" stroke="black" points="285.5,-39.5 418.5,-39.5 "/>
<polyline fill="none" stroke="black" points="285.5,-15.5 418.5,-15.5 "/>
<text text-anchor="start" x="293.5" y="-0.3" font-family="Times,serif" font-size="14.00">_layout</text>
<text text-anchor="start" x="293.5" y="14.7" font-family="Times,serif" font-size="14.00">residence_params</text>
<text text-anchor="start" x="293.5" y="29.7" font-family="Times,serif" font-size="14.00">set_residence</text>
</g>
<!-- AnnouncementsController -->
<g id="node10" class="node"><title>AnnouncementsController</title>
<path fill="none" stroke="black" d="M-82.5,151.5C-82.5,151.5 54.5,151.5 54.5,151.5 60.5,151.5 66.5,145.5 66.5,139.5 66.5,139.5 66.5,-109.5 66.5,-109.5 66.5,-115.5 60.5,-121.5 54.5,-121.5 54.5,-121.5 -82.5,-121.5 -82.5,-121.5 -88.5,-121.5 -94.5,-115.5 -94.5,-109.5 -94.5,-109.5 -94.5,139.5 -94.5,139.5 -94.5,145.5 -88.5,151.5 -82.5,151.5"/>
<text text-anchor="middle" x="-14" y="-106.3" font-family="Times,serif" font-size="14.00">AnnouncementsController</text>
<polyline fill="none" stroke="black" points="-94.5,-98.5 66.5,-98.5 "/>
<text text-anchor="start" x="-86.5" y="-83.3" font-family="Times,serif" font-size="14.00">create</text>
<text text-anchor="start" x="-86.5" y="-68.3" font-family="Times,serif" font-size="14.00">destroy</text>
<text text-anchor="start" x="-86.5" y="-53.3" font-family="Times,serif" font-size="14.00">edit</text>
<text text-anchor="start" x="-86.5" y="-38.3" font-family="Times,serif" font-size="14.00">index</text>
<text text-anchor="start" x="-86.5" y="-23.3" font-family="Times,serif" font-size="14.00">new</text>
<text text-anchor="start" x="-86.5" y="-8.3" font-family="Times,serif" font-size="14.00">remove_olds</text>
<text text-anchor="start" x="-86.5" y="6.7" font-family="Times,serif" font-size="14.00">show</text>
<text text-anchor="start" x="-86.5" y="21.7" font-family="Times,serif" font-size="14.00">update</text>
<polyline fill="none" stroke="black" points="-94.5,29.5 66.5,29.5 "/>
<polyline fill="none" stroke="black" points="-94.5,53.5 66.5,53.5 "/>
<text text-anchor="start" x="-86.5" y="68.7" font-family="Times,serif" font-size="14.00">_layout</text>
<text text-anchor="start" x="-86.5" y="83.7" font-family="Times,serif" font-size="14.00">announcement_params</text>
<text text-anchor="start" x="-86.5" y="98.7" font-family="Times,serif" font-size="14.00">set_announcement</text>
<text text-anchor="start" x="-86.5" y="113.7" font-family="Times,serif" font-size="14.00">sort_column</text>
<text text-anchor="start" x="-86.5" y="128.7" font-family="Times,serif" font-size="14.00">sort_direction</text>
<text text-anchor="start" x="-86.5" y="143.7" font-family="Times,serif" font-size="14.00">sortable_columns</text>
</g>
<!-- VotesController -->
<g id="node11" class="node"><title>VotesController</title>
<path fill="none" stroke="black" d="M-368,-380.5C-368,-380.5 -288,-380.5 -288,-380.5 -282,-380.5 -276,-386.5 -276,-392.5 -276,-392.5 -276,-581.5 -276,-581.5 -276,-587.5 -282,-593.5 -288,-593.5 -288,-593.5 -368,-593.5 -368,-593.5 -374,-593.5 -380,-587.5 -380,-581.5 -380,-581.5 -380,-392.5 -380,-392.5 -380,-386.5 -374,-380.5 -368,-380.5"/>
<text text-anchor="middle" x="-328" y="-578.3" font-family="Times,serif" font-size="14.00">VotesController</text>
<polyline fill="none" stroke="black" points="-380,-570.5 -276,-570.5 "/>
<text text-anchor="start" x="-372" y="-555.3" font-family="Times,serif" font-size="14.00">create</text>
<text text-anchor="start" x="-372" y="-540.3" font-family="Times,serif" font-size="14.00">destroy</text>
<text text-anchor="start" x="-372" y="-525.3" font-family="Times,serif" font-size="14.00">edit</text>
<text text-anchor="start" x="-372" y="-510.3" font-family="Times,serif" font-size="14.00">index</text>
<text text-anchor="start" x="-372" y="-495.3" font-family="Times,serif" font-size="14.00">new</text>
<text text-anchor="start" x="-372" y="-480.3" font-family="Times,serif" font-size="14.00">show</text>
<text text-anchor="start" x="-372" y="-465.3" font-family="Times,serif" font-size="14.00">update</text>
<polyline fill="none" stroke="black" points="-380,-457.5 -276,-457.5 "/>
<polyline fill="none" stroke="black" points="-380,-433.5 -276,-433.5 "/>
<text text-anchor="start" x="-372" y="-418.3" font-family="Times,serif" font-size="14.00">_layout</text>
<text text-anchor="start" x="-372" y="-403.3" font-family="Times,serif" font-size="14.00">set_vote</text>
<text text-anchor="start" x="-372" y="-388.3" font-family="Times,serif" font-size="14.00">vote_params</text>
</g>
<!-- EventsController -->
<g id="node12" class="node"><title>EventsController</title>
<path fill="none" stroke="black" d="M-44.5,-152.5C-44.5,-152.5 44.5,-152.5 44.5,-152.5 50.5,-152.5 56.5,-158.5 56.5,-164.5 56.5,-164.5 56.5,-413.5 56.5,-413.5 56.5,-419.5 50.5,-425.5 44.5,-425.5 44.5,-425.5 -44.5,-425.5 -44.5,-425.5 -50.5,-425.5 -56.5,-419.5 -56.5,-413.5 -56.5,-413.5 -56.5,-164.5 -56.5,-164.5 -56.5,-158.5 -50.5,-152.5 -44.5,-152.5"/>
<text text-anchor="middle" x="0" y="-410.3" font-family="Times,serif" font-size="14.00">EventsController</text>
<polyline fill="none" stroke="black" points="-56.5,-402.5 56.5,-402.5 "/>
<text text-anchor="start" x="-48.5" y="-387.3" font-family="Times,serif" font-size="14.00">create</text>
<text text-anchor="start" x="-48.5" y="-372.3" font-family="Times,serif" font-size="14.00">destroy</text>
<text text-anchor="start" x="-48.5" y="-357.3" font-family="Times,serif" font-size="14.00">edit</text>
<text text-anchor="start" x="-48.5" y="-342.3" font-family="Times,serif" font-size="14.00">index</text>
<text text-anchor="start" x="-48.5" y="-327.3" font-family="Times,serif" font-size="14.00">new</text>
<text text-anchor="start" x="-48.5" y="-312.3" font-family="Times,serif" font-size="14.00">remove_olds</text>
<text text-anchor="start" x="-48.5" y="-297.3" font-family="Times,serif" font-size="14.00">show</text>
<text text-anchor="start" x="-48.5" y="-282.3" font-family="Times,serif" font-size="14.00">update</text>
<polyline fill="none" stroke="black" points="-56.5,-274.5 56.5,-274.5 "/>
<polyline fill="none" stroke="black" points="-56.5,-250.5 56.5,-250.5 "/>
<text text-anchor="start" x="-48.5" y="-235.3" font-family="Times,serif" font-size="14.00">_layout</text>
<text text-anchor="start" x="-48.5" y="-220.3" font-family="Times,serif" font-size="14.00">event_params</text>
<text text-anchor="start" x="-48.5" y="-205.3" font-family="Times,serif" font-size="14.00">set_event</text>
<text text-anchor="start" x="-48.5" y="-190.3" font-family="Times,serif" font-size="14.00">sort_column</text>
<text text-anchor="start" x="-48.5" y="-175.3" font-family="Times,serif" font-size="14.00">sort_direction</text>
<text text-anchor="start" x="-48.5" y="-160.3" font-family="Times,serif" font-size="14.00">sortable_columns</text>
</g>
<!-- Users::RegistrationsController -->
<g id="node13" class="node"><title>Users::RegistrationsController</title>
<path fill="none" stroke="black" d="M449,284C449,284 607,284 607,284 613,284 619,278 619,272 619,272 619,202 619,202 619,196 613,190 607,190 607,190 449,190 449,190 443,190 437,196 437,202 437,202 437,272 437,272 437,278 443,284 449,284"/>
<text text-anchor="middle" x="528" y="205.2" font-family="Times,serif" font-size="14.00">Users::RegistrationsController</text>
<polyline fill="none" stroke="black" points="437,213 619,213 "/>
<polyline fill="none" stroke="black" points="437,237 619,237 "/>
<polyline fill="none" stroke="black" points="437,261 619,261 "/>
<text text-anchor="start" x="445" y="276.2" font-family="Times,serif" font-size="14.00">_layout</text>
</g>
<!-- Users::UnlocksController -->
<g id="node14" class="node"><title>Users::UnlocksController</title>
<path fill="none" stroke="black" d="M12.5,493C12.5,493 143.5,493 143.5,493 149.5,493 155.5,487 155.5,481 155.5,481 155.5,411 155.5,411 155.5,405 149.5,399 143.5,399 143.5,399 12.5,399 12.5,399 6.5,399 0.5,405 0.5,411 0.5,411 0.5,481 0.5,481 0.5,487 6.5,493 12.5,493"/>
<text text-anchor="middle" x="78" y="414.2" font-family="Times,serif" font-size="14.00">Users::UnlocksController</text>
<polyline fill="none" stroke="black" points="0.5,422 155.5,422 "/>
<polyline fill="none" stroke="black" points="0.5,446 155.5,446 "/>
<polyline fill="none" stroke="black" points="0.5,470 155.5,470 "/>
<text text-anchor="start" x="8.5" y="485.2" font-family="Times,serif" font-size="14.00">_layout</text>
</g>
<!-- Users::PasswordsController -->
<g id="node15" class="node"><title>Users::PasswordsController</title>
<path fill="none" stroke="black" d="M467.5,-153C467.5,-153 610.5,-153 610.5,-153 616.5,-153 622.5,-159 622.5,-165 622.5,-165 622.5,-235 622.5,-235 622.5,-241 616.5,-247 610.5,-247 610.5,-247 467.5,-247 467.5,-247 461.5,-247 455.5,-241 455.5,-235 455.5,-235 455.5,-165 455.5,-165 455.5,-159 461.5,-153 467.5,-153"/>
<text text-anchor="middle" x="539" y="-231.8" font-family="Times,serif" font-size="14.00">Users::PasswordsController</text>
<polyline fill="none" stroke="black" points="455.5,-224 622.5,-224 "/>
<polyline fill="none" stroke="black" points="455.5,-200 622.5,-200 "/>
<polyline fill="none" stroke="black" points="455.5,-176 622.5,-176 "/>
<text text-anchor="start" x="463.5" y="-160.8" font-family="Times,serif" font-size="14.00">_layout</text>
</g>
<!-- Users::ConfirmationsController -->
<g id="node16" class="node"><title>Users::ConfirmationsController</title>
<path fill="none" stroke="black" d="M468.5,151C468.5,151 633.5,151 633.5,151 639.5,151 645.5,145 645.5,139 645.5,139 645.5,69 645.5,69 645.5,63 639.5,57 633.5,57 633.5,57 468.5,57 468.5,57 462.5,57 456.5,63 456.5,69 456.5,69 456.5,139 456.5,139 456.5,145 462.5,151 468.5,151"/>
<text text-anchor="middle" x="551" y="72.2" font-family="Times,serif" font-size="14.00">Users::ConfirmationsController</text>
<polyline fill="none" stroke="black" points="456.5,80 645.5,80 "/>
<polyline fill="none" stroke="black" points="456.5,104 645.5,104 "/>
<polyline fill="none" stroke="black" points="456.5,128 645.5,128 "/>
<text text-anchor="start" x="464.5" y="143.2" font-family="Times,serif" font-size="14.00">_layout</text>
</g>
<!-- Users::SessionsController -->
<g id="node17" class="node"><title>Users::SessionsController</title>
<path fill="none" stroke="black" d="M-424.5,-248C-424.5,-248 -291.5,-248 -291.5,-248 -285.5,-248 -279.5,-254 -279.5,-260 -279.5,-260 -279.5,-330 -279.5,-330 -279.5,-336 -285.5,-342 -291.5,-342 -291.5,-342 -424.5,-342 -424.5,-342 -430.5,-342 -436.5,-336 -436.5,-330 -436.5,-330 -436.5,-260 -436.5,-260 -436.5,-254 -430.5,-248 -424.5,-248"/>
<text text-anchor="middle" x="-358" y="-326.8" font-family="Times,serif" font-size="14.00">Users::SessionsController</text>
<polyline fill="none" stroke="black" points="-436.5,-319 -279.5,-319 "/>
<polyline fill="none" stroke="black" points="-436.5,-295 -279.5,-295 "/>
<polyline fill="none" stroke="black" points="-436.5,-271 -279.5,-271 "/>
<text text-anchor="start" x="-428.5" y="-255.8" font-family="Times,serif" font-size="14.00">_layout</text>
</g>
<!-- Users::OmniauthCallbacksController -->
<g id="node18" class="node"><title>Users::OmniauthCallbacksController</title>
<path fill="none" stroke="black" d="M221,-209.5C221,-209.5 415,-209.5 415,-209.5 421,-209.5 427,-215.5 427,-221.5 427,-221.5 427,-350.5 427,-350.5 427,-356.5 421,-362.5 415,-362.5 415,-362.5 221,-362.5 221,-362.5 215,-362.5 209,-356.5 209,-350.5 209,-350.5 209,-221.5 209,-221.5 209,-215.5 215,-209.5 221,-209.5"/>
<text text-anchor="middle" x="318" y="-347.3" font-family="Times,serif" font-size="14.00">Users::OmniauthCallbacksController</text>
<polyline fill="none" stroke="black" points="209,-339.5 427,-339.5 "/>
<text text-anchor="start" x="217" y="-324.3" font-family="Times,serif" font-size="14.00">facebook</text>
<text text-anchor="start" x="217" y="-309.3" font-family="Times,serif" font-size="14.00">failure</text>
<text text-anchor="start" x="217" y="-294.3" font-family="Times,serif" font-size="14.00">google_oauth2</text>
<text text-anchor="start" x="217" y="-279.3" font-family="Times,serif" font-size="14.00">provider</text>
<text text-anchor="start" x="217" y="-264.3" font-family="Times,serif" font-size="14.00">twitter</text>
<polyline fill="none" stroke="black" points="209,-256.5 427,-256.5 "/>
<polyline fill="none" stroke="black" points="209,-232.5 427,-232.5 "/>
<text text-anchor="start" x="217" y="-217.3" font-family="Times,serif" font-size="14.00">_layout</text>
</g>
<!-- HealthServicesController -->
<g id="node19" class="node"><title>HealthServicesController</title>
<path fill="none" stroke="black" d="M-235,-247.5C-235,-247.5 -105,-247.5 -105,-247.5 -99,-247.5 -93,-253.5 -93,-259.5 -93,-259.5 -93,-448.5 -93,-448.5 -93,-454.5 -99,-460.5 -105,-460.5 -105,-460.5 -235,-460.5 -235,-460.5 -241,-460.5 -247,-454.5 -247,-448.5 -247,-448.5 -247,-259.5 -247,-259.5 -247,-253.5 -241,-247.5 -235,-247.5"/>
<text text-anchor="middle" x="-170" y="-445.3" font-family="Times,serif" font-size="14.00">HealthServicesController</text>
<polyline fill="none" stroke="black" points="-247,-437.5 -93,-437.5 "/>
<text text-anchor="start" x="-239" y="-422.3" font-family="Times,serif" font-size="14.00">create</text>
<text text-anchor="start" x="-239" y="-407.3" font-family="Times,serif" font-size="14.00">destroy</text>
<text text-anchor="start" x="-239" y="-392.3" font-family="Times,serif" font-size="14.00">edit</text>
<text text-anchor="start" x="-239" y="-377.3" font-family="Times,serif" font-size="14.00">index</text>
<text text-anchor="start" x="-239" y="-362.3" font-family="Times,serif" font-size="14.00">new</text>
<text text-anchor="start" x="-239" y="-347.3" font-family="Times,serif" font-size="14.00">show</text>
<text text-anchor="start" x="-239" y="-332.3" font-family="Times,serif" font-size="14.00">update</text>
<polyline fill="none" stroke="black" points="-247,-324.5 -93,-324.5 "/>
<polyline fill="none" stroke="black" points="-247,-300.5 -93,-300.5 "/>
<text text-anchor="start" x="-239" y="-285.3" font-family="Times,serif" font-size="14.00">_layout</text>
<text text-anchor="start" x="-239" y="-270.3" font-family="Times,serif" font-size="14.00">health_service_params</text>
<text text-anchor="start" x="-239" y="-255.3" font-family="Times,serif" font-size="14.00">set_health_service</text>
</g>
<!-- ChildrenController -->
<g id="node20" class="node"><title>ChildrenController</title>
<path fill="none" stroke="black" d="M-386.5,-0.5C-386.5,-0.5 -291.5,-0.5 -291.5,-0.5 -285.5,-0.5 -279.5,-6.5 -279.5,-12.5 -279.5,-12.5 -279.5,-201.5 -279.5,-201.5 -279.5,-207.5 -285.5,-213.5 -291.5,-213.5 -291.5,-213.5 -386.5,-213.5 -386.5,-213.5 -392.5,-213.5 -398.5,-207.5 -398.5,-201.5 -398.5,-201.5 -398.5,-12.5 -398.5,-12.5 -398.5,-6.5 -392.5,-0.5 -386.5,-0.5"/>
<text text-anchor="middle" x="-339" y="-198.3" font-family="Times,serif" font-size="14.00">ChildrenController</text>
<polyline fill="none" stroke="black" points="-398.5,-190.5 -279.5,-190.5 "/>
<text text-anchor="start" x="-390.5" y="-175.3" font-family="Times,serif" font-size="14.00">create</text>
<text text-anchor="start" x="-390.5" y="-160.3" font-family="Times,serif" font-size="14.00">destroy</text>
<text text-anchor="start" x="-390.5" y="-145.3" font-family="Times,serif" font-size="14.00">edit</text>
<text text-anchor="start" x="-390.5" y="-130.3" font-family="Times,serif" font-size="14.00">index</text>
<text text-anchor="start" x="-390.5" y="-115.3" font-family="Times,serif" font-size="14.00">new</text>
<text text-anchor="start" x="-390.5" y="-100.3" font-family="Times,serif" font-size="14.00">show</text>
<text text-anchor="start" x="-390.5" y="-85.3" font-family="Times,serif" font-size="14.00">update</text>
<polyline fill="none" stroke="black" points="-398.5,-77.5 -279.5,-77.5 "/>
<polyline fill="none" stroke="black" points="-398.5,-53.5 -279.5,-53.5 "/>
<text text-anchor="start" x="-390.5" y="-38.3" font-family="Times,serif" font-size="14.00">_layout</text>
<text text-anchor="start" x="-390.5" y="-23.3" font-family="Times,serif" font-size="14.00">child_params</text>
<text text-anchor="start" x="-390.5" y="-8.3" font-family="Times,serif" font-size="14.00">set_child</text>
</g>
<!-- OpinionsController -->
<g id="node21" class="node"><title>OpinionsController</title>
<path fill="none" stroke="black" d="M-140,398.5C-140,398.5 -42,398.5 -42,398.5 -36,398.5 -30,392.5 -30,386.5 -30,386.5 -30,197.5 -30,197.5 -30,191.5 -36,185.5 -42,185.5 -42,185.5 -140,185.5 -140,185.5 -146,185.5 -152,191.5 -152,197.5 -152,197.5 -152,386.5 -152,386.5 -152,392.5 -146,398.5 -140,398.5"/>
<text text-anchor="middle" x="-91" y="200.7" font-family="Times,serif" font-size="14.00">OpinionsController</text>
<polyline fill="none" stroke="black" points="-152,208.5 -30,208.5 "/>
<text text-anchor="start" x="-144" y="223.7" font-family="Times,serif" font-size="14.00">create</text>
<text text-anchor="start" x="-144" y="238.7" font-family="Times,serif" font-size="14.00">destroy</text>
<text text-anchor="start" x="-144" y="253.7" font-family="Times,serif" font-size="14.00">edit</text>
<text text-anchor="start" x="-144" y="268.7" font-family="Times,serif" font-size="14.00">index</text>
<text text-anchor="start" x="-144" y="283.7" font-family="Times,serif" font-size="14.00">new</text>
<text text-anchor="start" x="-144" y="298.7" font-family="Times,serif" font-size="14.00">show</text>
<text text-anchor="start" x="-144" y="313.7" font-family="Times,serif" font-size="14.00">update</text>
<polyline fill="none" stroke="black" points="-152,321.5 -30,321.5 "/>
<polyline fill="none" stroke="black" points="-152,345.5 -30,345.5 "/>
<text text-anchor="start" x="-144" y="360.7" font-family="Times,serif" font-size="14.00">_layout</text>
<text text-anchor="start" x="-144" y="375.7" font-family="Times,serif" font-size="14.00">opinion_params</text>
<text text-anchor="start" x="-144" y="390.7" font-family="Times,serif" font-size="14.00">set_opinion</text>
</g>
<!-- ContactsController -->
<g id="node22" class="node"><title>ContactsController</title>
<path fill="none" stroke="black" d="M468.5,18C468.5,18 563.5,18 563.5,18 569.5,18 575.5,12 575.5,6 575.5,6 575.5,-108 575.5,-108 575.5,-114 569.5,-120 563.5,-120 563.5,-120 468.5,-120 468.5,-120 462.5,-120 456.5,-114 456.5,-108 456.5,-108 456.5,6 456.5,6 456.5,12 462.5,18 468.5,18"/>
<text text-anchor="middle" x="516" y="-104.8" font-family="Times,serif" font-size="14.00">ContactsController</text>
<polyline fill="none" stroke="black" points="456.5,-97 575.5,-97 "/>
<text text-anchor="start" x="464.5" y="-81.8" font-family="Times,serif" font-size="14.00">create</text>
<text text-anchor="start" x="464.5" y="-66.8" font-family="Times,serif" font-size="14.00">index</text>
<text text-anchor="start" x="464.5" y="-51.8" font-family="Times,serif" font-size="14.00">new</text>
<polyline fill="none" stroke="black" points="456.5,-44 575.5,-44 "/>
<polyline fill="none" stroke="black" points="456.5,-20 575.5,-20 "/>
<text text-anchor="start" x="464.5" y="-4.8" font-family="Times,serif" font-size="14.00">_layout</text>
<text text-anchor="start" x="464.5" y="10.2" font-family="Times,serif" font-size="14.00">contact_params</text>
</g>
<!-- HomeController -->
<g id="node23" class="node"><title>HomeController</title>
<path fill="none" stroke="black" d="M-26,-456.5C-26,-456.5 56,-456.5 56,-456.5 62,-456.5 68,-462.5 68,-468.5 68,-468.5 68,-537.5 68,-537.5 68,-543.5 62,-549.5 56,-549.5 56,-549.5 -26,-549.5 -26,-549.5 -32,-549.5 -38,-543.5 -38,-537.5 -38,-537.5 -38,-468.5 -38,-468.5 -38,-462.5 -32,-456.5 -26,-456.5"/>
<text text-anchor="middle" x="15" y="-534.3" font-family="Times,serif" font-size="14.00">HomeController</text>
<polyline fill="none" stroke="black" points="-38,-526.5 68,-526.5 "/>
<text text-anchor="start" x="-30" y="-511.3" font-family="Times,serif" font-size="14.00">index</text>
<polyline fill="none" stroke="black" points="-38,-503.5 68,-503.5 "/>
<polyline fill="none" stroke="black" points="-38,-479.5 68,-479.5 "/>
<text text-anchor="start" x="-30" y="-464.3" font-family="Times,serif" font-size="14.00">_layout</text>
</g>
<!-- CertificatesController -->
<g id="node24" class="node"><title>CertificatesController</title>
<path fill="none" stroke="black" d="M411,-399.5C411,-399.5 521,-399.5 521,-399.5 527,-399.5 533,-405.5 533,-411.5 533,-411.5 533,-600.5 533,-600.5 533,-606.5 527,-612.5 521,-612.5 521,-612.5 411,-612.5 411,-612.5 405,-612.5 399,-606.5 399,-600.5 399,-600.5 399,-411.5 399,-411.5 399,-405.5 405,-399.5 411,-399.5"/>
<text text-anchor="middle" x="466" y="-597.3" font-family="Times,serif" font-size="14.00">CertificatesController</text>
<polyline fill="none" stroke="black" points="399,-589.5 533,-589.5 "/>
<text text-anchor="start" x="407" y="-574.3" font-family="Times,serif" font-size="14.00">create</text>
<text text-anchor="start" x="407" y="-559.3" font-family="Times,serif" font-size="14.00">destroy</text>
<text text-anchor="start" x="407" y="-544.3" font-family="Times,serif" font-size="14.00">edit</text>
<text text-anchor="start" x="407" y="-529.3" font-family="Times,serif" font-size="14.00">index</text>
<text text-anchor="start" x="407" y="-514.3" font-family="Times,serif" font-size="14.00">new</text>
<text text-anchor="start" x="407" y="-499.3" font-family="Times,serif" font-size="14.00">show</text>
<text text-anchor="start" x="407" y="-484.3" font-family="Times,serif" font-size="14.00">update</text>
<polyline fill="none" stroke="black" points="399,-476.5 533,-476.5 "/>
<polyline fill="none" stroke="black" points="399,-452.5 533,-452.5 "/>
<text text-anchor="start" x="407" y="-437.3" font-family="Times,serif" font-size="14.00">_layout</text>
<text text-anchor="start" x="407" y="-422.3" font-family="Times,serif" font-size="14.00">certificate_params</text>
<text text-anchor="start" x="407" y="-407.3" font-family="Times,serif" font-size="14.00">set_certificate</text>
</g>
<!-- PeopleController -->
<g id="node25" class="node"><title>PeopleController</title>
<path fill="none" stroke="black" d="M-234.5,56C-234.5,56 -145.5,56 -145.5,56 -139.5,56 -133.5,50 -133.5,44 -133.5,44 -133.5,-190 -133.5,-190 -133.5,-196 -139.5,-202 -145.5,-202 -145.5,-202 -234.5,-202 -234.5,-202 -240.5,-202 -246.5,-196 -246.5,-190 -246.5,-190 -246.5,44 -246.5,44 -246.5,50 -240.5,56 -234.5,56"/>
<text text-anchor="middle" x="-190" y="-186.8" font-family="Times,serif" font-size="14.00">PeopleController</text>
<polyline fill="none" stroke="black" points="-246.5,-179 -133.5,-179 "/>
<text text-anchor="start" x="-238.5" y="-163.8" font-family="Times,serif" font-size="14.00">create</text>
<text text-anchor="start" x="-238.5" y="-148.8" font-family="Times,serif" font-size="14.00">destroy</text>
<text text-anchor="start" x="-238.5" y="-133.8" font-family="Times,serif" font-size="14.00">edit</text>
<text text-anchor="start" x="-238.5" y="-118.8" font-family="Times,serif" font-size="14.00">index</text>
<text text-anchor="start" x="-238.5" y="-103.8" font-family="Times,serif" font-size="14.00">new</text>
<text text-anchor="start" x="-238.5" y="-88.8" font-family="Times,serif" font-size="14.00">show</text>
<text text-anchor="start" x="-238.5" y="-73.8" font-family="Times,serif" font-size="14.00">update</text>
<polyline fill="none" stroke="black" points="-246.5,-66 -133.5,-66 "/>
<polyline fill="none" stroke="black" points="-246.5,-42 -133.5,-42 "/>
<text text-anchor="start" x="-238.5" y="-26.8" font-family="Times,serif" font-size="14.00">_layout</text>
<text text-anchor="start" x="-238.5" y="-11.8" font-family="Times,serif" font-size="14.00">person_params</text>
<text text-anchor="start" x="-238.5" y="3.2" font-family="Times,serif" font-size="14.00">set_person</text>
<text text-anchor="start" x="-238.5" y="18.2" font-family="Times,serif" font-size="14.00">sort_column</text>
<text text-anchor="start" x="-238.5" y="33.2" font-family="Times,serif" font-size="14.00">sort_direction</text>
<text text-anchor="start" x="-238.5" y="48.2" font-family="Times,serif" font-size="14.00">sortable_columns</text>
</g>
</g>
</svg>
