<?xml version="1.0" encoding="UTF-8" standalone="no"?>
<!DOCTYPE svg PUBLIC "-//W3C//DTD SVG 1.1//EN"
 "http://www.w3.org/Graphics/SVG/1.1/DTD/svg11.dtd">
<!-- Generated by graphviz version 2.40.1 (20161225.0304)
 -->
<!-- Title: controllers_diagram Pages: 1 -->
<svg width="411pt" height="357pt"
 viewBox="0.00 0.00 411.00 357.00" xmlns="http://www.w3.org/2000/svg" xmlns:xlink="http://www.w3.org/1999/xlink">
<g id="graph0" class="graph" transform="scale(1 1) rotate(0) translate(4 353)">
<title>controllers_diagram</title>
<polygon fill="transparent" stroke="transparent" points="-4,4 -4,-353 407,-353 407,4 -4,4"/>
<!-- _diagram_info -->
<g id="node1" class="node">
<title>_diagram_info</title>
<text text-anchor="start" x="195" y="-80.6" font-family="Times,serif" font-size="13.00" fill="#000000">Controllers diagram</text>
<text text-anchor="start" x="195" y="-66.6" font-family="Times,serif" font-size="13.00" fill="#000000">Date: Sep 19 2017 &#45; 11:42</text>
<text text-anchor="start" x="195" y="-52.6" font-family="Times,serif" font-size="13.00" fill="#000000">Migration version: 0</text>
<text text-anchor="start" x="195" y="-38.6" font-family="Times,serif" font-size="13.00" fill="#000000">Generated by RailRoady 1.5.3</text>
<text text-anchor="start" x="195" y="-24.6" font-family="Times,serif" font-size="13.00" fill="#000000">http://railroady.prestonlee.com</text>
</g>
<!-- ApplicationController -->
<g id="node2" class="node">
<title>ApplicationController</title>
<path fill="none" stroke="#000000" d="M199,-136.5C199,-136.5 347,-136.5 347,-136.5 353,-136.5 359,-142.5 359,-148.5 359,-148.5 359,-217.5 359,-217.5 359,-223.5 353,-229.5 347,-229.5 347,-229.5 199,-229.5 199,-229.5 193,-229.5 187,-223.5 187,-217.5 187,-217.5 187,-148.5 187,-148.5 187,-142.5 193,-136.5 199,-136.5"/>
<text text-anchor="middle" x="273" y="-214.3" font-family="Times,serif" font-size="14.00" fill="#000000">ApplicationController</text>
<polyline fill="none" stroke="#000000" points="187,-206.5 359,-206.5 "/>
<text text-anchor="start" x="195" y="-191.3" font-family="Times,serif" font-size="14.00" fill="#000000">set_cache_buster</text>
<polyline fill="none" stroke="#000000" points="187,-183.5 359,-183.5 "/>
<polyline fill="none" stroke="#000000" points="187,-159.5 359,-159.5 "/>
<text text-anchor="start" x="195" y="-144.3" font-family="Times,serif" font-size="14.00" fill="#000000">_layout</text>
</g>
<!-- HomeController -->
<g id="node3" class="node">
<title>HomeController</title>
<path fill="none" stroke="#000000" d="M233,-255.5C233,-255.5 342,-255.5 342,-255.5 348,-255.5 354,-261.5 354,-267.5 354,-267.5 354,-336.5 354,-336.5 354,-342.5 348,-348.5 342,-348.5 342,-348.5 233,-348.5 233,-348.5 227,-348.5 221,-342.5 221,-336.5 221,-336.5 221,-267.5 221,-267.5 221,-261.5 227,-255.5 233,-255.5"/>
<text text-anchor="middle" x="287.5" y="-333.3" font-family="Times,serif" font-size="14.00" fill="#000000">HomeController</text>
<polyline fill="none" stroke="#000000" points="221,-325.5 354,-325.5 "/>
<text text-anchor="start" x="229" y="-310.3" font-family="Times,serif" font-size="14.00" fill="#000000">index</text>
<polyline fill="none" stroke="#000000" points="221,-302.5 354,-302.5 "/>
<polyline fill="none" stroke="#000000" points="221,-278.5 354,-278.5 "/>
<text text-anchor="start" x="229" y="-263.3" font-family="Times,serif" font-size="14.00" fill="#000000">_layout</text>
</g>
<!-- ContactsController -->
<g id="node4" class="node">
<title>ContactsController</title>
<path fill="none" stroke="#000000" d="M12,-.5C12,-.5 143,-.5 143,-.5 149,-.5 155,-6.5 155,-12.5 155,-12.5 155,-201.5 155,-201.5 155,-207.5 149,-213.5 143,-213.5 143,-213.5 12,-213.5 12,-213.5 6,-213.5 0,-207.5 0,-201.5 0,-201.5 0,-12.5 0,-12.5 0,-6.5 6,-.5 12,-.5"/>
<text text-anchor="middle" x="77.5" y="-198.3" font-family="Times,serif" font-size="14.00" fill="#000000">ContactsController</text>
<polyline fill="none" stroke="#000000" points="0,-190.5 155,-190.5 "/>
<text text-anchor="start" x="8" y="-175.3" font-family="Times,serif" font-size="14.00" fill="#000000">create</text>
<text text-anchor="start" x="8" y="-160.3" font-family="Times,serif" font-size="14.00" fill="#000000">destroy</text>
<text text-anchor="start" x="8" y="-145.3" font-family="Times,serif" font-size="14.00" fill="#000000">edit</text>
<text text-anchor="start" x="8" y="-130.3" font-family="Times,serif" font-size="14.00" fill="#000000">index</text>
<text text-anchor="start" x="8" y="-115.3" font-family="Times,serif" font-size="14.00" fill="#000000">new</text>
<text text-anchor="start" x="8" y="-100.3" font-family="Times,serif" font-size="14.00" fill="#000000">show</text>
<text text-anchor="start" x="8" y="-85.3" font-family="Times,serif" font-size="14.00" fill="#000000">update</text>
<polyline fill="none" stroke="#000000" points="0,-77.5 155,-77.5 "/>
<polyline fill="none" stroke="#000000" points="0,-53.5 155,-53.5 "/>
<text text-anchor="start" x="8" y="-38.3" font-family="Times,serif" font-size="14.00" fill="#000000">_layout</text>
<text text-anchor="start" x="8" y="-23.3" font-family="Times,serif" font-size="14.00" fill="#000000">contact_params</text>
<text text-anchor="start" x="8" y="-8.3" font-family="Times,serif" font-size="14.00" fill="#000000">set_contact</text>
</g>
</g>
</svg>
