<?xml version="1.0" encoding="UTF-8" standalone="no"?>
<!DOCTYPE svg PUBLIC "-//W3C//DTD SVG 1.1//EN"
 "http://www.w3.org/Graphics/SVG/1.1/DTD/svg11.dtd">
<!-- Generated by graphviz version 2.38.0 (20140413.2041)
 -->
<!-- Title: models_diagram Pages: 1 -->
<svg width="771pt" height="302pt"
 viewBox="0.00 0.00 771.35 302.00" xmlns="http://www.w3.org/2000/svg" xmlns:xlink="http://www.w3.org/1999/xlink">
<g id="graph0" class="graph" transform="scale(1 1) rotate(0) translate(4 298)">
<title>models_diagram</title>
<polygon fill="none" stroke="none" points="-4,4 -4,-298 767.347,-298 767.347,4 -4,4"/>
<!-- _diagram_info -->
<g id="node1" class="node"><title>_diagram_info</title>
<text text-anchor="start" x="8" y="-279.6" font-family="Times,serif" font-size="13.00">Models diagram</text>
<text text-anchor="start" x="8" y="-265.6" font-family="Times,serif" font-size="13.00">Date: Oct 11 2017 &#45; 22:13</text>
<text text-anchor="start" x="8" y="-251.6" font-family="Times,serif" font-size="13.00">Migration version: 20171011133215</text>
<text text-anchor="start" x="8" y="-237.6" font-family="Times,serif" font-size="13.00">Generated by RailRoady 1.5.3</text>
<text text-anchor="start" x="8" y="-223.6" font-family="Times,serif" font-size="13.00">http://railroady.prestonlee.com</text>
</g>
<!-- ApplicationRecord -->
<g id="node2" class="node"><title>ApplicationRecord</title>
<ellipse fill="none" stroke="black" cx="309" cy="-255" rx="77.1866" ry="18"/>
<text text-anchor="middle" x="309" y="-251.3" font-family="Times,serif" font-size="14.00">ApplicationRecord</text>
</g>
<!-- HealthService -->
<g id="node3" class="node"><title>HealthService</title>
<ellipse fill="none" stroke="black" cx="190" cy="-162" rx="60.3893" ry="18"/>
<text text-anchor="middle" x="190" y="-158.3" font-family="Times,serif" font-size="14.00">HealthService</text>
</g>
<!-- Censo -->
<g id="node15" class="node"><title>Censo</title>
<ellipse fill="none" stroke="black" cx="201" cy="-90" rx="32.4942" ry="18"/>
<text text-anchor="middle" x="201" y="-86.3" font-family="Times,serif" font-size="14.00">Censo</text>
</g>
<!-- HealthService&#45;&gt;Censo -->
<g id="edge1" class="edge"><title>HealthService&#45;&gt;Censo</title>
<path fill="none" stroke="#7b67e0" d="M193.985,-135.64C194.884,-129.92 195.841,-123.828 196.751,-118.042"/>
<ellipse fill="none" stroke="#7b67e0" cx="193.34" cy="-139.745" rx="4.00001" ry="4.00001"/>
<polygon fill="#7b67e0" stroke="#7b67e0" points="196.76,-117.983 202.758,-108.803 197.536,-113.044 198.312,-108.104 198.312,-108.104 198.312,-108.104 197.536,-113.044 193.867,-107.406 196.76,-117.983 196.76,-117.983"/>
</g>
<!-- Election -->
<g id="node4" class="node"><title>Election</title>
<ellipse fill="none" stroke="black" cx="309" cy="-162" rx="40.0939" ry="18"/>
<text text-anchor="middle" x="309" y="-158.3" font-family="Times,serif" font-size="14.00">Election</text>
</g>
<!-- Candidate -->
<g id="node6" class="node"><title>Candidate</title>
<ellipse fill="none" stroke="black" cx="303" cy="-90" rx="46.2923" ry="18"/>
<text text-anchor="middle" x="303" y="-86.3" font-family="Times,serif" font-size="14.00">Candidate</text>
</g>
<!-- Election&#45;&gt;Candidate -->
<g id="edge2" class="edge"><title>Election&#45;&gt;Candidate</title>
<path fill="none" stroke="#485881" d="M306.826,-135.64C306.348,-130.063 305.84,-124.132 305.355,-118.476"/>
<ellipse fill="none" stroke="#485881" cx="307.175" cy="-139.711" rx="4" ry="4"/>
<polygon fill="#485881" stroke="#485881" points="305.32,-118.068 308.95,-107.72 304.893,-113.086 304.466,-108.104 304.466,-108.104 304.466,-108.104 304.893,-113.086 299.983,-108.489 305.32,-118.068 305.32,-118.068"/>
</g>
<!-- Certificate -->
<g id="node5" class="node"><title>Certificate</title>
<ellipse fill="none" stroke="black" cx="525" cy="-255" rx="48.1917" ry="18"/>
<text text-anchor="middle" x="525" y="-251.3" font-family="Times,serif" font-size="14.00">Certificate</text>
</g>
<!-- Announcement -->
<g id="node7" class="node"><title>Announcement</title>
<ellipse fill="none" stroke="black" cx="432" cy="-90" rx="64.9885" ry="18"/>
<text text-anchor="middle" x="432" y="-86.3" font-family="Times,serif" font-size="14.00">Announcement</text>
</g>
<!-- Statistic -->
<g id="node8" class="node"><title>Statistic</title>
<ellipse fill="none" stroke="black" cx="630" cy="-255" rx="38.9931" ry="18"/>
<text text-anchor="middle" x="630" y="-251.3" font-family="Times,serif" font-size="14.00">Statistic</text>
</g>
<!-- Opinion -->
<g id="node9" class="node"><title>Opinion</title>
<ellipse fill="none" stroke="black" cx="157" cy="-18" rx="39.7935" ry="18"/>
<text text-anchor="middle" x="157" y="-14.3" font-family="Times,serif" font-size="14.00">Opinion</text>
</g>
<!-- Child -->
<g id="node10" class="node"><title>Child</title>
<ellipse fill="none" stroke="black" cx="245" cy="-18" rx="30.5947" ry="18"/>
<text text-anchor="middle" x="245" y="-14.3" font-family="Times,serif" font-size="14.00">Child</text>
</g>
<!-- Person -->
<g id="node11" class="node"><title>Person</title>
<ellipse fill="none" stroke="black" cx="432" cy="-162" rx="34.394" ry="18"/>
<text text-anchor="middle" x="432" y="-158.3" font-family="Times,serif" font-size="14.00">Person</text>
</g>
<!-- Person&#45;&gt;Candidate -->
<g id="edge4" class="edge"><title>Person&#45;&gt;Candidate</title>
<path fill="none" stroke="#57b89a" d="M401.756,-144.588C382.073,-133.908 356.395,-119.974 336.156,-108.992"/>
<ellipse fill="none" stroke="#57b89a" cx="405.422" cy="-146.578" rx="4.00002" ry="4.00002"/>
<ellipse fill="#57b89a" stroke="#57b89a" cx="332.483" cy="-106.998" rx="4.00002" ry="4.00002"/>
</g>
<!-- Person&#45;&gt;Announcement -->
<g id="edge6" class="edge"><title>Person&#45;&gt;Announcement</title>
<path fill="none" stroke="#8427e9" d="M432,-135.64C432,-130.063 432,-124.132 432,-118.476"/>
<ellipse fill="none" stroke="#8427e9" cx="432" cy="-139.697" rx="4" ry="4"/>
<polygon fill="#8427e9" stroke="#8427e9" points="432,-118.104 436.5,-108.104 432,-113.104 432,-108.104 432,-108.104 432,-108.104 432,-113.104 427.5,-108.104 432,-118.104 432,-118.104"/>
</g>
<!-- Event -->
<g id="node12" class="node"><title>Event</title>
<ellipse fill="none" stroke="black" cx="546" cy="-90" rx="31.3957" ry="18"/>
<text text-anchor="middle" x="546" y="-86.3" font-family="Times,serif" font-size="14.00">Event</text>
</g>
<!-- Person&#45;&gt;Event -->
<g id="edge5" class="edge"><title>Person&#45;&gt;Event</title>
<path fill="none" stroke="#844148" d="M460.294,-143.627C477.502,-133.06 499.434,-119.593 516.803,-108.928"/>
<ellipse fill="none" stroke="#844148" cx="456.851" cy="-145.74" rx="4.00002" ry="4.00002"/>
<polygon fill="#844148" stroke="#844148" points="516.9,-108.869 527.776,-107.471 521.161,-106.252 525.421,-103.636 525.421,-103.636 525.421,-103.636 521.161,-106.252 523.067,-99.8012 516.9,-108.869 516.9,-108.869"/>
</g>
<!-- Person&#45;&gt;Censo -->
<g id="edge7" class="edge"><title>Person&#45;&gt;Censo</title>
<path fill="none" stroke="#49a36b" d="M393.749,-150.782C356.375,-140.61 297.975,-124.216 248,-108 243.77,-106.628 239.35,-105.123 234.986,-103.595"/>
<ellipse fill="none" stroke="#49a36b" cx="397.995" cy="-151.933" rx="4.00001" ry="4.00001"/>
<ellipse fill="#49a36b" stroke="#49a36b" cx="231.012" cy="-102.182" rx="4.00001" ry="4.00001"/>
</g>
<!-- Residence -->
<g id="node16" class="node"><title>Residence</title>
<ellipse fill="none" stroke="black" cx="642" cy="-90" rx="46.5926" ry="18"/>
<text text-anchor="middle" x="642" y="-86.3" font-family="Times,serif" font-size="14.00">Residence</text>
</g>
<!-- Person&#45;&gt;Residence -->
<g id="edge3" class="edge"><title>Person&#45;&gt;Residence</title>
<path fill="none" stroke="#ea089b" d="M468.328,-148.891C504.944,-136.685 561.404,-117.865 599.939,-105.02"/>
<ellipse fill="none" stroke="#ea089b" cx="464.116" cy="-150.295" rx="4.00001" ry="4.00001"/>
<ellipse fill="#ea089b" stroke="#ea089b" cx="604.082" cy="-103.639" rx="4.00001" ry="4.00001"/>
</g>
<!-- User -->
<g id="node13" class="node"><title>User</title>
<ellipse fill="none" stroke="black" cx="432" cy="-255" rx="27.0966" ry="18"/>
<text text-anchor="middle" x="432" y="-251.3" font-family="Times,serif" font-size="14.00">User</text>
</g>
<!-- User&#45;&gt;Person -->
<g id="edge8" class="edge"><title>User&#45;&gt;Person</title>
<path fill="none" stroke="#683e9c" d="M432,-228.729C432,-216.118 432,-200.905 432,-188.292"/>
<ellipse fill="none" stroke="#683e9c" cx="432" cy="-232.884" rx="4" ry="4"/>
<ellipse fill="#683e9c" stroke="#683e9c" cx="432" cy="-184.04" rx="4" ry="4"/>
</g>
<!-- Contact -->
<g id="node14" class="node"><title>Contact</title>
<ellipse fill="none" stroke="black" cx="725" cy="-255" rx="38.1938" ry="18"/>
<text text-anchor="middle" x="725" y="-251.3" font-family="Times,serif" font-size="14.00">Contact</text>
</g>
<!-- Censo&#45;&gt;Opinion -->
<g id="edge9" class="edge"><title>Censo&#45;&gt;Opinion</title>
<path fill="none" stroke="#b24401" d="M186.463,-65.8736C181.804,-58.4603 176.637,-50.2407 171.948,-42.7813"/>
<ellipse fill="none" stroke="#b24401" cx="188.666" cy="-69.3781" rx="4.00002" ry="4.00002"/>
<ellipse fill="#b24401" stroke="#b24401" cx="169.584" cy="-39.02" rx="4.00002" ry="4.00002"/>
</g>
<!-- Censo&#45;&gt;Child -->
<g id="edge10" class="edge"><title>Censo&#45;&gt;Child</title>
<path fill="none" stroke="#cec215" d="M215.602,-65.7693C220.039,-58.7113 224.929,-50.9308 229.427,-43.7753"/>
<ellipse fill="none" stroke="#cec215" cx="213.334" cy="-69.3781" rx="4.00002" ry="4.00002"/>
<polygon fill="#cec215" stroke="#cec215" points="229.529,-43.6137 238.66,-37.5421 232.189,-39.3805 234.85,-35.1473 234.85,-35.1473 234.85,-35.1473 232.189,-39.3805 231.04,-32.7525 229.529,-43.6137 229.529,-43.6137"/>
</g>
</g>
</svg>
