<?xml version="1.0" encoding="UTF-8" standalone="no"?>
<!DOCTYPE svg PUBLIC "-//W3C//DTD SVG 1.1//EN"
 "http://www.w3.org/Graphics/SVG/1.1/DTD/svg11.dtd">
<!-- Generated by graphviz version 2.38.0 (20140413.2041)
 -->
<!-- Title: models_diagram Pages: 1 -->
<svg width="837pt" height="1159pt"
 viewBox="0.00 0.00 837.00 1159.00" xmlns="http://www.w3.org/2000/svg" xmlns:xlink="http://www.w3.org/1999/xlink">
<g id="graph0" class="graph" transform="scale(1 1) rotate(0) translate(4 1155)">
<title>models_diagram</title>
<polygon fill="none" stroke="none" points="-4,4 -4,-1155 833,-1155 833,4 -4,4"/>
<!-- _diagram_info -->
<g id="node1" class="node"><title>_diagram_info</title>
<text text-anchor="start" x="56.5" y="-1054.6" font-family="Times,serif" font-size="13.00">Models diagram</text>
<text text-anchor="start" x="56.5" y="-1040.6" font-family="Times,serif" font-size="13.00">Date: Sep 21 2017 &#45; 12:13</text>
<text text-anchor="start" x="56.5" y="-1026.6" font-family="Times,serif" font-size="13.00">Migration version: 20170921165236</text>
<text text-anchor="start" x="56.5" y="-1012.6" font-family="Times,serif" font-size="13.00">Generated by RailRoady 1.5.3</text>
<text text-anchor="start" x="56.5" y="-998.6" font-family="Times,serif" font-size="13.00">http://railroady.prestonlee.com</text>
</g>
<!-- Event -->
<g id="node2" class="node"><title>Event</title>
<path fill="none" stroke="black" d="M161,-428.5C161,-428.5 268,-428.5 268,-428.5 274,-428.5 280,-434.5 280,-440.5 280,-440.5 280,-567.5 280,-567.5 280,-573.5 274,-579.5 268,-579.5 268,-579.5 161,-579.5 161,-579.5 155,-579.5 149,-573.5 149,-567.5 149,-567.5 149,-440.5 149,-440.5 149,-434.5 155,-428.5 161,-428.5"/>
<text text-anchor="middle" x="214.5" y="-564.3" font-family="Times,serif" font-size="14.00">Event</text>
<polyline fill="none" stroke="black" points="149,-556.5 280,-556.5 "/>
<text text-anchor="start" x="157" y="-541.3" font-family="Times,serif" font-size="14.00">id :INTEGER</text>
<text text-anchor="start" x="157" y="-526.3" font-family="Times,serif" font-size="14.00">name :varchar</text>
<text text-anchor="start" x="157" y="-511.3" font-family="Times,serif" font-size="14.00">date :date</text>
<text text-anchor="start" x="157" y="-496.3" font-family="Times,serif" font-size="14.00">eventType :varchar</text>
<text text-anchor="start" x="157" y="-481.3" font-family="Times,serif" font-size="14.00">eventInfo :varchar</text>
<text text-anchor="start" x="157" y="-466.3" font-family="Times,serif" font-size="14.00">person_id :integer</text>
<text text-anchor="start" x="157" y="-451.3" font-family="Times,serif" font-size="14.00">created_at :datetime</text>
<text text-anchor="start" x="157" y="-436.3" font-family="Times,serif" font-size="14.00">updated_at :datetime</text>
</g>
<!-- Child -->
<g id="node3" class="node"><title>Child</title>
<path fill="none" stroke="black" d="M50,-120.5C50,-120.5 157,-120.5 157,-120.5 163,-120.5 169,-126.5 169,-132.5 169,-132.5 169,-244.5 169,-244.5 169,-250.5 163,-256.5 157,-256.5 157,-256.5 50,-256.5 50,-256.5 44,-256.5 38,-250.5 38,-244.5 38,-244.5 38,-132.5 38,-132.5 38,-126.5 44,-120.5 50,-120.5"/>
<text text-anchor="middle" x="103.5" y="-241.3" font-family="Times,serif" font-size="14.00">Child</text>
<polyline fill="none" stroke="black" points="38,-233.5 169,-233.5 "/>
<text text-anchor="start" x="46" y="-218.3" font-family="Times,serif" font-size="14.00">id :INTEGER</text>
<text text-anchor="start" x="46" y="-203.3" font-family="Times,serif" font-size="14.00">idChild :integer</text>
<text text-anchor="start" x="46" y="-188.3" font-family="Times,serif" font-size="14.00">name :varchar</text>
<text text-anchor="start" x="46" y="-173.3" font-family="Times,serif" font-size="14.00">age :integer</text>
<text text-anchor="start" x="46" y="-158.3" font-family="Times,serif" font-size="14.00">censo_id :integer</text>
<text text-anchor="start" x="46" y="-143.3" font-family="Times,serif" font-size="14.00">created_at :datetime</text>
<text text-anchor="start" x="46" y="-128.3" font-family="Times,serif" font-size="14.00">updated_at :datetime</text>
</g>
<!-- Censo -->
<g id="node4" class="node"><title>Censo</title>
<path fill="none" stroke="black" d="M310,-413.5C310,-413.5 451,-413.5 451,-413.5 457,-413.5 463,-419.5 463,-425.5 463,-425.5 463,-582.5 463,-582.5 463,-588.5 457,-594.5 451,-594.5 451,-594.5 310,-594.5 310,-594.5 304,-594.5 298,-588.5 298,-582.5 298,-582.5 298,-425.5 298,-425.5 298,-419.5 304,-413.5 310,-413.5"/>
<text text-anchor="middle" x="380.5" y="-579.3" font-family="Times,serif" font-size="14.00">Censo</text>
<polyline fill="none" stroke="black" points="298,-571.5 463,-571.5 "/>
<text text-anchor="start" x="306" y="-556.3" font-family="Times,serif" font-size="14.00">id :INTEGER</text>
<text text-anchor="start" x="306" y="-541.3" font-family="Times,serif" font-size="14.00">date :date</text>
<text text-anchor="start" x="306" y="-526.3" font-family="Times,serif" font-size="14.00">numberOfChildren :integer</text>
<text text-anchor="start" x="306" y="-511.3" font-family="Times,serif" font-size="14.00">originResguardo :varchar</text>
<text text-anchor="start" x="306" y="-496.3" font-family="Times,serif" font-size="14.00">levelStudies :varchar</text>
<text text-anchor="start" x="306" y="-481.3" font-family="Times,serif" font-size="14.00">profession :varchar</text>
<text text-anchor="start" x="306" y="-466.3" font-family="Times,serif" font-size="14.00">entry :varchar</text>
<text text-anchor="start" x="306" y="-451.3" font-family="Times,serif" font-size="14.00">person_id :integer</text>
<text text-anchor="start" x="306" y="-436.3" font-family="Times,serif" font-size="14.00">created_at :datetime</text>
<text text-anchor="start" x="306" y="-421.3" font-family="Times,serif" font-size="14.00">updated_at :datetime</text>
</g>
<!-- Censo&#45;&gt;Child -->
<g id="edge2" class="edge"><title>Censo&#45;&gt;Child</title>
<path fill="none" stroke="#ba5981" d="M291.099,-413.986C290.567,-413.654 290.034,-413.325 289.5,-413 245.198,-386.036 216.378,-412.426 178.5,-377 147.473,-347.982 129.015,-304.426 118.178,-266.597"/>
<ellipse fill="none" stroke="#ba5981" cx="294.627" cy="-416.302" rx="4.00002" ry="4.00002"/>
<polygon fill="#ba5981" stroke="#ba5981" points="118.085,-266.254 119.794,-255.422 116.769,-261.431 115.452,-256.607 115.452,-256.607 115.452,-256.607 116.769,-261.431 111.111,-257.792 118.085,-266.254 118.085,-266.254"/>
</g>
<!-- Opinion -->
<g id="node7" class="node"><title>Opinion</title>
<path fill="none" stroke="black" d="M199,-0.5C199,-0.5 372,-0.5 372,-0.5 378,-0.5 384,-6.5 384,-12.5 384,-12.5 384,-364.5 384,-364.5 384,-370.5 378,-376.5 372,-376.5 372,-376.5 199,-376.5 199,-376.5 193,-376.5 187,-370.5 187,-364.5 187,-364.5 187,-12.5 187,-12.5 187,-6.5 193,-0.5 199,-0.5"/>
<text text-anchor="middle" x="285.5" y="-361.3" font-family="Times,serif" font-size="14.00">Opinion</text>
<polyline fill="none" stroke="black" points="187,-353.5 384,-353.5 "/>
<text text-anchor="start" x="195" y="-338.3" font-family="Times,serif" font-size="14.00">id :INTEGER</text>
<text text-anchor="start" x="195" y="-323.3" font-family="Times,serif" font-size="14.00">idOpinion :integer</text>
<text text-anchor="start" x="195" y="-308.3" font-family="Times,serif" font-size="14.00">interest :text</text>
<text text-anchor="start" x="195" y="-293.3" font-family="Times,serif" font-size="14.00">socialOrganization :text</text>
<text text-anchor="start" x="195" y="-278.3" font-family="Times,serif" font-size="14.00">groupsParticipation :text</text>
<text text-anchor="start" x="195" y="-263.3" font-family="Times,serif" font-size="14.00">workGroupDecision :text</text>
<text text-anchor="start" x="195" y="-248.3" font-family="Times,serif" font-size="14.00">ideas :text</text>
<text text-anchor="start" x="195" y="-233.3" font-family="Times,serif" font-size="14.00">activitiesParticipatedBogota :text</text>
<text text-anchor="start" x="195" y="-218.3" font-family="Times,serif" font-size="14.00">whatIsParticipating :text</text>
<text text-anchor="start" x="195" y="-203.3" font-family="Times,serif" font-size="14.00">rightsMechanisms :text</text>
<text text-anchor="start" x="195" y="-188.3" font-family="Times,serif" font-size="14.00">districtParticipation :text</text>
<text text-anchor="start" x="195" y="-173.3" font-family="Times,serif" font-size="14.00">reasonParticipation :text</text>
<text text-anchor="start" x="195" y="-158.3" font-family="Times,serif" font-size="14.00">reasonNoParticipation :text</text>
<text text-anchor="start" x="195" y="-143.3" font-family="Times,serif" font-size="14.00">adviceOnParticipation :text</text>
<text text-anchor="start" x="195" y="-128.3" font-family="Times,serif" font-size="14.00">training :text</text>
<text text-anchor="start" x="195" y="-113.3" font-family="Times,serif" font-size="14.00">trainingTheme :text</text>
<text text-anchor="start" x="195" y="-98.3" font-family="Times,serif" font-size="14.00">cabildoTrust :text</text>
<text text-anchor="start" x="195" y="-83.3" font-family="Times,serif" font-size="14.00">trustLocalGovernment :text</text>
<text text-anchor="start" x="195" y="-68.3" font-family="Times,serif" font-size="14.00">trustNationalGovernment :text</text>
<text text-anchor="start" x="195" y="-53.3" font-family="Times,serif" font-size="14.00">trustONGfoundation :text</text>
<text text-anchor="start" x="195" y="-38.3" font-family="Times,serif" font-size="14.00">censo_id :integer</text>
<text text-anchor="start" x="195" y="-23.3" font-family="Times,serif" font-size="14.00">created_at :datetime</text>
<text text-anchor="start" x="195" y="-8.3" font-family="Times,serif" font-size="14.00">updated_at :datetime</text>
</g>
<!-- Censo&#45;&gt;Opinion -->
<g id="edge1" class="edge"><title>Censo&#45;&gt;Opinion</title>
<path fill="none" stroke="#519dd3" d="M350.931,-405.421C348.858,-398.582 346.732,-391.566 344.572,-384.439"/>
<ellipse fill="none" stroke="#519dd3" cx="352.117" cy="-409.335" rx="4.00001" ry="4.00001"/>
<ellipse fill="#519dd3" stroke="#519dd3" cx="343.376" cy="-380.492" rx="4.00001" ry="4.00001"/>
</g>
<!-- HealthService -->
<g id="node12" class="node"><title>HealthService</title>
<path fill="none" stroke="black" d="M414,-128C414,-128 539,-128 539,-128 545,-128 551,-134 551,-140 551,-140 551,-237 551,-237 551,-243 545,-249 539,-249 539,-249 414,-249 414,-249 408,-249 402,-243 402,-237 402,-237 402,-140 402,-140 402,-134 408,-128 414,-128"/>
<text text-anchor="middle" x="476.5" y="-233.8" font-family="Times,serif" font-size="14.00">HealthService</text>
<polyline fill="none" stroke="black" points="402,-226 551,-226 "/>
<text text-anchor="start" x="410" y="-210.8" font-family="Times,serif" font-size="14.00">id :INTEGER</text>
<text text-anchor="start" x="410" y="-195.8" font-family="Times,serif" font-size="14.00">idHealthService :integer</text>
<text text-anchor="start" x="410" y="-180.8" font-family="Times,serif" font-size="14.00">name :varchar</text>
<text text-anchor="start" x="410" y="-165.8" font-family="Times,serif" font-size="14.00">censo_id :integer</text>
<text text-anchor="start" x="410" y="-150.8" font-family="Times,serif" font-size="14.00">created_at :datetime</text>
<text text-anchor="start" x="410" y="-135.8" font-family="Times,serif" font-size="14.00">updated_at :datetime</text>
</g>
<!-- Censo&#45;&gt;HealthService -->
<g id="edge3" class="edge"><title>Censo&#45;&gt;HealthService</title>
<path fill="none" stroke="#b763ad" d="M404.094,-405.366C418.11,-357.101 435.788,-300.076 450.246,-256.76"/>
<ellipse fill="none" stroke="#b763ad" cx="402.95" cy="-409.321" rx="4.00001" ry="4.00001"/>
<ellipse fill="#b763ad" stroke="#b763ad" cx="451.541" cy="-252.903" rx="4.00001" ry="4.00001"/>
</g>
<!-- Contact -->
<g id="node5" class="node"><title>Contact</title>
<path fill="none" stroke="black" d="M511,-969.5C511,-969.5 618,-969.5 618,-969.5 624,-969.5 630,-975.5 630,-981.5 630,-981.5 630,-1078.5 630,-1078.5 630,-1084.5 624,-1090.5 618,-1090.5 618,-1090.5 511,-1090.5 511,-1090.5 505,-1090.5 499,-1084.5 499,-1078.5 499,-1078.5 499,-981.5 499,-981.5 499,-975.5 505,-969.5 511,-969.5"/>
<text text-anchor="middle" x="564.5" y="-1075.3" font-family="Times,serif" font-size="14.00">Contact</text>
<polyline fill="none" stroke="black" points="499,-1067.5 630,-1067.5 "/>
<text text-anchor="start" x="507" y="-1052.3" font-family="Times,serif" font-size="14.00">id :INTEGER</text>
<text text-anchor="start" x="507" y="-1037.3" font-family="Times,serif" font-size="14.00">name :varchar</text>
<text text-anchor="start" x="507" y="-1022.3" font-family="Times,serif" font-size="14.00">email :varchar</text>
<text text-anchor="start" x="507" y="-1007.3" font-family="Times,serif" font-size="14.00">message :text</text>
<text text-anchor="start" x="507" y="-992.3" font-family="Times,serif" font-size="14.00">created_at :datetime</text>
<text text-anchor="start" x="507" y="-977.3" font-family="Times,serif" font-size="14.00">updated_at :datetime</text>
</g>
<!-- Election -->
<g id="node6" class="node"><title>Election</title>
<path fill="none" stroke="black" d="M12,-684C12,-684 119,-684 119,-684 125,-684 131,-690 131,-696 131,-696 131,-808 131,-808 131,-814 125,-820 119,-820 119,-820 12,-820 12,-820 6,-820 0,-814 0,-808 0,-808 0,-696 0,-696 0,-690 6,-684 12,-684"/>
<text text-anchor="middle" x="65.5" y="-804.8" font-family="Times,serif" font-size="14.00">Election</text>
<polyline fill="none" stroke="black" points="0,-797 131,-797 "/>
<text text-anchor="start" x="8" y="-781.8" font-family="Times,serif" font-size="14.00">id :INTEGER</text>
<text text-anchor="start" x="8" y="-766.8" font-family="Times,serif" font-size="14.00">idElection :integer</text>
<text text-anchor="start" x="8" y="-751.8" font-family="Times,serif" font-size="14.00">date :date</text>
<text text-anchor="start" x="8" y="-736.8" font-family="Times,serif" font-size="14.00">winner :varchar</text>
<text text-anchor="start" x="8" y="-721.8" font-family="Times,serif" font-size="14.00">candidate_id :integer</text>
<text text-anchor="start" x="8" y="-706.8" font-family="Times,serif" font-size="14.00">created_at :datetime</text>
<text text-anchor="start" x="8" y="-691.8" font-family="Times,serif" font-size="14.00">updated_at :datetime</text>
</g>
<!-- Candidate -->
<g id="node9" class="node"><title>Candidate</title>
<path fill="none" stroke="black" d="M12,-443.5C12,-443.5 119,-443.5 119,-443.5 125,-443.5 131,-449.5 131,-455.5 131,-455.5 131,-552.5 131,-552.5 131,-558.5 125,-564.5 119,-564.5 119,-564.5 12,-564.5 12,-564.5 6,-564.5 0,-558.5 0,-552.5 0,-552.5 0,-455.5 0,-455.5 0,-449.5 6,-443.5 12,-443.5"/>
<text text-anchor="middle" x="65.5" y="-549.3" font-family="Times,serif" font-size="14.00">Candidate</text>
<polyline fill="none" stroke="black" points="0,-541.5 131,-541.5 "/>
<text text-anchor="start" x="8" y="-526.3" font-family="Times,serif" font-size="14.00">id :INTEGER</text>
<text text-anchor="start" x="8" y="-511.3" font-family="Times,serif" font-size="14.00">idCandidate :integer</text>
<text text-anchor="start" x="8" y="-496.3" font-family="Times,serif" font-size="14.00">votes :integer</text>
<text text-anchor="start" x="8" y="-481.3" font-family="Times,serif" font-size="14.00">person_id :integer</text>
<text text-anchor="start" x="8" y="-466.3" font-family="Times,serif" font-size="14.00">created_at :datetime</text>
<text text-anchor="start" x="8" y="-451.3" font-family="Times,serif" font-size="14.00">updated_at :datetime</text>
</g>
<!-- Election&#45;&gt;Candidate -->
<g id="edge4" class="edge"><title>Election&#45;&gt;Candidate</title>
<path fill="none" stroke="#3e60c6" d="M65.5,-675.345C65.5,-643.359 65.5,-606.332 65.5,-574.986"/>
<ellipse fill="none" stroke="#3e60c6" cx="65.5" cy="-679.779" rx="4" ry="4"/>
<polygon fill="#3e60c6" stroke="#3e60c6" points="65.5001,-574.589 70,-564.589 65.5,-569.589 65.5,-564.589 65.5,-564.589 65.5,-564.589 65.5,-569.589 61,-564.589 65.5001,-574.589 65.5001,-574.589"/>
</g>
<!-- ApplicationRecord -->
<g id="node8" class="node"><title>ApplicationRecord</title>
<ellipse fill="none" stroke="black" cx="725.5" cy="-1030" rx="77.1866" ry="18"/>
<text text-anchor="middle" x="725.5" y="-1026.3" font-family="Times,serif" font-size="14.00">ApplicationRecord</text>
</g>
<!-- Residence -->
<g id="node10" class="node"><title>Residence</title>
<path fill="none" stroke="black" d="M493.5,-413.5C493.5,-413.5 609.5,-413.5 609.5,-413.5 615.5,-413.5 621.5,-419.5 621.5,-425.5 621.5,-425.5 621.5,-582.5 621.5,-582.5 621.5,-588.5 615.5,-594.5 609.5,-594.5 609.5,-594.5 493.5,-594.5 493.5,-594.5 487.5,-594.5 481.5,-588.5 481.5,-582.5 481.5,-582.5 481.5,-425.5 481.5,-425.5 481.5,-419.5 487.5,-413.5 493.5,-413.5"/>
<text text-anchor="middle" x="551.5" y="-579.3" font-family="Times,serif" font-size="14.00">Residence</text>
<polyline fill="none" stroke="black" points="481.5,-571.5 621.5,-571.5 "/>
<text text-anchor="start" x="489.5" y="-556.3" font-family="Times,serif" font-size="14.00">id :INTEGER</text>
<text text-anchor="start" x="489.5" y="-541.3" font-family="Times,serif" font-size="14.00">address :text</text>
<text text-anchor="start" x="489.5" y="-526.3" font-family="Times,serif" font-size="14.00">phone :integer</text>
<text text-anchor="start" x="489.5" y="-511.3" font-family="Times,serif" font-size="14.00">neighborhood :varchar</text>
<text text-anchor="start" x="489.5" y="-496.3" font-family="Times,serif" font-size="14.00">locality :varchar</text>
<text text-anchor="start" x="489.5" y="-481.3" font-family="Times,serif" font-size="14.00">lat :float</text>
<text text-anchor="start" x="489.5" y="-466.3" font-family="Times,serif" font-size="14.00">long :float</text>
<text text-anchor="start" x="489.5" y="-451.3" font-family="Times,serif" font-size="14.00">person_id :integer</text>
<text text-anchor="start" x="489.5" y="-436.3" font-family="Times,serif" font-size="14.00">created_at :datetime</text>
<text text-anchor="start" x="489.5" y="-421.3" font-family="Times,serif" font-size="14.00">updated_at :datetime</text>
</g>
<!-- User -->
<g id="node11" class="node"><title>User</title>
<path fill="none" stroke="black" d="M292.5,-909.5C292.5,-909.5 468.5,-909.5 468.5,-909.5 474.5,-909.5 480.5,-915.5 480.5,-921.5 480.5,-921.5 480.5,-1138.5 480.5,-1138.5 480.5,-1144.5 474.5,-1150.5 468.5,-1150.5 468.5,-1150.5 292.5,-1150.5 292.5,-1150.5 286.5,-1150.5 280.5,-1144.5 280.5,-1138.5 280.5,-1138.5 280.5,-921.5 280.5,-921.5 280.5,-915.5 286.5,-909.5 292.5,-909.5"/>
<text text-anchor="middle" x="380.5" y="-1135.3" font-family="Times,serif" font-size="14.00">User</text>
<polyline fill="none" stroke="black" points="280.5,-1127.5 480.5,-1127.5 "/>
<text text-anchor="start" x="288.5" y="-1112.3" font-family="Times,serif" font-size="14.00">id :INTEGER</text>
<text text-anchor="start" x="288.5" y="-1097.3" font-family="Times,serif" font-size="14.00">email :varchar</text>
<text text-anchor="start" x="288.5" y="-1082.3" font-family="Times,serif" font-size="14.00">encrypted_password :varchar</text>
<text text-anchor="start" x="288.5" y="-1067.3" font-family="Times,serif" font-size="14.00">reset_password_token :varchar</text>
<text text-anchor="start" x="288.5" y="-1052.3" font-family="Times,serif" font-size="14.00">reset_password_sent_at :datetime</text>
<text text-anchor="start" x="288.5" y="-1037.3" font-family="Times,serif" font-size="14.00">remember_created_at :datetime</text>
<text text-anchor="start" x="288.5" y="-1022.3" font-family="Times,serif" font-size="14.00">sign_in_count :integer</text>
<text text-anchor="start" x="288.5" y="-1007.3" font-family="Times,serif" font-size="14.00">current_sign_in_at :datetime</text>
<text text-anchor="start" x="288.5" y="-992.3" font-family="Times,serif" font-size="14.00">last_sign_in_at :datetime</text>
<text text-anchor="start" x="288.5" y="-977.3" font-family="Times,serif" font-size="14.00">current_sign_in_ip :varchar</text>
<text text-anchor="start" x="288.5" y="-962.3" font-family="Times,serif" font-size="14.00">last_sign_in_ip :varchar</text>
<text text-anchor="start" x="288.5" y="-947.3" font-family="Times,serif" font-size="14.00">created_at :datetime</text>
<text text-anchor="start" x="288.5" y="-932.3" font-family="Times,serif" font-size="14.00">updated_at :datetime</text>
<text text-anchor="start" x="288.5" y="-917.3" font-family="Times,serif" font-size="14.00">admin :boolean</text>
</g>
<!-- Person -->
<g id="node14" class="node"><title>Person</title>
<path fill="none" stroke="black" d="M303,-631.5C303,-631.5 458,-631.5 458,-631.5 464,-631.5 470,-637.5 470,-643.5 470,-643.5 470,-860.5 470,-860.5 470,-866.5 464,-872.5 458,-872.5 458,-872.5 303,-872.5 303,-872.5 297,-872.5 291,-866.5 291,-860.5 291,-860.5 291,-643.5 291,-643.5 291,-637.5 297,-631.5 303,-631.5"/>
<text text-anchor="middle" x="380.5" y="-857.3" font-family="Times,serif" font-size="14.00">Person</text>
<polyline fill="none" stroke="black" points="291,-849.5 470,-849.5 "/>
<text text-anchor="start" x="299" y="-834.3" font-family="Times,serif" font-size="14.00">id :INTEGER</text>
<text text-anchor="start" x="299" y="-819.3" font-family="Times,serif" font-size="14.00">documentPerson :integer</text>
<text text-anchor="start" x="299" y="-804.3" font-family="Times,serif" font-size="14.00">documentType :varchar</text>
<text text-anchor="start" x="299" y="-789.3" font-family="Times,serif" font-size="14.00">name :varchar</text>
<text text-anchor="start" x="299" y="-774.3" font-family="Times,serif" font-size="14.00">lastname :varchar</text>
<text text-anchor="start" x="299" y="-759.3" font-family="Times,serif" font-size="14.00">birthDate :date</text>
<text text-anchor="start" x="299" y="-744.3" font-family="Times,serif" font-size="14.00">civilStatus :varchar</text>
<text text-anchor="start" x="299" y="-729.3" font-family="Times,serif" font-size="14.00">gender :varchar</text>
<text text-anchor="start" x="299" y="-714.3" font-family="Times,serif" font-size="14.00">isCensus :boolean</text>
<text text-anchor="start" x="299" y="-699.3" font-family="Times,serif" font-size="14.00">originLanguage :varchar</text>
<text text-anchor="start" x="299" y="-684.3" font-family="Times,serif" font-size="14.00">languageDomination :varchar</text>
<text text-anchor="start" x="299" y="-669.3" font-family="Times,serif" font-size="14.00">user_id :integer</text>
<text text-anchor="start" x="299" y="-654.3" font-family="Times,serif" font-size="14.00">created_at :datetime</text>
<text text-anchor="start" x="299" y="-639.3" font-family="Times,serif" font-size="14.00">updated_at :datetime</text>
</g>
<!-- User&#45;&gt;Person -->
<g id="edge5" class="edge"><title>User&#45;&gt;Person</title>
<path fill="none" stroke="#096225" d="M380.5,-900.915C380.5,-894.312 380.5,-887.68 380.5,-881.077"/>
<ellipse fill="none" stroke="#096225" cx="380.5" cy="-905.147" rx="4" ry="4"/>
<ellipse fill="#096225" stroke="#096225" cx="380.5" cy="-876.735" rx="4" ry="4"/>
</g>
<!-- HealthService&#45;&gt;Censo -->
<g id="edge6" class="edge"><title>HealthService&#45;&gt;Censo</title>
<path fill="none" stroke="#7025dd" d="M461.514,-256.93C449.604,-299.658 432.673,-355.677 417.311,-403.47"/>
<ellipse fill="none" stroke="#7025dd" cx="462.611" cy="-252.966" rx="4.00001" ry="4.00001"/>
<polygon fill="#7025dd" stroke="#7025dd" points="417.254,-403.648 409.898,-411.78 415.717,-408.406 414.18,-413.163 414.18,-413.163 414.18,-413.163 415.717,-408.406 418.463,-414.547 417.254,-403.648 417.254,-403.648"/>
</g>
<!-- Announcement -->
<g id="node13" class="node"><title>Announcement</title>
<path fill="none" stroke="black" d="M652,-421C652,-421 817,-421 817,-421 823,-421 829,-427 829,-433 829,-433 829,-575 829,-575 829,-581 823,-587 817,-587 817,-587 652,-587 652,-587 646,-587 640,-581 640,-575 640,-575 640,-433 640,-433 640,-427 646,-421 652,-421"/>
<text text-anchor="middle" x="734.5" y="-571.8" font-family="Times,serif" font-size="14.00">Announcement</text>
<polyline fill="none" stroke="black" points="640,-564 829,-564 "/>
<text text-anchor="start" x="648" y="-548.8" font-family="Times,serif" font-size="14.00">id :INTEGER</text>
<text text-anchor="start" x="648" y="-533.8" font-family="Times,serif" font-size="14.00">idAnnouncement :integer</text>
<text text-anchor="start" x="648" y="-518.8" font-family="Times,serif" font-size="14.00">publicationDate :date</text>
<text text-anchor="start" x="648" y="-503.8" font-family="Times,serif" font-size="14.00">deadline :date</text>
<text text-anchor="start" x="648" y="-488.8" font-family="Times,serif" font-size="14.00">announcementType :text</text>
<text text-anchor="start" x="648" y="-473.8" font-family="Times,serif" font-size="14.00">announcementInformation :text</text>
<text text-anchor="start" x="648" y="-458.8" font-family="Times,serif" font-size="14.00">person_id :integer</text>
<text text-anchor="start" x="648" y="-443.8" font-family="Times,serif" font-size="14.00">created_at :datetime</text>
<text text-anchor="start" x="648" y="-428.8" font-family="Times,serif" font-size="14.00">updated_at :datetime</text>
</g>
<!-- Person&#45;&gt;Event -->
<g id="edge9" class="edge"><title>Person&#45;&gt;Event</title>
<path fill="none" stroke="#96460d" d="M294.957,-624.231C286.672,-611.954 278.421,-599.727 270.535,-588.04"/>
<ellipse fill="none" stroke="#96460d" cx="297.451" cy="-627.927" rx="4.00002" ry="4.00002"/>
<polygon fill="#96460d" stroke="#96460d" points="270.455,-587.922 268.592,-577.115 267.658,-583.777 264.862,-579.632 264.862,-579.632 264.862,-579.632 267.658,-583.777 261.132,-582.15 270.455,-587.922 270.455,-587.922"/>
</g>
<!-- Person&#45;&gt;Censo -->
<g id="edge11" class="edge"><title>Person&#45;&gt;Censo</title>
<path fill="none" stroke="#30ab31" d="M380.5,-623.143C380.5,-616.366 380.5,-609.609 380.5,-602.954"/>
<ellipse fill="none" stroke="#30ab31" cx="380.5" cy="-627.243" rx="4" ry="4"/>
<ellipse fill="#30ab31" stroke="#30ab31" cx="380.5" cy="-598.586" rx="4" ry="4"/>
</g>
<!-- Person&#45;&gt;Candidate -->
<g id="edge8" class="edge"><title>Person&#45;&gt;Candidate</title>
<path fill="none" stroke="#4a1764" d="M283.819,-697.808C237.743,-670.181 183.273,-634.06 139.5,-595 131.321,-587.702 123.29,-579.461 115.709,-571.004"/>
<ellipse fill="none" stroke="#4a1764" cx="287.409" cy="-699.947" rx="4.00002" ry="4.00002"/>
<ellipse fill="#4a1764" stroke="#4a1764" cx="112.644" cy="-567.512" rx="4.00002" ry="4.00002"/>
</g>
<!-- Person&#45;&gt;Residence -->
<g id="edge7" class="edge"><title>Person&#45;&gt;Residence</title>
<path fill="none" stroke="#b7b79c" d="M468.371,-624.589C473.759,-616.838 479.134,-609.105 484.411,-601.514"/>
<ellipse fill="none" stroke="#b7b79c" cx="466.029" cy="-627.958" rx="4.00002" ry="4.00002"/>
<ellipse fill="#b7b79c" stroke="#b7b79c" cx="486.944" cy="-597.87" rx="4.00002" ry="4.00002"/>
</g>
<!-- Person&#45;&gt;Announcement -->
<g id="edge10" class="edge"><title>Person&#45;&gt;Announcement</title>
<path fill="none" stroke="#70f3c4" d="M476.973,-695.599C524.369,-667.188 581.648,-631.041 630.5,-595 631.257,-594.442 632.014,-593.88 632.773,-593.313"/>
<ellipse fill="none" stroke="#70f3c4" cx="473.487" cy="-697.682" rx="4.00002" ry="4.00002"/>
<polygon fill="#70f3c4" stroke="#70f3c4" points="632.975,-593.16 643.66,-590.695 636.957,-590.136 640.938,-587.112 640.938,-587.112 640.938,-587.112 636.957,-590.136 638.216,-583.528 632.975,-593.16 632.975,-593.16"/>
</g>
</g>
</svg>
