<?xml version="1.0" encoding="UTF-8" standalone="no"?>
<!DOCTYPE svg PUBLIC "-//W3C//DTD SVG 1.1//EN"
 "http://www.w3.org/Graphics/SVG/1.1/DTD/svg11.dtd">
<!-- Generated by graphviz version 2.38.0 (20140413.2041)
 -->
<!-- Title: models_diagram Pages: 1 -->
<svg width="985pt" height="302pt"
 viewBox="0.00 0.00 984.95 302.00" xmlns="http://www.w3.org/2000/svg" xmlns:xlink="http://www.w3.org/1999/xlink">
<g id="graph0" class="graph" transform="scale(1 1) rotate(0) translate(4 298)">
<title>models_diagram</title>
<polygon fill="none" stroke="none" points="-4,4 -4,-298 980.948,-298 980.948,4 -4,4"/>
<!-- _diagram_info -->
<g id="node1" class="node"><title>_diagram_info</title>
<text text-anchor="start" x="8" y="-279.6" font-family="Times,serif" font-size="13.00">Models diagram</text>
<text text-anchor="start" x="8" y="-265.6" font-family="Times,serif" font-size="13.00">Date: Nov 19 2017 &#45; 12:30</text>
<text text-anchor="start" x="8" y="-251.6" font-family="Times,serif" font-size="13.00">Migration version: 20171106222443</text>
<text text-anchor="start" x="8" y="-237.6" font-family="Times,serif" font-size="13.00">Generated by RailRoady 1.5.3</text>
<text text-anchor="start" x="8" y="-223.6" font-family="Times,serif" font-size="13.00">http://railroady.prestonlee.com</text>
</g>
<!-- ApplicationRecord -->
<g id="node2" class="node"><title>ApplicationRecord</title>
<ellipse fill="none" stroke="black" cx="309" cy="-255" rx="77.1866" ry="18"/>
<text text-anchor="middle" x="309" y="-251.3" font-family="Times,serif" font-size="14.00">ApplicationRecord</text>
</g>
<!-- HealthService -->
<g id="node3" class="node"><title>HealthService</title>
<ellipse fill="none" stroke="black" cx="139" cy="-162" rx="60.3893" ry="18"/>
<text text-anchor="middle" x="139" y="-158.3" font-family="Times,serif" font-size="14.00">HealthService</text>
</g>
<!-- Censo -->
<g id="node17" class="node"><title>Censo</title>
<ellipse fill="none" stroke="black" cx="150" cy="-90" rx="32.4942" ry="18"/>
<text text-anchor="middle" x="150" y="-86.3" font-family="Times,serif" font-size="14.00">Censo</text>
</g>
<!-- HealthService&#45;&gt;Censo -->
<g id="edge1" class="edge"><title>HealthService&#45;&gt;Censo</title>
<path fill="none" stroke="#72b705" d="M142.985,-135.64C143.884,-129.92 144.841,-123.828 145.751,-118.042"/>
<ellipse fill="none" stroke="#72b705" cx="142.34" cy="-139.745" rx="4.00001" ry="4.00001"/>
<polygon fill="#72b705" stroke="#72b705" points="145.76,-117.983 151.758,-108.803 146.536,-113.044 147.312,-108.104 147.312,-108.104 147.312,-108.104 146.536,-113.044 142.867,-107.406 145.76,-117.983 145.76,-117.983"/>
</g>
<!-- Election -->
<g id="node4" class="node"><title>Election</title>
<ellipse fill="none" stroke="black" cx="258" cy="-162" rx="40.0939" ry="18"/>
<text text-anchor="middle" x="258" y="-158.3" font-family="Times,serif" font-size="14.00">Election</text>
</g>
<!-- Candidate -->
<g id="node7" class="node"><title>Candidate</title>
<ellipse fill="none" stroke="black" cx="252" cy="-90" rx="46.2923" ry="18"/>
<text text-anchor="middle" x="252" y="-86.3" font-family="Times,serif" font-size="14.00">Candidate</text>
</g>
<!-- Election&#45;&gt;Candidate -->
<g id="edge2" class="edge"><title>Election&#45;&gt;Candidate</title>
<path fill="none" stroke="#b69f41" d="M255.826,-135.64C255.348,-130.063 254.84,-124.132 254.355,-118.476"/>
<ellipse fill="none" stroke="#b69f41" cx="256.175" cy="-139.711" rx="4" ry="4"/>
<polygon fill="#b69f41" stroke="#b69f41" points="254.32,-118.068 257.95,-107.72 253.893,-113.086 253.466,-108.104 253.466,-108.104 253.466,-108.104 253.893,-113.086 248.983,-108.489 254.32,-118.068 254.32,-118.068"/>
</g>
<!-- Certificate -->
<g id="node5" class="node"><title>Certificate</title>
<ellipse fill="none" stroke="black" cx="525" cy="-255" rx="48.1917" ry="18"/>
<text text-anchor="middle" x="525" y="-251.3" font-family="Times,serif" font-size="14.00">Certificate</text>
</g>
<!-- RequestCenso -->
<g id="node6" class="node"><title>RequestCenso</title>
<ellipse fill="none" stroke="black" cx="652" cy="-255" rx="61.1893" ry="18"/>
<text text-anchor="middle" x="652" y="-251.3" font-family="Times,serif" font-size="14.00">RequestCenso</text>
</g>
<!-- Announcement -->
<g id="node8" class="node"><title>Announcement</title>
<ellipse fill="none" stroke="black" cx="381" cy="-90" rx="64.9885" ry="18"/>
<text text-anchor="middle" x="381" y="-86.3" font-family="Times,serif" font-size="14.00">Announcement</text>
</g>
<!-- Statistic -->
<g id="node9" class="node"><title>Statistic</title>
<ellipse fill="none" stroke="black" cx="770" cy="-255" rx="38.9931" ry="18"/>
<text text-anchor="middle" x="770" y="-251.3" font-family="Times,serif" font-size="14.00">Statistic</text>
</g>
<!-- Opinion -->
<g id="node10" class="node"><title>Opinion</title>
<ellipse fill="none" stroke="black" cx="106" cy="-18" rx="39.7935" ry="18"/>
<text text-anchor="middle" x="106" y="-14.3" font-family="Times,serif" font-size="14.00">Opinion</text>
</g>
<!-- Child -->
<g id="node11" class="node"><title>Child</title>
<ellipse fill="none" stroke="black" cx="194" cy="-18" rx="30.5947" ry="18"/>
<text text-anchor="middle" x="194" y="-14.3" font-family="Times,serif" font-size="14.00">Child</text>
</g>
<!-- Person -->
<g id="node12" class="node"><title>Person</title>
<ellipse fill="none" stroke="black" cx="381" cy="-162" rx="34.394" ry="18"/>
<text text-anchor="middle" x="381" y="-158.3" font-family="Times,serif" font-size="14.00">Person</text>
</g>
<!-- Person&#45;&gt;Candidate -->
<g id="edge4" class="edge"><title>Person&#45;&gt;Candidate</title>
<path fill="none" stroke="#87e5bd" d="M350.756,-144.588C331.073,-133.908 305.395,-119.974 285.156,-108.992"/>
<ellipse fill="none" stroke="#87e5bd" cx="354.422" cy="-146.578" rx="4.00002" ry="4.00002"/>
<ellipse fill="#87e5bd" stroke="#87e5bd" cx="281.483" cy="-106.998" rx="4.00002" ry="4.00002"/>
</g>
<!-- Person&#45;&gt;Announcement -->
<g id="edge6" class="edge"><title>Person&#45;&gt;Announcement</title>
<path fill="none" stroke="#c37f11" d="M381,-135.64C381,-130.063 381,-124.132 381,-118.476"/>
<ellipse fill="none" stroke="#c37f11" cx="381" cy="-139.697" rx="4" ry="4"/>
<polygon fill="#c37f11" stroke="#c37f11" points="381,-118.104 385.5,-108.104 381,-113.104 381,-108.104 381,-108.104 381,-108.104 381,-113.104 376.5,-108.104 381,-118.104 381,-118.104"/>
</g>
<!-- Event -->
<g id="node13" class="node"><title>Event</title>
<ellipse fill="none" stroke="black" cx="495" cy="-90" rx="31.3957" ry="18"/>
<text text-anchor="middle" x="495" y="-86.3" font-family="Times,serif" font-size="14.00">Event</text>
</g>
<!-- Person&#45;&gt;Event -->
<g id="edge5" class="edge"><title>Person&#45;&gt;Event</title>
<path fill="none" stroke="#063799" d="M409.294,-143.627C426.502,-133.06 448.434,-119.593 465.803,-108.928"/>
<ellipse fill="none" stroke="#063799" cx="405.851" cy="-145.74" rx="4.00002" ry="4.00002"/>
<polygon fill="#063799" stroke="#063799" points="465.9,-108.869 476.776,-107.471 470.161,-106.252 474.421,-103.636 474.421,-103.636 474.421,-103.636 470.161,-106.252 472.067,-99.8012 465.9,-108.869 465.9,-108.869"/>
</g>
<!-- Person&#45;&gt;Censo -->
<g id="edge7" class="edge"><title>Person&#45;&gt;Censo</title>
<path fill="none" stroke="#0cc8cc" d="M342.749,-150.782C305.375,-140.61 246.975,-124.216 197,-108 192.77,-106.628 188.35,-105.123 183.986,-103.595"/>
<ellipse fill="none" stroke="#0cc8cc" cx="346.995" cy="-151.933" rx="4.00001" ry="4.00001"/>
<ellipse fill="#0cc8cc" stroke="#0cc8cc" cx="180.012" cy="-102.182" rx="4.00001" ry="4.00001"/>
</g>
<!-- Residence -->
<g id="node19" class="node"><title>Residence</title>
<ellipse fill="none" stroke="black" cx="591" cy="-90" rx="46.5926" ry="18"/>
<text text-anchor="middle" x="591" y="-86.3" font-family="Times,serif" font-size="14.00">Residence</text>
</g>
<!-- Person&#45;&gt;Residence -->
<g id="edge3" class="edge"><title>Person&#45;&gt;Residence</title>
<path fill="none" stroke="#d5e69d" d="M414.864,-147.359C417.943,-146.196 421.022,-145.06 424,-144 446.951,-135.832 506.56,-117.136 547.969,-104.285"/>
<ellipse fill="none" stroke="#d5e69d" cx="411.003" cy="-148.845" rx="4.00001" ry="4.00001"/>
<ellipse fill="#d5e69d" stroke="#d5e69d" cx="551.913" cy="-103.062" rx="4.00001" ry="4.00001"/>
</g>
<!-- User -->
<g id="node14" class="node"><title>User</title>
<ellipse fill="none" stroke="black" cx="432" cy="-255" rx="27.0966" ry="18"/>
<text text-anchor="middle" x="432" y="-251.3" font-family="Times,serif" font-size="14.00">User</text>
</g>
<!-- User&#45;&gt;Person -->
<g id="edge8" class="edge"><title>User&#45;&gt;Person</title>
<path fill="none" stroke="#454c58" d="M418.967,-230.745C411.38,-217.208 401.84,-200.185 394.221,-186.591"/>
<ellipse fill="none" stroke="#454c58" cx="420.927" cy="-234.242" rx="4.00002" ry="4.00002"/>
<ellipse fill="#454c58" stroke="#454c58" cx="392.166" cy="-182.924" rx="4.00002" ry="4.00002"/>
</g>
<!-- Newsletter -->
<g id="node18" class="node"><title>Newsletter</title>
<ellipse fill="none" stroke="black" cx="482" cy="-162" rx="48.9926" ry="18"/>
<text text-anchor="middle" x="482" y="-158.3" font-family="Times,serif" font-size="14.00">Newsletter</text>
</g>
<!-- User&#45;&gt;Newsletter -->
<g id="edge9" class="edge"><title>User&#45;&gt;Newsletter</title>
<path fill="none" stroke="#a7c7b4" d="M444.99,-230.359C452.01,-217.582 460.687,-201.79 467.875,-188.708"/>
<ellipse fill="none" stroke="#a7c7b4" cx="442.865" cy="-234.225" rx="4.00002" ry="4.00002"/>
<polygon fill="#a7c7b4" stroke="#a7c7b4" points="467.985,-188.508 476.744,-181.911 470.392,-184.126 472.8,-179.744 472.8,-179.744 472.8,-179.744 470.392,-184.126 468.856,-177.577 467.985,-188.508 467.985,-188.508"/>
</g>
<!-- Contact -->
<g id="node15" class="node"><title>Contact</title>
<ellipse fill="none" stroke="black" cx="865" cy="-255" rx="38.1938" ry="18"/>
<text text-anchor="middle" x="865" y="-251.3" font-family="Times,serif" font-size="14.00">Contact</text>
</g>
<!-- Vote -->
<g id="node16" class="node"><title>Vote</title>
<ellipse fill="none" stroke="black" cx="949" cy="-255" rx="27.8951" ry="18"/>
<text text-anchor="middle" x="949" y="-251.3" font-family="Times,serif" font-size="14.00">Vote</text>
</g>
<!-- Censo&#45;&gt;Opinion -->
<g id="edge10" class="edge"><title>Censo&#45;&gt;Opinion</title>
<path fill="none" stroke="#8fb5be" d="M135.463,-65.8736C130.804,-58.4603 125.637,-50.2407 120.948,-42.7813"/>
<ellipse fill="none" stroke="#8fb5be" cx="137.666" cy="-69.3781" rx="4.00002" ry="4.00002"/>
<ellipse fill="#8fb5be" stroke="#8fb5be" cx="118.584" cy="-39.02" rx="4.00002" ry="4.00002"/>
</g>
<!-- Censo&#45;&gt;Child -->
<g id="edge11" class="edge"><title>Censo&#45;&gt;Child</title>
<path fill="none" stroke="#4950a3" d="M164.602,-65.7693C169.039,-58.7113 173.929,-50.9308 178.427,-43.7753"/>
<ellipse fill="none" stroke="#4950a3" cx="162.334" cy="-69.3781" rx="4.00002" ry="4.00002"/>
<polygon fill="#4950a3" stroke="#4950a3" points="178.529,-43.6137 187.66,-37.5421 181.189,-39.3805 183.85,-35.1473 183.85,-35.1473 183.85,-35.1473 181.189,-39.3805 180.04,-32.7525 178.529,-43.6137 178.529,-43.6137"/>
</g>
</g>
</svg>
