<?xml version="1.0" encoding="UTF-8" standalone="no"?>
<!DOCTYPE svg PUBLIC "-//W3C//DTD SVG 1.1//EN"
 "http://www.w3.org/Graphics/SVG/1.1/DTD/svg11.dtd">
<!-- Generated by graphviz version 2.38.0 (20140413.2041)
 -->
<!-- Title: models_diagram Pages: 1 -->
<svg width="562pt" height="302pt"
 viewBox="0.00 0.00 562.34 302.00" xmlns="http://www.w3.org/2000/svg" xmlns:xlink="http://www.w3.org/1999/xlink">
<g id="graph0" class="graph" transform="scale(1 1) rotate(0) translate(4 298)">
<title>models_diagram</title>
<polygon fill="none" stroke="none" points="-4,4 -4,-298 558.343,-298 558.343,4 -4,4"/>
<!-- _diagram_info -->
<g id="node1" class="node"><title>_diagram_info</title>
<text text-anchor="start" x="8" y="-279.6" font-family="Times,serif" font-size="13.00">Models diagram</text>
<text text-anchor="start" x="8" y="-265.6" font-family="Times,serif" font-size="13.00">Date: Sep 21 2017 &#45; 12:13</text>
<text text-anchor="start" x="8" y="-251.6" font-family="Times,serif" font-size="13.00">Migration version: 20170921165236</text>
<text text-anchor="start" x="8" y="-237.6" font-family="Times,serif" font-size="13.00">Generated by RailRoady 1.5.3</text>
<text text-anchor="start" x="8" y="-223.6" font-family="Times,serif" font-size="13.00">http://railroady.prestonlee.com</text>
</g>
<!-- Event -->
<g id="node2" class="node"><title>Event</title>
<ellipse fill="none" stroke="black" cx="177" cy="-90" rx="31.3957" ry="18"/>
<text text-anchor="middle" x="177" y="-86.3" font-family="Times,serif" font-size="14.00">Event</text>
</g>
<!-- Child -->
<g id="node3" class="node"><title>Child</title>
<ellipse fill="none" stroke="black" cx="112" cy="-18" rx="30.5947" ry="18"/>
<text text-anchor="middle" x="112" y="-14.3" font-family="Times,serif" font-size="14.00">Child</text>
</g>
<!-- Censo -->
<g id="node4" class="node"><title>Censo</title>
<ellipse fill="none" stroke="black" cx="259" cy="-90" rx="32.4942" ry="18"/>
<text text-anchor="middle" x="259" y="-86.3" font-family="Times,serif" font-size="14.00">Censo</text>
</g>
<!-- Censo&#45;&gt;Child -->
<g id="edge2" class="edge"><title>Censo&#45;&gt;Child</title>
<path fill="none" stroke="#358d44" d="M227.558,-74.0274C203.017,-62.3415 169.049,-46.1661 144.294,-34.378"/>
<ellipse fill="none" stroke="#358d44" cx="231.443" cy="-75.8777" rx="4.00002" ry="4.00002"/>
<polygon fill="#358d44" stroke="#358d44" points="143.995,-34.2357 136.901,-25.8734 139.481,-32.086 134.966,-29.9363 134.966,-29.9363 134.966,-29.9363 139.481,-32.086 133.032,-33.9992 143.995,-34.2357 143.995,-34.2357"/>
</g>
<!-- Opinion -->
<g id="node7" class="node"><title>Opinion</title>
<ellipse fill="none" stroke="black" cx="200" cy="-18" rx="39.7935" ry="18"/>
<text text-anchor="middle" x="200" y="-14.3" font-family="Times,serif" font-size="14.00">Opinion</text>
</g>
<!-- Censo&#45;&gt;Opinion -->
<g id="edge1" class="edge"><title>Censo&#45;&gt;Opinion</title>
<path fill="none" stroke="#8500ab" d="M240.665,-67.2468C233.657,-58.9319 225.662,-49.4469 218.627,-41.1"/>
<ellipse fill="none" stroke="#8500ab" cx="243.328" cy="-70.4062" rx="4.00002" ry="4.00002"/>
<ellipse fill="#8500ab" stroke="#8500ab" cx="216.044" cy="-38.0357" rx="4.00002" ry="4.00002"/>
</g>
<!-- HealthService -->
<g id="node12" class="node"><title>HealthService</title>
<ellipse fill="none" stroke="black" cx="318" cy="-18" rx="60.3893" ry="18"/>
<text text-anchor="middle" x="318" y="-14.3" font-family="Times,serif" font-size="14.00">HealthService</text>
</g>
<!-- Censo&#45;&gt;HealthService -->
<g id="edge3" class="edge"><title>Censo&#45;&gt;HealthService</title>
<path fill="none" stroke="#0c94da" d="M272.148,-65.8123C278.204,-58.0548 285.492,-49.4202 292.502,-41.7002"/>
<ellipse fill="none" stroke="#0c94da" cx="269.56" cy="-69.2241" rx="4.00002" ry="4.00002"/>
<ellipse fill="#0c94da" stroke="#0c94da" cx="295.568" cy="-38.4002" rx="4.00002" ry="4.00002"/>
</g>
<!-- Contact -->
<g id="node5" class="node"><title>Contact</title>
<ellipse fill="none" stroke="black" cx="343" cy="-255" rx="38.1938" ry="18"/>
<text text-anchor="middle" x="343" y="-251.3" font-family="Times,serif" font-size="14.00">Contact</text>
</g>
<!-- Election -->
<g id="node6" class="node"><title>Election</title>
<ellipse fill="none" stroke="black" cx="82" cy="-162" rx="40.0939" ry="18"/>
<text text-anchor="middle" x="82" y="-158.3" font-family="Times,serif" font-size="14.00">Election</text>
</g>
<!-- Candidate -->
<g id="node9" class="node"><title>Candidate</title>
<ellipse fill="none" stroke="black" cx="82" cy="-90" rx="46.2923" ry="18"/>
<text text-anchor="middle" x="82" y="-86.3" font-family="Times,serif" font-size="14.00">Candidate</text>
</g>
<!-- Election&#45;&gt;Candidate -->
<g id="edge4" class="edge"><title>Election&#45;&gt;Candidate</title>
<path fill="none" stroke="#7ad361" d="M82,-135.64C82,-130.063 82,-124.132 82,-118.476"/>
<ellipse fill="none" stroke="#7ad361" cx="82" cy="-139.697" rx="4" ry="4"/>
<polygon fill="#7ad361" stroke="#7ad361" points="82.0001,-118.104 86.5,-108.104 82,-113.104 82,-108.104 82,-108.104 82,-108.104 82,-113.104 77.5,-108.104 82.0001,-118.104 82.0001,-118.104"/>
</g>
<!-- ApplicationRecord -->
<g id="node8" class="node"><title>ApplicationRecord</title>
<ellipse fill="none" stroke="black" cx="477" cy="-255" rx="77.1866" ry="18"/>
<text text-anchor="middle" x="477" y="-251.3" font-family="Times,serif" font-size="14.00">ApplicationRecord</text>
</g>
<!-- Residence -->
<g id="node10" class="node"><title>Residence</title>
<ellipse fill="none" stroke="black" cx="356" cy="-90" rx="46.5926" ry="18"/>
<text text-anchor="middle" x="356" y="-86.3" font-family="Times,serif" font-size="14.00">Residence</text>
</g>
<!-- User -->
<g id="node11" class="node"><title>User</title>
<ellipse fill="none" stroke="black" cx="259" cy="-255" rx="27.0966" ry="18"/>
<text text-anchor="middle" x="259" y="-251.3" font-family="Times,serif" font-size="14.00">User</text>
</g>
<!-- Person -->
<g id="node14" class="node"><title>Person</title>
<ellipse fill="none" stroke="black" cx="259" cy="-162" rx="34.394" ry="18"/>
<text text-anchor="middle" x="259" y="-158.3" font-family="Times,serif" font-size="14.00">Person</text>
</g>
<!-- User&#45;&gt;Person -->
<g id="edge5" class="edge"><title>User&#45;&gt;Person</title>
<path fill="none" stroke="#5a0b3c" d="M259,-228.729C259,-216.118 259,-200.905 259,-188.292"/>
<ellipse fill="none" stroke="#5a0b3c" cx="259" cy="-232.884" rx="4" ry="4"/>
<ellipse fill="#5a0b3c" stroke="#5a0b3c" cx="259" cy="-184.04" rx="4" ry="4"/>
</g>
<!-- HealthService&#45;&gt;Censo -->
<g id="edge6" class="edge"><title>HealthService&#45;&gt;Censo</title>
<path fill="none" stroke="#019c1b" d="M304.675,-42.4142C298.418,-50.4148 290.872,-59.3259 283.683,-67.1946"/>
<ellipse fill="none" stroke="#019c1b" cx="307.17" cy="-39.1342" rx="4.00002" ry="4.00002"/>
<polygon fill="#019c1b" stroke="#019c1b" points="283.668,-67.2108 273.539,-71.4133 280.243,-70.8534 276.818,-74.496 276.818,-74.496 276.818,-74.496 280.243,-70.8534 280.096,-77.5786 283.668,-67.2108 283.668,-67.2108"/>
</g>
<!-- Announcement -->
<g id="node13" class="node"><title>Announcement</title>
<ellipse fill="none" stroke="black" cx="486" cy="-90" rx="64.9885" ry="18"/>
<text text-anchor="middle" x="486" y="-86.3" font-family="Times,serif" font-size="14.00">Announcement</text>
</g>
<!-- Person&#45;&gt;Event -->
<g id="edge9" class="edge"><title>Person&#45;&gt;Event</title>
<path fill="none" stroke="#397a84" d="M235.356,-140.816C224.764,-131.774 212.277,-121.114 201.577,-111.98"/>
<ellipse fill="none" stroke="#397a84" cx="238.568" cy="-143.558" rx="4.00002" ry="4.00002"/>
<polygon fill="#397a84" stroke="#397a84" points="201.41,-111.838 196.726,-101.922 197.607,-108.591 193.804,-105.345 193.804,-105.345 193.804,-105.345 197.607,-108.591 190.882,-108.768 201.41,-111.838 201.41,-111.838"/>
</g>
<!-- Person&#45;&gt;Censo -->
<g id="edge11" class="edge"><title>Person&#45;&gt;Censo</title>
<path fill="none" stroke="#bb5874" d="M259,-135.64C259,-129.348 259,-122.605 259,-116.316"/>
<ellipse fill="none" stroke="#bb5874" cx="259" cy="-139.697" rx="4" ry="4"/>
<ellipse fill="#bb5874" stroke="#bb5874" cx="259" cy="-112.104" rx="4" ry="4"/>
</g>
<!-- Person&#45;&gt;Candidate -->
<g id="edge8" class="edge"><title>Person&#45;&gt;Candidate</title>
<path fill="none" stroke="#697dcd" d="M224.678,-147.426C194.943,-135.667 151.945,-118.662 120.933,-106.397"/>
<ellipse fill="none" stroke="#697dcd" cx="228.398" cy="-148.897" rx="4.00001" ry="4.00001"/>
<ellipse fill="#697dcd" stroke="#697dcd" cx="117.042" cy="-104.858" rx="4.00001" ry="4.00001"/>
</g>
<!-- Person&#45;&gt;Residence -->
<g id="edge7" class="edge"><title>Person&#45;&gt;Residence</title>
<path fill="none" stroke="#d2b1fd" d="M285.493,-141.882C298.774,-132.297 314.849,-120.697 328.294,-110.994"/>
<ellipse fill="none" stroke="#d2b1fd" cx="281.873" cy="-144.494" rx="4.00002" ry="4.00002"/>
<ellipse fill="#d2b1fd" stroke="#d2b1fd" cx="331.813" cy="-108.454" rx="4.00002" ry="4.00002"/>
</g>
<!-- Person&#45;&gt;Announcement -->
<g id="edge10" class="edge"><title>Person&#45;&gt;Announcement</title>
<path fill="none" stroke="#96ec76" d="M295.997,-149.591C333.612,-137.992 392.201,-119.925 434.375,-106.92"/>
<ellipse fill="none" stroke="#96ec76" cx="292.034" cy="-150.813" rx="4.00001" ry="4.00001"/>
<polygon fill="#96ec76" stroke="#96ec76" points="434.626,-106.842 445.508,-108.196 439.404,-105.369 444.182,-103.895 444.182,-103.895 444.182,-103.895 439.404,-105.369 442.856,-99.5953 434.626,-106.842 434.626,-106.842"/>
</g>
</g>
</svg>
