<?xml version="1.0" encoding="UTF-8" standalone="no"?>
<!DOCTYPE svg PUBLIC "-//W3C//DTD SVG 1.1//EN"
 "http://www.w3.org/Graphics/SVG/1.1/DTD/svg11.dtd">
<!-- Generated by graphviz version 2.38.0 (20140413.2041)
 -->
<!-- Title: models_diagram Pages: 1 -->
<svg width="576pt" height="302pt"
 viewBox="0.00 0.00 575.64 302.00" xmlns="http://www.w3.org/2000/svg" xmlns:xlink="http://www.w3.org/1999/xlink">
<g id="graph0" class="graph" transform="scale(1 1) rotate(0) translate(4 298)">
<title>models_diagram</title>
<polygon fill="none" stroke="none" points="-4,4 -4,-298 571.64,-298 571.64,4 -4,4"/>
<!-- _diagram_info -->
<g id="node1" class="node"><title>_diagram_info</title>
<text text-anchor="start" x="21.2964" y="-279.6" font-family="Times,serif" font-size="13.00">Models diagram</text>
<text text-anchor="start" x="21.2964" y="-265.6" font-family="Times,serif" font-size="13.00">Date: Sep 21 2017 &#45; 12:32</text>
<text text-anchor="start" x="21.2964" y="-251.6" font-family="Times,serif" font-size="13.00">Migration version: 20170921165236</text>
<text text-anchor="start" x="21.2964" y="-237.6" font-family="Times,serif" font-size="13.00">Generated by RailRoady 1.5.3</text>
<text text-anchor="start" x="21.2964" y="-223.6" font-family="Times,serif" font-size="13.00">http://railroady.prestonlee.com</text>
</g>
<!-- Person -->
<g id="node2" class="node"><title>Person</title>
<ellipse fill="none" stroke="black" cx="272.296" cy="-162" rx="34.394" ry="18"/>
<text text-anchor="middle" x="272.296" y="-158.3" font-family="Times,serif" font-size="14.00">Person</text>
</g>
<!-- Candidate -->
<g id="node5" class="node"><title>Candidate</title>
<ellipse fill="none" stroke="black" cx="51.2964" cy="-90" rx="46.2923" ry="18"/>
<text text-anchor="middle" x="51.2964" y="-86.3" font-family="Times,serif" font-size="14.00">Candidate</text>
</g>
<!-- Person&#45;&gt;Candidate -->
<g id="edge2" class="edge"><title>Person&#45;&gt;Candidate</title>
<path fill="none" stroke="#abbf25" d="M238.193,-147.525C234.861,-146.298 231.521,-145.104 228.296,-144 183.577,-128.691 131.695,-113.446 95.7123,-103.263"/>
<ellipse fill="none" stroke="#abbf25" cx="242.149" cy="-149.01" rx="4.00001" ry="4.00001"/>
<ellipse fill="#abbf25" stroke="#abbf25" cx="91.6811" cy="-102.127" rx="4.00001" ry="4.00001"/>
</g>
<!-- Censo -->
<g id="node7" class="node"><title>Censo</title>
<ellipse fill="none" stroke="black" cx="159.296" cy="-90" rx="32.4942" ry="18"/>
<text text-anchor="middle" x="159.296" y="-86.3" font-family="Times,serif" font-size="14.00">Censo</text>
</g>
<!-- Person&#45;&gt;Censo -->
<g id="edge5" class="edge"><title>Person&#45;&gt;Censo</title>
<path fill="none" stroke="#279dc8" d="M244.034,-143.492C226.653,-132.725 204.473,-118.985 187.165,-108.264"/>
<ellipse fill="none" stroke="#279dc8" cx="247.642" cy="-145.727" rx="4.00002" ry="4.00002"/>
<ellipse fill="#279dc8" stroke="#279dc8" cx="183.474" cy="-105.977" rx="4.00002" ry="4.00002"/>
</g>
<!-- Residence -->
<g id="node11" class="node"><title>Residence</title>
<ellipse fill="none" stroke="black" cx="256.296" cy="-90" rx="46.5926" ry="18"/>
<text text-anchor="middle" x="256.296" y="-86.3" font-family="Times,serif" font-size="14.00">Residence</text>
</g>
<!-- Person&#45;&gt;Residence -->
<g id="edge1" class="edge"><title>Person&#45;&gt;Residence</title>
<path fill="none" stroke="#dfe637" d="M266.579,-135.987C265.104,-129.532 263.515,-122.583 262.039,-116.123"/>
<ellipse fill="none" stroke="#dfe637" cx="267.532" cy="-140.156" rx="4.00001" ry="4.00001"/>
<ellipse fill="#dfe637" stroke="#dfe637" cx="261.136" cy="-112.175" rx="4.00001" ry="4.00001"/>
</g>
<!-- Event -->
<g id="node12" class="node"><title>Event</title>
<ellipse fill="none" stroke="black" cx="352.296" cy="-90" rx="31.3957" ry="18"/>
<text text-anchor="middle" x="352.296" y="-86.3" font-family="Times,serif" font-size="14.00">Event</text>
</g>
<!-- Person&#45;&gt;Event -->
<g id="edge3" class="edge"><title>Person&#45;&gt;Event</title>
<path fill="none" stroke="#1758f2" d="M295.363,-140.816C305.697,-131.774 317.88,-121.114 328.319,-111.98"/>
<ellipse fill="none" stroke="#1758f2" cx="292.273" cy="-143.521" rx="4.00002" ry="4.00002"/>
<polygon fill="#1758f2" stroke="#1758f2" points="328.376,-111.93 338.865,-108.732 332.139,-108.638 335.902,-105.345 335.902,-105.345 335.902,-105.345 332.139,-108.638 332.939,-101.958 328.376,-111.93 328.376,-111.93"/>
</g>
<!-- Announcement -->
<g id="node13" class="node"><title>Announcement</title>
<ellipse fill="none" stroke="black" cx="466.296" cy="-90" rx="64.9885" ry="18"/>
<text text-anchor="middle" x="466.296" y="-86.3" font-family="Times,serif" font-size="14.00">Announcement</text>
</g>
<!-- Person&#45;&gt;Announcement -->
<g id="edge4" class="edge"><title>Person&#45;&gt;Announcement</title>
<path fill="none" stroke="#186120" d="M307.946,-148.137C338.984,-136.937 384.239,-120.608 418.428,-108.272"/>
<ellipse fill="none" stroke="#186120" cx="303.854" cy="-149.613" rx="4.00001" ry="4.00001"/>
<polygon fill="#186120" stroke="#186120" points="418.799,-108.138 429.733,-108.977 423.502,-106.441 428.205,-104.744 428.205,-104.744 428.205,-104.744 423.502,-106.441 426.678,-100.511 418.799,-108.138 418.799,-108.138"/>
</g>
<!-- Opinion -->
<g id="node3" class="node"><title>Opinion</title>
<ellipse fill="none" stroke="black" cx="115.296" cy="-18" rx="39.7935" ry="18"/>
<text text-anchor="middle" x="115.296" y="-14.3" font-family="Times,serif" font-size="14.00">Opinion</text>
</g>
<!-- User -->
<g id="node4" class="node"><title>User</title>
<ellipse fill="none" stroke="black" cx="272.296" cy="-255" rx="27.0966" ry="18"/>
<text text-anchor="middle" x="272.296" y="-251.3" font-family="Times,serif" font-size="14.00">User</text>
</g>
<!-- User&#45;&gt;Person -->
<g id="edge6" class="edge"><title>User&#45;&gt;Person</title>
<path fill="none" stroke="#8e8d79" d="M272.296,-228.729C272.296,-216.118 272.296,-200.905 272.296,-188.292"/>
<ellipse fill="none" stroke="#8e8d79" cx="272.296" cy="-232.884" rx="4" ry="4"/>
<ellipse fill="#8e8d79" stroke="#8e8d79" cx="272.296" cy="-184.04" rx="4" ry="4"/>
</g>
<!-- Election -->
<g id="node6" class="node"><title>Election</title>
<ellipse fill="none" stroke="black" cx="40.2964" cy="-162" rx="40.0939" ry="18"/>
<text text-anchor="middle" x="40.2964" y="-158.3" font-family="Times,serif" font-size="14.00">Election</text>
</g>
<!-- Election&#45;&gt;Candidate -->
<g id="edge7" class="edge"><title>Election&#45;&gt;Candidate</title>
<path fill="none" stroke="#cb89e8" d="M44.2816,-135.64C45.1804,-129.92 46.1378,-123.828 47.047,-118.042"/>
<ellipse fill="none" stroke="#cb89e8" cx="43.6365" cy="-139.745" rx="4.00001" ry="4.00001"/>
<polygon fill="#cb89e8" stroke="#cb89e8" points="47.0561,-117.983 53.054,-108.803 47.8324,-113.044 48.6086,-108.104 48.6086,-108.104 48.6086,-108.104 47.8324,-113.044 44.1632,-107.406 47.0561,-117.983 47.0561,-117.983"/>
</g>
<!-- Censo&#45;&gt;Opinion -->
<g id="edge8" class="edge"><title>Censo&#45;&gt;Opinion</title>
<path fill="none" stroke="#65ba76" d="M144.76,-65.8736C140.1,-58.4603 134.933,-50.2407 130.245,-42.7813"/>
<ellipse fill="none" stroke="#65ba76" cx="146.963" cy="-69.3781" rx="4.00002" ry="4.00002"/>
<ellipse fill="#65ba76" stroke="#65ba76" cx="127.88" cy="-39.02" rx="4.00002" ry="4.00002"/>
</g>
<!-- Child -->
<g id="node14" class="node"><title>Child</title>
<ellipse fill="none" stroke="black" cx="203.296" cy="-18" rx="30.5947" ry="18"/>
<text text-anchor="middle" x="203.296" y="-14.3" font-family="Times,serif" font-size="14.00">Child</text>
</g>
<!-- Censo&#45;&gt;Child -->
<g id="edge9" class="edge"><title>Censo&#45;&gt;Child</title>
<path fill="none" stroke="#3b81f0" d="M173.899,-65.7693C178.335,-58.7113 183.226,-50.9308 187.723,-43.7753"/>
<ellipse fill="none" stroke="#3b81f0" cx="171.63" cy="-69.3781" rx="4.00002" ry="4.00002"/>
<polygon fill="#3b81f0" stroke="#3b81f0" points="187.825,-43.6137 196.957,-37.5421 190.486,-39.3805 193.147,-35.1473 193.147,-35.1473 193.147,-35.1473 190.486,-39.3805 189.337,-32.7525 187.825,-43.6137 187.825,-43.6137"/>
</g>
<!-- HealthService -->
<g id="node8" class="node"><title>HealthService</title>
<ellipse fill="none" stroke="black" cx="159.296" cy="-162" rx="60.3893" ry="18"/>
<text text-anchor="middle" x="159.296" y="-158.3" font-family="Times,serif" font-size="14.00">HealthService</text>
</g>
<!-- HealthService&#45;&gt;Censo -->
<g id="edge10" class="edge"><title>HealthService&#45;&gt;Censo</title>
<path fill="none" stroke="#26967c" d="M159.296,-135.64C159.296,-130.063 159.296,-124.132 159.296,-118.476"/>
<ellipse fill="none" stroke="#26967c" cx="159.296" cy="-139.697" rx="4" ry="4"/>
<polygon fill="#26967c" stroke="#26967c" points="159.297,-118.104 163.796,-108.104 159.296,-113.104 159.296,-108.104 159.296,-108.104 159.296,-108.104 159.296,-113.104 154.796,-108.104 159.297,-118.104 159.297,-118.104"/>
</g>
<!-- Contact -->
<g id="node9" class="node"><title>Contact</title>
<ellipse fill="none" stroke="black" cx="356.296" cy="-255" rx="38.1938" ry="18"/>
<text text-anchor="middle" x="356.296" y="-251.3" font-family="Times,serif" font-size="14.00">Contact</text>
</g>
<!-- ApplicationRecord -->
<g id="node10" class="node"><title>ApplicationRecord</title>
<ellipse fill="none" stroke="black" cx="490.296" cy="-255" rx="77.1866" ry="18"/>
<text text-anchor="middle" x="490.296" y="-251.3" font-family="Times,serif" font-size="14.00">ApplicationRecord</text>
</g>
</g>
</svg>
