<?xml version="1.0" encoding="UTF-8" standalone="no"?>
<!DOCTYPE svg PUBLIC "-//W3C//DTD SVG 1.1//EN"
 "http://www.w3.org/Graphics/SVG/1.1/DTD/svg11.dtd">
<!-- Generated by graphviz version 2.38.0 (20140413.2041)
 -->
<!-- Title: models_diagram Pages: 1 -->
<svg width="840pt" height="1159pt"
 viewBox="0.00 0.00 839.84 1159.00" xmlns="http://www.w3.org/2000/svg" xmlns:xlink="http://www.w3.org/1999/xlink">
<g id="graph0" class="graph" transform="scale(1 1) rotate(0) translate(4 1155)">
<title>models_diagram</title>
<polygon fill="none" stroke="none" points="-4,4 -4,-1155 835.843,-1155 835.843,4 -4,4"/>
<!-- _diagram_info -->
<g id="node1" class="node"><title>_diagram_info</title>
<text text-anchor="start" x="85.5" y="-1054.6" font-family="Times,serif" font-size="13.00">Models diagram</text>
<text text-anchor="start" x="85.5" y="-1040.6" font-family="Times,serif" font-size="13.00">Date: Sep 21 2017 &#45; 12:32</text>
<text text-anchor="start" x="85.5" y="-1026.6" font-family="Times,serif" font-size="13.00">Migration version: 20170921165236</text>
<text text-anchor="start" x="85.5" y="-1012.6" font-family="Times,serif" font-size="13.00">Generated by RailRoady 1.5.3</text>
<text text-anchor="start" x="85.5" y="-998.6" font-family="Times,serif" font-size="13.00">http://railroady.prestonlee.com</text>
</g>
<!-- Person -->
<g id="node2" class="node"><title>Person</title>
<path fill="none" stroke="black" d="M332,-631.5C332,-631.5 487,-631.5 487,-631.5 493,-631.5 499,-637.5 499,-643.5 499,-643.5 499,-860.5 499,-860.5 499,-866.5 493,-872.5 487,-872.5 487,-872.5 332,-872.5 332,-872.5 326,-872.5 320,-866.5 320,-860.5 320,-860.5 320,-643.5 320,-643.5 320,-637.5 326,-631.5 332,-631.5"/>
<text text-anchor="middle" x="409.5" y="-857.3" font-family="Times,serif" font-size="14.00">Person</text>
<polyline fill="none" stroke="black" points="320,-849.5 499,-849.5 "/>
<text text-anchor="start" x="328" y="-834.3" font-family="Times,serif" font-size="14.00">id :INTEGER</text>
<text text-anchor="start" x="328" y="-819.3" font-family="Times,serif" font-size="14.00">documentPerson :integer</text>
<text text-anchor="start" x="328" y="-804.3" font-family="Times,serif" font-size="14.00">documentType :varchar</text>
<text text-anchor="start" x="328" y="-789.3" font-family="Times,serif" font-size="14.00">name :varchar</text>
<text text-anchor="start" x="328" y="-774.3" font-family="Times,serif" font-size="14.00">lastname :varchar</text>
<text text-anchor="start" x="328" y="-759.3" font-family="Times,serif" font-size="14.00">birthDate :date</text>
<text text-anchor="start" x="328" y="-744.3" font-family="Times,serif" font-size="14.00">civilStatus :varchar</text>
<text text-anchor="start" x="328" y="-729.3" font-family="Times,serif" font-size="14.00">gender :varchar</text>
<text text-anchor="start" x="328" y="-714.3" font-family="Times,serif" font-size="14.00">isCensus :boolean</text>
<text text-anchor="start" x="328" y="-699.3" font-family="Times,serif" font-size="14.00">originLanguage :varchar</text>
<text text-anchor="start" x="328" y="-684.3" font-family="Times,serif" font-size="14.00">languageDomination :varchar</text>
<text text-anchor="start" x="328" y="-669.3" font-family="Times,serif" font-size="14.00">user_id :integer</text>
<text text-anchor="start" x="328" y="-654.3" font-family="Times,serif" font-size="14.00">created_at :datetime</text>
<text text-anchor="start" x="328" y="-639.3" font-family="Times,serif" font-size="14.00">updated_at :datetime</text>
</g>
<!-- Candidate -->
<g id="node5" class="node"><title>Candidate</title>
<path fill="none" stroke="black" d="M12,-443.5C12,-443.5 119,-443.5 119,-443.5 125,-443.5 131,-449.5 131,-455.5 131,-455.5 131,-552.5 131,-552.5 131,-558.5 125,-564.5 119,-564.5 119,-564.5 12,-564.5 12,-564.5 6,-564.5 0,-558.5 0,-552.5 0,-552.5 0,-455.5 0,-455.5 0,-449.5 6,-443.5 12,-443.5"/>
<text text-anchor="middle" x="65.5" y="-549.3" font-family="Times,serif" font-size="14.00">Candidate</text>
<polyline fill="none" stroke="black" points="0,-541.5 131,-541.5 "/>
<text text-anchor="start" x="8" y="-526.3" font-family="Times,serif" font-size="14.00">id :INTEGER</text>
<text text-anchor="start" x="8" y="-511.3" font-family="Times,serif" font-size="14.00">idCandidate :integer</text>
<text text-anchor="start" x="8" y="-496.3" font-family="Times,serif" font-size="14.00">votes :integer</text>
<text text-anchor="start" x="8" y="-481.3" font-family="Times,serif" font-size="14.00">person_id :integer</text>
<text text-anchor="start" x="8" y="-466.3" font-family="Times,serif" font-size="14.00">created_at :datetime</text>
<text text-anchor="start" x="8" y="-451.3" font-family="Times,serif" font-size="14.00">updated_at :datetime</text>
</g>
<!-- Person&#45;&gt;Candidate -->
<g id="edge2" class="edge"><title>Person&#45;&gt;Candidate</title>
<path fill="none" stroke="#b2e9d9" d="M312.829,-632.441C312.056,-631.952 311.28,-631.472 310.5,-631 244.055,-590.787 205.911,-635.268 139.5,-595 128.858,-588.547 119.057,-579.998 110.308,-570.733"/>
<ellipse fill="none" stroke="#b2e9d9" cx="316.373" cy="-634.819" rx="4.00002" ry="4.00002"/>
<ellipse fill="#b2e9d9" stroke="#b2e9d9" cx="107.398" cy="-567.52" rx="4.00002" ry="4.00002"/>
</g>
<!-- Censo -->
<g id="node7" class="node"><title>Censo</title>
<path fill="none" stroke="black" d="M161,-413.5C161,-413.5 302,-413.5 302,-413.5 308,-413.5 314,-419.5 314,-425.5 314,-425.5 314,-582.5 314,-582.5 314,-588.5 308,-594.5 302,-594.5 302,-594.5 161,-594.5 161,-594.5 155,-594.5 149,-588.5 149,-582.5 149,-582.5 149,-425.5 149,-425.5 149,-419.5 155,-413.5 161,-413.5"/>
<text text-anchor="middle" x="231.5" y="-579.3" font-family="Times,serif" font-size="14.00">Censo</text>
<polyline fill="none" stroke="black" points="149,-571.5 314,-571.5 "/>
<text text-anchor="start" x="157" y="-556.3" font-family="Times,serif" font-size="14.00">id :INTEGER</text>
<text text-anchor="start" x="157" y="-541.3" font-family="Times,serif" font-size="14.00">date :date</text>
<text text-anchor="start" x="157" y="-526.3" font-family="Times,serif" font-size="14.00">numberOfChildren :integer</text>
<text text-anchor="start" x="157" y="-511.3" font-family="Times,serif" font-size="14.00">originResguardo :varchar</text>
<text text-anchor="start" x="157" y="-496.3" font-family="Times,serif" font-size="14.00">levelStudies :varchar</text>
<text text-anchor="start" x="157" y="-481.3" font-family="Times,serif" font-size="14.00">profession :varchar</text>
<text text-anchor="start" x="157" y="-466.3" font-family="Times,serif" font-size="14.00">entry :varchar</text>
<text text-anchor="start" x="157" y="-451.3" font-family="Times,serif" font-size="14.00">person_id :integer</text>
<text text-anchor="start" x="157" y="-436.3" font-family="Times,serif" font-size="14.00">created_at :datetime</text>
<text text-anchor="start" x="157" y="-421.3" font-family="Times,serif" font-size="14.00">updated_at :datetime</text>
</g>
<!-- Person&#45;&gt;Censo -->
<g id="edge5" class="edge"><title>Person&#45;&gt;Censo</title>
<path fill="none" stroke="#3506b8" d="M318.032,-624.589C312.423,-616.838 306.828,-609.105 301.335,-601.514"/>
<ellipse fill="none" stroke="#3506b8" cx="320.502" cy="-628.002" rx="4.00002" ry="4.00002"/>
<ellipse fill="#3506b8" stroke="#3506b8" cx="298.667" cy="-597.826" rx="4.00002" ry="4.00002"/>
</g>
<!-- Residence -->
<g id="node11" class="node"><title>Residence</title>
<path fill="none" stroke="black" d="M344.5,-413.5C344.5,-413.5 460.5,-413.5 460.5,-413.5 466.5,-413.5 472.5,-419.5 472.5,-425.5 472.5,-425.5 472.5,-582.5 472.5,-582.5 472.5,-588.5 466.5,-594.5 460.5,-594.5 460.5,-594.5 344.5,-594.5 344.5,-594.5 338.5,-594.5 332.5,-588.5 332.5,-582.5 332.5,-582.5 332.5,-425.5 332.5,-425.5 332.5,-419.5 338.5,-413.5 344.5,-413.5"/>
<text text-anchor="middle" x="402.5" y="-579.3" font-family="Times,serif" font-size="14.00">Residence</text>
<polyline fill="none" stroke="black" points="332.5,-571.5 472.5,-571.5 "/>
<text text-anchor="start" x="340.5" y="-556.3" font-family="Times,serif" font-size="14.00">id :INTEGER</text>
<text text-anchor="start" x="340.5" y="-541.3" font-family="Times,serif" font-size="14.00">address :text</text>
<text text-anchor="start" x="340.5" y="-526.3" font-family="Times,serif" font-size="14.00">phone :integer</text>
<text text-anchor="start" x="340.5" y="-511.3" font-family="Times,serif" font-size="14.00">neighborhood :varchar</text>
<text text-anchor="start" x="340.5" y="-496.3" font-family="Times,serif" font-size="14.00">locality :varchar</text>
<text text-anchor="start" x="340.5" y="-481.3" font-family="Times,serif" font-size="14.00">lat :float</text>
<text text-anchor="start" x="340.5" y="-466.3" font-family="Times,serif" font-size="14.00">long :float</text>
<text text-anchor="start" x="340.5" y="-451.3" font-family="Times,serif" font-size="14.00">person_id :integer</text>
<text text-anchor="start" x="340.5" y="-436.3" font-family="Times,serif" font-size="14.00">created_at :datetime</text>
<text text-anchor="start" x="340.5" y="-421.3" font-family="Times,serif" font-size="14.00">updated_at :datetime</text>
</g>
<!-- Person&#45;&gt;Residence -->
<g id="edge1" class="edge"><title>Person&#45;&gt;Residence</title>
<path fill="none" stroke="#9ab3d1" d="M405.862,-623.143C405.669,-616.366 405.477,-609.609 405.287,-602.954"/>
<ellipse fill="none" stroke="#9ab3d1" cx="405.978" cy="-627.244" rx="4" ry="4"/>
<ellipse fill="#9ab3d1" stroke="#9ab3d1" cx="405.163" cy="-598.584" rx="4" ry="4"/>
</g>
<!-- Event -->
<g id="node12" class="node"><title>Event</title>
<path fill="none" stroke="black" d="M503,-428.5C503,-428.5 610,-428.5 610,-428.5 616,-428.5 622,-434.5 622,-440.5 622,-440.5 622,-567.5 622,-567.5 622,-573.5 616,-579.5 610,-579.5 610,-579.5 503,-579.5 503,-579.5 497,-579.5 491,-573.5 491,-567.5 491,-567.5 491,-440.5 491,-440.5 491,-434.5 497,-428.5 503,-428.5"/>
<text text-anchor="middle" x="556.5" y="-564.3" font-family="Times,serif" font-size="14.00">Event</text>
<polyline fill="none" stroke="black" points="491,-556.5 622,-556.5 "/>
<text text-anchor="start" x="499" y="-541.3" font-family="Times,serif" font-size="14.00">id :INTEGER</text>
<text text-anchor="start" x="499" y="-526.3" font-family="Times,serif" font-size="14.00">name :varchar</text>
<text text-anchor="start" x="499" y="-511.3" font-family="Times,serif" font-size="14.00">date :date</text>
<text text-anchor="start" x="499" y="-496.3" font-family="Times,serif" font-size="14.00">eventType :varchar</text>
<text text-anchor="start" x="499" y="-481.3" font-family="Times,serif" font-size="14.00">eventInfo :varchar</text>
<text text-anchor="start" x="499" y="-466.3" font-family="Times,serif" font-size="14.00">person_id :integer</text>
<text text-anchor="start" x="499" y="-451.3" font-family="Times,serif" font-size="14.00">created_at :datetime</text>
<text text-anchor="start" x="499" y="-436.3" font-family="Times,serif" font-size="14.00">updated_at :datetime</text>
</g>
<!-- Person&#45;&gt;Event -->
<g id="edge3" class="edge"><title>Person&#45;&gt;Event</title>
<path fill="none" stroke="#a9384c" d="M485.252,-624.231C492.517,-612.073 499.753,-599.964 506.675,-588.38"/>
<ellipse fill="none" stroke="#a9384c" cx="483.114" cy="-627.809" rx="4.00002" ry="4.00002"/>
<polygon fill="#a9384c" stroke="#a9384c" points="506.773,-588.217 515.765,-581.941 509.338,-583.924 511.903,-579.632 511.903,-579.632 511.903,-579.632 509.338,-583.924 508.04,-577.324 506.773,-588.217 506.773,-588.217"/>
</g>
<!-- Announcement -->
<g id="node13" class="node"><title>Announcement</title>
<path fill="none" stroke="black" d="M652,-421C652,-421 817,-421 817,-421 823,-421 829,-427 829,-433 829,-433 829,-575 829,-575 829,-581 823,-587 817,-587 817,-587 652,-587 652,-587 646,-587 640,-581 640,-575 640,-575 640,-433 640,-433 640,-427 646,-421 652,-421"/>
<text text-anchor="middle" x="734.5" y="-571.8" font-family="Times,serif" font-size="14.00">Announcement</text>
<polyline fill="none" stroke="black" points="640,-564 829,-564 "/>
<text text-anchor="start" x="648" y="-548.8" font-family="Times,serif" font-size="14.00">id :INTEGER</text>
<text text-anchor="start" x="648" y="-533.8" font-family="Times,serif" font-size="14.00">idAnnouncement :integer</text>
<text text-anchor="start" x="648" y="-518.8" font-family="Times,serif" font-size="14.00">publicationDate :date</text>
<text text-anchor="start" x="648" y="-503.8" font-family="Times,serif" font-size="14.00">deadline :date</text>
<text text-anchor="start" x="648" y="-488.8" font-family="Times,serif" font-size="14.00">announcementType :text</text>
<text text-anchor="start" x="648" y="-473.8" font-family="Times,serif" font-size="14.00">announcementInformation :text</text>
<text text-anchor="start" x="648" y="-458.8" font-family="Times,serif" font-size="14.00">person_id :integer</text>
<text text-anchor="start" x="648" y="-443.8" font-family="Times,serif" font-size="14.00">created_at :datetime</text>
<text text-anchor="start" x="648" y="-428.8" font-family="Times,serif" font-size="14.00">updated_at :datetime</text>
</g>
<!-- Person&#45;&gt;Announcement -->
<g id="edge4" class="edge"><title>Person&#45;&gt;Announcement</title>
<path fill="none" stroke="#2991f1" d="M505.912,-686.538C545.51,-659.222 591.388,-626.475 631.5,-595 632.113,-594.519 632.727,-594.036 633.342,-593.55"/>
<ellipse fill="none" stroke="#2991f1" cx="502.4" cy="-688.956" rx="4.00002" ry="4.00002"/>
<polygon fill="#2991f1" stroke="#2991f1" points="633.58,-593.36 644.201,-590.631 637.485,-590.238 641.391,-587.116 641.391,-587.116 641.391,-587.116 637.485,-590.238 638.581,-583.601 633.58,-593.36 633.58,-593.36"/>
</g>
<!-- Opinion -->
<g id="node3" class="node"><title>Opinion</title>
<path fill="none" stroke="black" d="M54,-0.5C54,-0.5 227,-0.5 227,-0.5 233,-0.5 239,-6.5 239,-12.5 239,-12.5 239,-364.5 239,-364.5 239,-370.5 233,-376.5 227,-376.5 227,-376.5 54,-376.5 54,-376.5 48,-376.5 42,-370.5 42,-364.5 42,-364.5 42,-12.5 42,-12.5 42,-6.5 48,-0.5 54,-0.5"/>
<text text-anchor="middle" x="140.5" y="-361.3" font-family="Times,serif" font-size="14.00">Opinion</text>
<polyline fill="none" stroke="black" points="42,-353.5 239,-353.5 "/>
<text text-anchor="start" x="50" y="-338.3" font-family="Times,serif" font-size="14.00">id :INTEGER</text>
<text text-anchor="start" x="50" y="-323.3" font-family="Times,serif" font-size="14.00">idOpinion :integer</text>
<text text-anchor="start" x="50" y="-308.3" font-family="Times,serif" font-size="14.00">interest :text</text>
<text text-anchor="start" x="50" y="-293.3" font-family="Times,serif" font-size="14.00">socialOrganization :text</text>
<text text-anchor="start" x="50" y="-278.3" font-family="Times,serif" font-size="14.00">groupsParticipation :text</text>
<text text-anchor="start" x="50" y="-263.3" font-family="Times,serif" font-size="14.00">workGroupDecision :text</text>
<text text-anchor="start" x="50" y="-248.3" font-family="Times,serif" font-size="14.00">ideas :text</text>
<text text-anchor="start" x="50" y="-233.3" font-family="Times,serif" font-size="14.00">activitiesParticipatedBogota :text</text>
<text text-anchor="start" x="50" y="-218.3" font-family="Times,serif" font-size="14.00">whatIsParticipating :text</text>
<text text-anchor="start" x="50" y="-203.3" font-family="Times,serif" font-size="14.00">rightsMechanisms :text</text>
<text text-anchor="start" x="50" y="-188.3" font-family="Times,serif" font-size="14.00">districtParticipation :text</text>
<text text-anchor="start" x="50" y="-173.3" font-family="Times,serif" font-size="14.00">reasonParticipation :text</text>
<text text-anchor="start" x="50" y="-158.3" font-family="Times,serif" font-size="14.00">reasonNoParticipation :text</text>
<text text-anchor="start" x="50" y="-143.3" font-family="Times,serif" font-size="14.00">adviceOnParticipation :text</text>
<text text-anchor="start" x="50" y="-128.3" font-family="Times,serif" font-size="14.00">training :text</text>
<text text-anchor="start" x="50" y="-113.3" font-family="Times,serif" font-size="14.00">trainingTheme :text</text>
<text text-anchor="start" x="50" y="-98.3" font-family="Times,serif" font-size="14.00">cabildoTrust :text</text>
<text text-anchor="start" x="50" y="-83.3" font-family="Times,serif" font-size="14.00">trustLocalGovernment :text</text>
<text text-anchor="start" x="50" y="-68.3" font-family="Times,serif" font-size="14.00">trustNationalGovernment :text</text>
<text text-anchor="start" x="50" y="-53.3" font-family="Times,serif" font-size="14.00">trustONGfoundation :text</text>
<text text-anchor="start" x="50" y="-38.3" font-family="Times,serif" font-size="14.00">censo_id :integer</text>
<text text-anchor="start" x="50" y="-23.3" font-family="Times,serif" font-size="14.00">created_at :datetime</text>
<text text-anchor="start" x="50" y="-8.3" font-family="Times,serif" font-size="14.00">updated_at :datetime</text>
</g>
<!-- User -->
<g id="node4" class="node"><title>User</title>
<path fill="none" stroke="black" d="M321.5,-909.5C321.5,-909.5 497.5,-909.5 497.5,-909.5 503.5,-909.5 509.5,-915.5 509.5,-921.5 509.5,-921.5 509.5,-1138.5 509.5,-1138.5 509.5,-1144.5 503.5,-1150.5 497.5,-1150.5 497.5,-1150.5 321.5,-1150.5 321.5,-1150.5 315.5,-1150.5 309.5,-1144.5 309.5,-1138.5 309.5,-1138.5 309.5,-921.5 309.5,-921.5 309.5,-915.5 315.5,-909.5 321.5,-909.5"/>
<text text-anchor="middle" x="409.5" y="-1135.3" font-family="Times,serif" font-size="14.00">User</text>
<polyline fill="none" stroke="black" points="309.5,-1127.5 509.5,-1127.5 "/>
<text text-anchor="start" x="317.5" y="-1112.3" font-family="Times,serif" font-size="14.00">id :INTEGER</text>
<text text-anchor="start" x="317.5" y="-1097.3" font-family="Times,serif" font-size="14.00">email :varchar</text>
<text text-anchor="start" x="317.5" y="-1082.3" font-family="Times,serif" font-size="14.00">encrypted_password :varchar</text>
<text text-anchor="start" x="317.5" y="-1067.3" font-family="Times,serif" font-size="14.00">reset_password_token :varchar</text>
<text text-anchor="start" x="317.5" y="-1052.3" font-family="Times,serif" font-size="14.00">reset_password_sent_at :datetime</text>
<text text-anchor="start" x="317.5" y="-1037.3" font-family="Times,serif" font-size="14.00">remember_created_at :datetime</text>
<text text-anchor="start" x="317.5" y="-1022.3" font-family="Times,serif" font-size="14.00">sign_in_count :integer</text>
<text text-anchor="start" x="317.5" y="-1007.3" font-family="Times,serif" font-size="14.00">current_sign_in_at :datetime</text>
<text text-anchor="start" x="317.5" y="-992.3" font-family="Times,serif" font-size="14.00">last_sign_in_at :datetime</text>
<text text-anchor="start" x="317.5" y="-977.3" font-family="Times,serif" font-size="14.00">current_sign_in_ip :varchar</text>
<text text-anchor="start" x="317.5" y="-962.3" font-family="Times,serif" font-size="14.00">last_sign_in_ip :varchar</text>
<text text-anchor="start" x="317.5" y="-947.3" font-family="Times,serif" font-size="14.00">created_at :datetime</text>
<text text-anchor="start" x="317.5" y="-932.3" font-family="Times,serif" font-size="14.00">updated_at :datetime</text>
<text text-anchor="start" x="317.5" y="-917.3" font-family="Times,serif" font-size="14.00">admin :boolean</text>
</g>
<!-- User&#45;&gt;Person -->
<g id="edge6" class="edge"><title>User&#45;&gt;Person</title>
<path fill="none" stroke="#2caf74" d="M409.5,-900.915C409.5,-894.312 409.5,-887.68 409.5,-881.077"/>
<ellipse fill="none" stroke="#2caf74" cx="409.5" cy="-905.147" rx="4" ry="4"/>
<ellipse fill="#2caf74" stroke="#2caf74" cx="409.5" cy="-876.735" rx="4" ry="4"/>
</g>
<!-- Election -->
<g id="node6" class="node"><title>Election</title>
<path fill="none" stroke="black" d="M12,-684C12,-684 119,-684 119,-684 125,-684 131,-690 131,-696 131,-696 131,-808 131,-808 131,-814 125,-820 119,-820 119,-820 12,-820 12,-820 6,-820 0,-814 0,-808 0,-808 0,-696 0,-696 0,-690 6,-684 12,-684"/>
<text text-anchor="middle" x="65.5" y="-804.8" font-family="Times,serif" font-size="14.00">Election</text>
<polyline fill="none" stroke="black" points="0,-797 131,-797 "/>
<text text-anchor="start" x="8" y="-781.8" font-family="Times,serif" font-size="14.00">id :INTEGER</text>
<text text-anchor="start" x="8" y="-766.8" font-family="Times,serif" font-size="14.00">idElection :integer</text>
<text text-anchor="start" x="8" y="-751.8" font-family="Times,serif" font-size="14.00">date :date</text>
<text text-anchor="start" x="8" y="-736.8" font-family="Times,serif" font-size="14.00">winner :varchar</text>
<text text-anchor="start" x="8" y="-721.8" font-family="Times,serif" font-size="14.00">candidate_id :integer</text>
<text text-anchor="start" x="8" y="-706.8" font-family="Times,serif" font-size="14.00">created_at :datetime</text>
<text text-anchor="start" x="8" y="-691.8" font-family="Times,serif" font-size="14.00">updated_at :datetime</text>
</g>
<!-- Election&#45;&gt;Candidate -->
<g id="edge7" class="edge"><title>Election&#45;&gt;Candidate</title>
<path fill="none" stroke="#97655c" d="M65.5,-675.345C65.5,-643.359 65.5,-606.332 65.5,-574.986"/>
<ellipse fill="none" stroke="#97655c" cx="65.5" cy="-679.779" rx="4" ry="4"/>
<polygon fill="#97655c" stroke="#97655c" points="65.5001,-574.589 70,-564.589 65.5,-569.589 65.5,-564.589 65.5,-564.589 65.5,-564.589 65.5,-569.589 61,-564.589 65.5001,-574.589 65.5001,-574.589"/>
</g>
<!-- Censo&#45;&gt;Opinion -->
<g id="edge8" class="edge"><title>Censo&#45;&gt;Opinion</title>
<path fill="none" stroke="#9ed6cc" d="M203.176,-405.421C201.19,-398.582 199.154,-391.566 197.085,-384.439"/>
<ellipse fill="none" stroke="#9ed6cc" cx="204.308" cy="-409.322" rx="4.00001" ry="4.00001"/>
<ellipse fill="#9ed6cc" stroke="#9ed6cc" cx="195.943" cy="-380.505" rx="4.00001" ry="4.00001"/>
</g>
<!-- Child -->
<g id="node14" class="node"><title>Child</title>
<path fill="none" stroke="black" d="M269,-120.5C269,-120.5 376,-120.5 376,-120.5 382,-120.5 388,-126.5 388,-132.5 388,-132.5 388,-244.5 388,-244.5 388,-250.5 382,-256.5 376,-256.5 376,-256.5 269,-256.5 269,-256.5 263,-256.5 257,-250.5 257,-244.5 257,-244.5 257,-132.5 257,-132.5 257,-126.5 263,-120.5 269,-120.5"/>
<text text-anchor="middle" x="322.5" y="-241.3" font-family="Times,serif" font-size="14.00">Child</text>
<polyline fill="none" stroke="black" points="257,-233.5 388,-233.5 "/>
<text text-anchor="start" x="265" y="-218.3" font-family="Times,serif" font-size="14.00">id :INTEGER</text>
<text text-anchor="start" x="265" y="-203.3" font-family="Times,serif" font-size="14.00">idChild :integer</text>
<text text-anchor="start" x="265" y="-188.3" font-family="Times,serif" font-size="14.00">name :varchar</text>
<text text-anchor="start" x="265" y="-173.3" font-family="Times,serif" font-size="14.00">age :integer</text>
<text text-anchor="start" x="265" y="-158.3" font-family="Times,serif" font-size="14.00">censo_id :integer</text>
<text text-anchor="start" x="265" y="-143.3" font-family="Times,serif" font-size="14.00">created_at :datetime</text>
<text text-anchor="start" x="265" y="-128.3" font-family="Times,serif" font-size="14.00">updated_at :datetime</text>
</g>
<!-- Censo&#45;&gt;Child -->
<g id="edge9" class="edge"><title>Censo&#45;&gt;Child</title>
<path fill="none" stroke="#eac404" d="M259.888,-405.203C272.832,-360.608 287.94,-308.561 300.072,-266.766"/>
<ellipse fill="none" stroke="#eac404" cx="258.692" cy="-409.322" rx="4.00001" ry="4.00001"/>
<polygon fill="#eac404" stroke="#eac404" points="300.142,-266.524 307.251,-258.175 301.536,-261.722 302.93,-256.921 302.93,-256.921 302.93,-256.921 301.536,-261.722 298.608,-255.666 300.142,-266.524 300.142,-266.524"/>
</g>
<!-- HealthService -->
<g id="node8" class="node"><title>HealthService</title>
<path fill="none" stroke="black" d="M165,-691.5C165,-691.5 290,-691.5 290,-691.5 296,-691.5 302,-697.5 302,-703.5 302,-703.5 302,-800.5 302,-800.5 302,-806.5 296,-812.5 290,-812.5 290,-812.5 165,-812.5 165,-812.5 159,-812.5 153,-806.5 153,-800.5 153,-800.5 153,-703.5 153,-703.5 153,-697.5 159,-691.5 165,-691.5"/>
<text text-anchor="middle" x="227.5" y="-797.3" font-family="Times,serif" font-size="14.00">HealthService</text>
<polyline fill="none" stroke="black" points="153,-789.5 302,-789.5 "/>
<text text-anchor="start" x="161" y="-774.3" font-family="Times,serif" font-size="14.00">id :INTEGER</text>
<text text-anchor="start" x="161" y="-759.3" font-family="Times,serif" font-size="14.00">idHealthService :integer</text>
<text text-anchor="start" x="161" y="-744.3" font-family="Times,serif" font-size="14.00">name :varchar</text>
<text text-anchor="start" x="161" y="-729.3" font-family="Times,serif" font-size="14.00">censo_id :integer</text>
<text text-anchor="start" x="161" y="-714.3" font-family="Times,serif" font-size="14.00">created_at :datetime</text>
<text text-anchor="start" x="161" y="-699.3" font-family="Times,serif" font-size="14.00">updated_at :datetime</text>
</g>
<!-- HealthService&#45;&gt;Censo -->
<g id="edge10" class="edge"><title>HealthService&#45;&gt;Censo</title>
<path fill="none" stroke="#64bd84" d="M228.604,-683.129C228.997,-658.91 229.45,-631.097 229.878,-604.759"/>
<ellipse fill="none" stroke="#64bd84" cx="228.533" cy="-687.451" rx="4" ry="4"/>
<polygon fill="#64bd84" stroke="#64bd84" points="229.878,-604.746 234.54,-594.82 229.959,-599.746 230.041,-594.747 230.041,-594.747 230.041,-594.747 229.959,-599.746 225.541,-594.674 229.878,-604.746 229.878,-604.746"/>
</g>
<!-- Contact -->
<g id="node9" class="node"><title>Contact</title>
<path fill="none" stroke="black" d="M540,-969.5C540,-969.5 647,-969.5 647,-969.5 653,-969.5 659,-975.5 659,-981.5 659,-981.5 659,-1078.5 659,-1078.5 659,-1084.5 653,-1090.5 647,-1090.5 647,-1090.5 540,-1090.5 540,-1090.5 534,-1090.5 528,-1084.5 528,-1078.5 528,-1078.5 528,-981.5 528,-981.5 528,-975.5 534,-969.5 540,-969.5"/>
<text text-anchor="middle" x="593.5" y="-1075.3" font-family="Times,serif" font-size="14.00">Contact</text>
<polyline fill="none" stroke="black" points="528,-1067.5 659,-1067.5 "/>
<text text-anchor="start" x="536" y="-1052.3" font-family="Times,serif" font-size="14.00">id :INTEGER</text>
<text text-anchor="start" x="536" y="-1037.3" font-family="Times,serif" font-size="14.00">name :varchar</text>
<text text-anchor="start" x="536" y="-1022.3" font-family="Times,serif" font-size="14.00">email :varchar</text>
<text text-anchor="start" x="536" y="-1007.3" font-family="Times,serif" font-size="14.00">message :text</text>
<text text-anchor="start" x="536" y="-992.3" font-family="Times,serif" font-size="14.00">created_at :datetime</text>
<text text-anchor="start" x="536" y="-977.3" font-family="Times,serif" font-size="14.00">updated_at :datetime</text>
</g>
<!-- ApplicationRecord -->
<g id="node10" class="node"><title>ApplicationRecord</title>
<ellipse fill="none" stroke="black" cx="754.5" cy="-1030" rx="77.1866" ry="18"/>
<text text-anchor="middle" x="754.5" y="-1026.3" font-family="Times,serif" font-size="14.00">ApplicationRecord</text>
</g>
</g>
</svg>
