<?xml version="1.0" encoding="UTF-8" standalone="no"?>
<!DOCTYPE svg PUBLIC "-//W3C//DTD SVG 1.1//EN"
 "http://www.w3.org/Graphics/SVG/1.1/DTD/svg11.dtd">
<!-- Generated by graphviz version 2.38.0 (20140413.2041)
 -->
<!-- Title: models_diagram Pages: 1 -->
<svg width="1527pt" height="1219pt"
 viewBox="0.00 0.00 1527.00 1219.00" xmlns="http://www.w3.org/2000/svg" xmlns:xlink="http://www.w3.org/1999/xlink">
<g id="graph0" class="graph" transform="scale(1 1) rotate(0) translate(4 1215)">
<title>models_diagram</title>
<polygon fill="none" stroke="none" points="-4,4 -4,-1215 1523,-1215 1523,4 -4,4"/>
<!-- _diagram_info -->
<g id="node1" class="node"><title>_diagram_info</title>
<text text-anchor="start" x="124.5" y="-1084.6" font-family="Times,serif" font-size="13.00">Models diagram</text>
<text text-anchor="start" x="124.5" y="-1070.6" font-family="Times,serif" font-size="13.00">Date: Nov 19 2017 &#45; 12:30</text>
<text text-anchor="start" x="124.5" y="-1056.6" font-family="Times,serif" font-size="13.00">Migration version: 20171106222443</text>
<text text-anchor="start" x="124.5" y="-1042.6" font-family="Times,serif" font-size="13.00">Generated by RailRoady 1.5.3</text>
<text text-anchor="start" x="124.5" y="-1028.6" font-family="Times,serif" font-size="13.00">http://railroady.prestonlee.com</text>
</g>
<!-- ApplicationRecord -->
<g id="node2" class="node"><title>ApplicationRecord</title>
<ellipse fill="none" stroke="black" cx="425.5" cy="-1060" rx="77.1866" ry="18"/>
<text text-anchor="middle" x="425.5" y="-1056.3" font-family="Times,serif" font-size="14.00">ApplicationRecord</text>
</g>
<!-- HealthService -->
<g id="node3" class="node"><title>HealthService</title>
<path fill="none" stroke="black" d="M136,-699C136,-699 243,-699 243,-699 249,-699 255,-705 255,-711 255,-711 255,-793 255,-793 255,-799 249,-805 243,-805 243,-805 136,-805 136,-805 130,-805 124,-799 124,-793 124,-793 124,-711 124,-711 124,-705 130,-699 136,-699"/>
<text text-anchor="middle" x="189.5" y="-789.8" font-family="Times,serif" font-size="14.00">HealthService</text>
<polyline fill="none" stroke="black" points="124,-782 255,-782 "/>
<text text-anchor="start" x="132" y="-766.8" font-family="Times,serif" font-size="14.00">id :INTEGER</text>
<text text-anchor="start" x="132" y="-751.8" font-family="Times,serif" font-size="14.00">name :varchar</text>
<text text-anchor="start" x="132" y="-736.8" font-family="Times,serif" font-size="14.00">censo_id :integer</text>
<text text-anchor="start" x="132" y="-721.8" font-family="Times,serif" font-size="14.00">created_at :datetime</text>
<text text-anchor="start" x="132" y="-706.8" font-family="Times,serif" font-size="14.00">updated_at :datetime</text>
</g>
<!-- Censo -->
<g id="node17" class="node"><title>Censo</title>
<path fill="none" stroke="black" d="M119,-398.5C119,-398.5 260,-398.5 260,-398.5 266,-398.5 272,-404.5 272,-410.5 272,-410.5 272,-582.5 272,-582.5 272,-588.5 266,-594.5 260,-594.5 260,-594.5 119,-594.5 119,-594.5 113,-594.5 107,-588.5 107,-582.5 107,-582.5 107,-410.5 107,-410.5 107,-404.5 113,-398.5 119,-398.5"/>
<text text-anchor="middle" x="189.5" y="-579.3" font-family="Times,serif" font-size="14.00">Censo</text>
<polyline fill="none" stroke="black" points="107,-571.5 272,-571.5 "/>
<text text-anchor="start" x="115" y="-556.3" font-family="Times,serif" font-size="14.00">id :INTEGER</text>
<text text-anchor="start" x="115" y="-541.3" font-family="Times,serif" font-size="14.00">date :date</text>
<text text-anchor="start" x="115" y="-526.3" font-family="Times,serif" font-size="14.00">numberOfChildren :integer</text>
<text text-anchor="start" x="115" y="-511.3" font-family="Times,serif" font-size="14.00">originResguardo :varchar</text>
<text text-anchor="start" x="115" y="-496.3" font-family="Times,serif" font-size="14.00">levelStudies :varchar</text>
<text text-anchor="start" x="115" y="-481.3" font-family="Times,serif" font-size="14.00">profession :varchar</text>
<text text-anchor="start" x="115" y="-466.3" font-family="Times,serif" font-size="14.00">entry :varchar</text>
<text text-anchor="start" x="115" y="-451.3" font-family="Times,serif" font-size="14.00">person_id :integer</text>
<text text-anchor="start" x="115" y="-436.3" font-family="Times,serif" font-size="14.00">created_at :datetime</text>
<text text-anchor="start" x="115" y="-421.3" font-family="Times,serif" font-size="14.00">updated_at :datetime</text>
<text text-anchor="start" x="115" y="-406.3" font-family="Times,serif" font-size="14.00">health_service_id :integer</text>
</g>
<!-- HealthService&#45;&gt;Censo -->
<g id="edge1" class="edge"><title>HealthService&#45;&gt;Censo</title>
<path fill="none" stroke="#978c34" d="M189.5,-690.495C189.5,-664.882 189.5,-634.25 189.5,-605.015"/>
<ellipse fill="none" stroke="#978c34" cx="189.5" cy="-694.782" rx="4" ry="4"/>
<polygon fill="#978c34" stroke="#978c34" points="189.5,-604.743 194,-594.743 189.5,-599.743 189.5,-594.743 189.5,-594.743 189.5,-594.743 189.5,-599.743 185,-594.743 189.5,-604.743 189.5,-604.743"/>
</g>
<!-- Election -->
<g id="node4" class="node"><title>Election</title>
<path fill="none" stroke="black" d="M302,-691.5C302,-691.5 409,-691.5 409,-691.5 415,-691.5 421,-697.5 421,-703.5 421,-703.5 421,-800.5 421,-800.5 421,-806.5 415,-812.5 409,-812.5 409,-812.5 302,-812.5 302,-812.5 296,-812.5 290,-806.5 290,-800.5 290,-800.5 290,-703.5 290,-703.5 290,-697.5 296,-691.5 302,-691.5"/>
<text text-anchor="middle" x="355.5" y="-797.3" font-family="Times,serif" font-size="14.00">Election</text>
<polyline fill="none" stroke="black" points="290,-789.5 421,-789.5 "/>
<text text-anchor="start" x="298" y="-774.3" font-family="Times,serif" font-size="14.00">id :INTEGER</text>
<text text-anchor="start" x="298" y="-759.3" font-family="Times,serif" font-size="14.00">date :date</text>
<text text-anchor="start" x="298" y="-744.3" font-family="Times,serif" font-size="14.00">winner :varchar</text>
<text text-anchor="start" x="298" y="-729.3" font-family="Times,serif" font-size="14.00">candidate_id :integer</text>
<text text-anchor="start" x="298" y="-714.3" font-family="Times,serif" font-size="14.00">created_at :datetime</text>
<text text-anchor="start" x="298" y="-699.3" font-family="Times,serif" font-size="14.00">updated_at :datetime</text>
</g>
<!-- Candidate -->
<g id="node7" class="node"><title>Candidate</title>
<path fill="none" stroke="black" d="M302,-436C302,-436 409,-436 409,-436 415,-436 421,-442 421,-448 421,-448 421,-545 421,-545 421,-551 415,-557 409,-557 409,-557 302,-557 302,-557 296,-557 290,-551 290,-545 290,-545 290,-448 290,-448 290,-442 296,-436 302,-436"/>
<text text-anchor="middle" x="355.5" y="-541.8" font-family="Times,serif" font-size="14.00">Candidate</text>
<polyline fill="none" stroke="black" points="290,-534 421,-534 "/>
<text text-anchor="start" x="298" y="-518.8" font-family="Times,serif" font-size="14.00">id :INTEGER</text>
<text text-anchor="start" x="298" y="-503.8" font-family="Times,serif" font-size="14.00">votes :integer</text>
<text text-anchor="start" x="298" y="-488.8" font-family="Times,serif" font-size="14.00">person_id :integer</text>
<text text-anchor="start" x="298" y="-473.8" font-family="Times,serif" font-size="14.00">created_at :datetime</text>
<text text-anchor="start" x="298" y="-458.8" font-family="Times,serif" font-size="14.00">updated_at :datetime</text>
<text text-anchor="start" x="298" y="-443.8" font-family="Times,serif" font-size="14.00">election_id :integer</text>
</g>
<!-- Election&#45;&gt;Candidate -->
<g id="edge2" class="edge"><title>Election&#45;&gt;Candidate</title>
<path fill="none" stroke="#da664d" d="M355.5,-683.035C355.5,-647.364 355.5,-603.713 355.5,-567.714"/>
<ellipse fill="none" stroke="#da664d" cx="355.5" cy="-687.245" rx="4" ry="4"/>
<polygon fill="#da664d" stroke="#da664d" points="355.5,-567.293 360,-557.293 355.5,-562.293 355.5,-557.293 355.5,-557.293 355.5,-557.293 355.5,-562.293 351,-557.293 355.5,-567.293 355.5,-567.293"/>
</g>
<!-- Certificate -->
<g id="node5" class="node"><title>Certificate</title>
<path fill="none" stroke="black" d="M750.5,-1007C750.5,-1007 878.5,-1007 878.5,-1007 884.5,-1007 890.5,-1013 890.5,-1019 890.5,-1019 890.5,-1101 890.5,-1101 890.5,-1107 884.5,-1113 878.5,-1113 878.5,-1113 750.5,-1113 750.5,-1113 744.5,-1113 738.5,-1107 738.5,-1101 738.5,-1101 738.5,-1019 738.5,-1019 738.5,-1013 744.5,-1007 750.5,-1007"/>
<text text-anchor="middle" x="814.5" y="-1097.8" font-family="Times,serif" font-size="14.00">Certificate</text>
<polyline fill="none" stroke="black" points="738.5,-1090 890.5,-1090 "/>
<text text-anchor="start" x="746.5" y="-1074.8" font-family="Times,serif" font-size="14.00">id :INTEGER</text>
<text text-anchor="start" x="746.5" y="-1059.8" font-family="Times,serif" font-size="14.00">created_at :datetime</text>
<text text-anchor="start" x="746.5" y="-1044.8" font-family="Times,serif" font-size="14.00">updated_at :datetime</text>
<text text-anchor="start" x="746.5" y="-1029.8" font-family="Times,serif" font-size="14.00">documentPerson :integer</text>
<text text-anchor="start" x="746.5" y="-1014.8" font-family="Times,serif" font-size="14.00">email :varchar</text>
</g>
<!-- RequestCenso -->
<g id="node6" class="node"><title>RequestCenso</title>
<path fill="none" stroke="black" d="M921,-977C921,-977 1044,-977 1044,-977 1050,-977 1056,-983 1056,-989 1056,-989 1056,-1131 1056,-1131 1056,-1137 1050,-1143 1044,-1143 1044,-1143 921,-1143 921,-1143 915,-1143 909,-1137 909,-1131 909,-1131 909,-989 909,-989 909,-983 915,-977 921,-977"/>
<text text-anchor="middle" x="982.5" y="-1127.8" font-family="Times,serif" font-size="14.00">RequestCenso</text>
<polyline fill="none" stroke="black" points="909,-1120 1056,-1120 "/>
<text text-anchor="start" x="917" y="-1104.8" font-family="Times,serif" font-size="14.00">id :INTEGER</text>
<text text-anchor="start" x="917" y="-1089.8" font-family="Times,serif" font-size="14.00">name :varchar</text>
<text text-anchor="start" x="917" y="-1074.8" font-family="Times,serif" font-size="14.00">lastname :varchar</text>
<text text-anchor="start" x="917" y="-1059.8" font-family="Times,serif" font-size="14.00">num_document :integer</text>
<text text-anchor="start" x="917" y="-1044.8" font-family="Times,serif" font-size="14.00">phone :integer</text>
<text text-anchor="start" x="917" y="-1029.8" font-family="Times,serif" font-size="14.00">address :varchar</text>
<text text-anchor="start" x="917" y="-1014.8" font-family="Times,serif" font-size="14.00">user_email :varchar</text>
<text text-anchor="start" x="917" y="-999.8" font-family="Times,serif" font-size="14.00">created_at :datetime</text>
<text text-anchor="start" x="917" y="-984.8" font-family="Times,serif" font-size="14.00">updated_at :datetime</text>
</g>
<!-- Announcement -->
<g id="node8" class="node"><title>Announcement</title>
<path fill="none" stroke="black" d="M451,-421C451,-421 616,-421 616,-421 622,-421 628,-427 628,-433 628,-433 628,-560 628,-560 628,-566 622,-572 616,-572 616,-572 451,-572 451,-572 445,-572 439,-566 439,-560 439,-560 439,-433 439,-433 439,-427 445,-421 451,-421"/>
<text text-anchor="middle" x="533.5" y="-556.8" font-family="Times,serif" font-size="14.00">Announcement</text>
<polyline fill="none" stroke="black" points="439,-549 628,-549 "/>
<text text-anchor="start" x="447" y="-533.8" font-family="Times,serif" font-size="14.00">id :INTEGER</text>
<text text-anchor="start" x="447" y="-518.8" font-family="Times,serif" font-size="14.00">publicationDate :date</text>
<text text-anchor="start" x="447" y="-503.8" font-family="Times,serif" font-size="14.00">deadline :date</text>
<text text-anchor="start" x="447" y="-488.8" font-family="Times,serif" font-size="14.00">announcementType :text</text>
<text text-anchor="start" x="447" y="-473.8" font-family="Times,serif" font-size="14.00">announcementInformation :text</text>
<text text-anchor="start" x="447" y="-458.8" font-family="Times,serif" font-size="14.00">person_id :integer</text>
<text text-anchor="start" x="447" y="-443.8" font-family="Times,serif" font-size="14.00">created_at :datetime</text>
<text text-anchor="start" x="447" y="-428.8" font-family="Times,serif" font-size="14.00">updated_at :datetime</text>
</g>
<!-- Statistic -->
<g id="node9" class="node"><title>Statistic</title>
<path fill="none" stroke="black" d="M1086,-1022C1086,-1022 1193,-1022 1193,-1022 1199,-1022 1205,-1028 1205,-1034 1205,-1034 1205,-1086 1205,-1086 1205,-1092 1199,-1098 1193,-1098 1193,-1098 1086,-1098 1086,-1098 1080,-1098 1074,-1092 1074,-1086 1074,-1086 1074,-1034 1074,-1034 1074,-1028 1080,-1022 1086,-1022"/>
<text text-anchor="middle" x="1139.5" y="-1082.8" font-family="Times,serif" font-size="14.00">Statistic</text>
<polyline fill="none" stroke="black" points="1074,-1075 1205,-1075 "/>
<text text-anchor="start" x="1082" y="-1059.8" font-family="Times,serif" font-size="14.00">id :INTEGER</text>
<text text-anchor="start" x="1082" y="-1044.8" font-family="Times,serif" font-size="14.00">created_at :datetime</text>
<text text-anchor="start" x="1082" y="-1029.8" font-family="Times,serif" font-size="14.00">updated_at :datetime</text>
</g>
<!-- Opinion -->
<g id="node10" class="node"><title>Opinion</title>
<path fill="none" stroke="black" d="M12,-0.5C12,-0.5 185,-0.5 185,-0.5 191,-0.5 197,-6.5 197,-12.5 197,-12.5 197,-349.5 197,-349.5 197,-355.5 191,-361.5 185,-361.5 185,-361.5 12,-361.5 12,-361.5 6,-361.5 0,-355.5 0,-349.5 0,-349.5 0,-12.5 0,-12.5 0,-6.5 6,-0.5 12,-0.5"/>
<text text-anchor="middle" x="98.5" y="-346.3" font-family="Times,serif" font-size="14.00">Opinion</text>
<polyline fill="none" stroke="black" points="0,-338.5 197,-338.5 "/>
<text text-anchor="start" x="8" y="-323.3" font-family="Times,serif" font-size="14.00">id :INTEGER</text>
<text text-anchor="start" x="8" y="-308.3" font-family="Times,serif" font-size="14.00">interest :text</text>
<text text-anchor="start" x="8" y="-293.3" font-family="Times,serif" font-size="14.00">socialOrganization :text</text>
<text text-anchor="start" x="8" y="-278.3" font-family="Times,serif" font-size="14.00">groupsParticipation :text</text>
<text text-anchor="start" x="8" y="-263.3" font-family="Times,serif" font-size="14.00">workGroupDecision :text</text>
<text text-anchor="start" x="8" y="-248.3" font-family="Times,serif" font-size="14.00">ideas :text</text>
<text text-anchor="start" x="8" y="-233.3" font-family="Times,serif" font-size="14.00">activitiesParticipatedBogota :text</text>
<text text-anchor="start" x="8" y="-218.3" font-family="Times,serif" font-size="14.00">whatIsParticipating :text</text>
<text text-anchor="start" x="8" y="-203.3" font-family="Times,serif" font-size="14.00">rightsMechanisms :text</text>
<text text-anchor="start" x="8" y="-188.3" font-family="Times,serif" font-size="14.00">districtParticipation :text</text>
<text text-anchor="start" x="8" y="-173.3" font-family="Times,serif" font-size="14.00">reasonParticipation :text</text>
<text text-anchor="start" x="8" y="-158.3" font-family="Times,serif" font-size="14.00">reasonNoParticipation :text</text>
<text text-anchor="start" x="8" y="-143.3" font-family="Times,serif" font-size="14.00">adviceOnParticipation :text</text>
<text text-anchor="start" x="8" y="-128.3" font-family="Times,serif" font-size="14.00">training :text</text>
<text text-anchor="start" x="8" y="-113.3" font-family="Times,serif" font-size="14.00">trainingTheme :text</text>
<text text-anchor="start" x="8" y="-98.3" font-family="Times,serif" font-size="14.00">cabildoTrust :text</text>
<text text-anchor="start" x="8" y="-83.3" font-family="Times,serif" font-size="14.00">trustLocalGovernment :text</text>
<text text-anchor="start" x="8" y="-68.3" font-family="Times,serif" font-size="14.00">trustNationalGovernment :text</text>
<text text-anchor="start" x="8" y="-53.3" font-family="Times,serif" font-size="14.00">trustONGfoundation :text</text>
<text text-anchor="start" x="8" y="-38.3" font-family="Times,serif" font-size="14.00">censo_id :integer</text>
<text text-anchor="start" x="8" y="-23.3" font-family="Times,serif" font-size="14.00">created_at :datetime</text>
<text text-anchor="start" x="8" y="-8.3" font-family="Times,serif" font-size="14.00">updated_at :datetime</text>
</g>
<!-- Child -->
<g id="node11" class="node"><title>Child</title>
<path fill="none" stroke="black" d="M227,-120.5C227,-120.5 334,-120.5 334,-120.5 340,-120.5 346,-126.5 346,-132.5 346,-132.5 346,-229.5 346,-229.5 346,-235.5 340,-241.5 334,-241.5 334,-241.5 227,-241.5 227,-241.5 221,-241.5 215,-235.5 215,-229.5 215,-229.5 215,-132.5 215,-132.5 215,-126.5 221,-120.5 227,-120.5"/>
<text text-anchor="middle" x="280.5" y="-226.3" font-family="Times,serif" font-size="14.00">Child</text>
<polyline fill="none" stroke="black" points="215,-218.5 346,-218.5 "/>
<text text-anchor="start" x="223" y="-203.3" font-family="Times,serif" font-size="14.00">id :INTEGER</text>
<text text-anchor="start" x="223" y="-188.3" font-family="Times,serif" font-size="14.00">name :varchar</text>
<text text-anchor="start" x="223" y="-173.3" font-family="Times,serif" font-size="14.00">age :integer</text>
<text text-anchor="start" x="223" y="-158.3" font-family="Times,serif" font-size="14.00">censo_id :integer</text>
<text text-anchor="start" x="223" y="-143.3" font-family="Times,serif" font-size="14.00">created_at :datetime</text>
<text text-anchor="start" x="223" y="-128.3" font-family="Times,serif" font-size="14.00">updated_at :datetime</text>
</g>
<!-- Person -->
<g id="node12" class="node"><title>Person</title>
<path fill="none" stroke="black" d="M456,-631.5C456,-631.5 611,-631.5 611,-631.5 617,-631.5 623,-637.5 623,-643.5 623,-643.5 623,-860.5 623,-860.5 623,-866.5 617,-872.5 611,-872.5 611,-872.5 456,-872.5 456,-872.5 450,-872.5 444,-866.5 444,-860.5 444,-860.5 444,-643.5 444,-643.5 444,-637.5 450,-631.5 456,-631.5"/>
<text text-anchor="middle" x="533.5" y="-857.3" font-family="Times,serif" font-size="14.00">Person</text>
<polyline fill="none" stroke="black" points="444,-849.5 623,-849.5 "/>
<text text-anchor="start" x="452" y="-834.3" font-family="Times,serif" font-size="14.00">id :INTEGER</text>
<text text-anchor="start" x="452" y="-819.3" font-family="Times,serif" font-size="14.00">documentPerson :integer</text>
<text text-anchor="start" x="452" y="-804.3" font-family="Times,serif" font-size="14.00">documentType :varchar</text>
<text text-anchor="start" x="452" y="-789.3" font-family="Times,serif" font-size="14.00">firstname :varchar</text>
<text text-anchor="start" x="452" y="-774.3" font-family="Times,serif" font-size="14.00">lastname :varchar</text>
<text text-anchor="start" x="452" y="-759.3" font-family="Times,serif" font-size="14.00">birthDate :date</text>
<text text-anchor="start" x="452" y="-744.3" font-family="Times,serif" font-size="14.00">civilStatus :varchar</text>
<text text-anchor="start" x="452" y="-729.3" font-family="Times,serif" font-size="14.00">gender :varchar</text>
<text text-anchor="start" x="452" y="-714.3" font-family="Times,serif" font-size="14.00">isCensus :boolean</text>
<text text-anchor="start" x="452" y="-699.3" font-family="Times,serif" font-size="14.00">originLanguage :varchar</text>
<text text-anchor="start" x="452" y="-684.3" font-family="Times,serif" font-size="14.00">languageDomination :varchar</text>
<text text-anchor="start" x="452" y="-669.3" font-family="Times,serif" font-size="14.00">user_id :integer</text>
<text text-anchor="start" x="452" y="-654.3" font-family="Times,serif" font-size="14.00">created_at :datetime</text>
<text text-anchor="start" x="452" y="-639.3" font-family="Times,serif" font-size="14.00">updated_at :datetime</text>
</g>
<!-- Person&#45;&gt;Candidate -->
<g id="edge4" class="edge"><title>Person&#45;&gt;Candidate</title>
<path fill="none" stroke="#eb06d6" d="M444.783,-624.653C430.033,-603.647 415.274,-582.627 402.124,-563.899"/>
<ellipse fill="none" stroke="#eb06d6" cx="447.153" cy="-628.029" rx="4.00002" ry="4.00002"/>
<ellipse fill="#eb06d6" stroke="#eb06d6" cx="399.653" cy="-560.381" rx="4.00002" ry="4.00002"/>
</g>
<!-- Person&#45;&gt;Announcement -->
<g id="edge6" class="edge"><title>Person&#45;&gt;Announcement</title>
<path fill="none" stroke="#e739c5" d="M533.5,-623.275C533.5,-609.484 533.5,-595.709 533.5,-582.602"/>
<ellipse fill="none" stroke="#e739c5" cx="533.5" cy="-627.302" rx="4" ry="4"/>
<polygon fill="#e739c5" stroke="#e739c5" points="533.5,-582.247 538,-572.247 533.5,-577.247 533.5,-572.247 533.5,-572.247 533.5,-572.247 533.5,-577.247 529,-572.247 533.5,-582.247 533.5,-582.247"/>
</g>
<!-- Event -->
<g id="node13" class="node"><title>Event</title>
<path fill="none" stroke="black" d="M658,-413.5C658,-413.5 765,-413.5 765,-413.5 771,-413.5 777,-419.5 777,-425.5 777,-425.5 777,-567.5 777,-567.5 777,-573.5 771,-579.5 765,-579.5 765,-579.5 658,-579.5 658,-579.5 652,-579.5 646,-573.5 646,-567.5 646,-567.5 646,-425.5 646,-425.5 646,-419.5 652,-413.5 658,-413.5"/>
<text text-anchor="middle" x="711.5" y="-564.3" font-family="Times,serif" font-size="14.00">Event</text>
<polyline fill="none" stroke="black" points="646,-556.5 777,-556.5 "/>
<text text-anchor="start" x="654" y="-541.3" font-family="Times,serif" font-size="14.00">id :INTEGER</text>
<text text-anchor="start" x="654" y="-526.3" font-family="Times,serif" font-size="14.00">name :varchar</text>
<text text-anchor="start" x="654" y="-511.3" font-family="Times,serif" font-size="14.00">date :date</text>
<text text-anchor="start" x="654" y="-496.3" font-family="Times,serif" font-size="14.00">image :varchar</text>
<text text-anchor="start" x="654" y="-481.3" font-family="Times,serif" font-size="14.00">eventType :varchar</text>
<text text-anchor="start" x="654" y="-466.3" font-family="Times,serif" font-size="14.00">eventInfo :varchar</text>
<text text-anchor="start" x="654" y="-451.3" font-family="Times,serif" font-size="14.00">person_id :integer</text>
<text text-anchor="start" x="654" y="-436.3" font-family="Times,serif" font-size="14.00">created_at :datetime</text>
<text text-anchor="start" x="654" y="-421.3" font-family="Times,serif" font-size="14.00">updated_at :datetime</text>
</g>
<!-- Person&#45;&gt;Event -->
<g id="edge5" class="edge"><title>Person&#45;&gt;Event</title>
<path fill="none" stroke="#67bba7" d="M622.43,-624.349C630.985,-612.166 639.54,-599.982 647.78,-588.247"/>
<ellipse fill="none" stroke="#67bba7" cx="619.847" cy="-628.029" rx="4.00002" ry="4.00002"/>
<polygon fill="#67bba7" stroke="#67bba7" points="647.973,-587.972 657.403,-582.374 650.847,-583.88 653.72,-579.788 653.72,-579.788 653.72,-579.788 650.847,-583.88 650.037,-577.202 647.973,-587.972 647.973,-587.972"/>
</g>
<!-- Person&#45;&gt;Censo -->
<g id="edge7" class="edge"><title>Person&#45;&gt;Censo</title>
<path fill="none" stroke="#c32814" d="M437.274,-635.388C435.042,-633.863 432.783,-632.398 430.5,-631 372.394,-595.433 340.427,-629.19 281.5,-595 280.72,-594.547 279.942,-594.086 279.168,-593.617"/>
<ellipse fill="none" stroke="#c32814" cx="440.644" cy="-637.807" rx="4.00002" ry="4.00002"/>
<ellipse fill="#c32814" stroke="#c32814" cx="275.632" cy="-591.342" rx="4.00002" ry="4.00002"/>
</g>
<!-- Residence -->
<g id="node19" class="node"><title>Residence</title>
<path fill="none" stroke="black" d="M807.5,-406C807.5,-406 923.5,-406 923.5,-406 929.5,-406 935.5,-412 935.5,-418 935.5,-418 935.5,-575 935.5,-575 935.5,-581 929.5,-587 923.5,-587 923.5,-587 807.5,-587 807.5,-587 801.5,-587 795.5,-581 795.5,-575 795.5,-575 795.5,-418 795.5,-418 795.5,-412 801.5,-406 807.5,-406"/>
<text text-anchor="middle" x="865.5" y="-571.8" font-family="Times,serif" font-size="14.00">Residence</text>
<polyline fill="none" stroke="black" points="795.5,-564 935.5,-564 "/>
<text text-anchor="start" x="803.5" y="-548.8" font-family="Times,serif" font-size="14.00">id :INTEGER</text>
<text text-anchor="start" x="803.5" y="-533.8" font-family="Times,serif" font-size="14.00">address :varchar</text>
<text text-anchor="start" x="803.5" y="-518.8" font-family="Times,serif" font-size="14.00">phone :integer</text>
<text text-anchor="start" x="803.5" y="-503.8" font-family="Times,serif" font-size="14.00">neighborhood :varchar</text>
<text text-anchor="start" x="803.5" y="-488.8" font-family="Times,serif" font-size="14.00">locality :varchar</text>
<text text-anchor="start" x="803.5" y="-473.8" font-family="Times,serif" font-size="14.00">latitude :float</text>
<text text-anchor="start" x="803.5" y="-458.8" font-family="Times,serif" font-size="14.00">longitude :float</text>
<text text-anchor="start" x="803.5" y="-443.8" font-family="Times,serif" font-size="14.00">person_id :integer</text>
<text text-anchor="start" x="803.5" y="-428.8" font-family="Times,serif" font-size="14.00">created_at :datetime</text>
<text text-anchor="start" x="803.5" y="-413.8" font-family="Times,serif" font-size="14.00">updated_at :datetime</text>
</g>
<!-- Person&#45;&gt;Residence -->
<g id="edge3" class="edge"><title>Person&#45;&gt;Residence</title>
<path fill="none" stroke="#917c8d" d="M629.802,-632.715C630.697,-632.132 631.596,-631.561 632.5,-631 692.227,-593.942 726.937,-632.321 786.5,-595 788.037,-594.037 789.559,-593.033 791.063,-591.992"/>
<ellipse fill="none" stroke="#917c8d" cx="626.324" cy="-635.112" rx="4.00002" ry="4.00002"/>
<ellipse fill="#917c8d" stroke="#917c8d" cx="794.329" cy="-589.58" rx="4.00002" ry="4.00002"/>
</g>
<!-- User -->
<g id="node14" class="node"><title>User</title>
<path fill="none" stroke="black" d="M532.5,-909.5C532.5,-909.5 708.5,-909.5 708.5,-909.5 714.5,-909.5 720.5,-915.5 720.5,-921.5 720.5,-921.5 720.5,-1198.5 720.5,-1198.5 720.5,-1204.5 714.5,-1210.5 708.5,-1210.5 708.5,-1210.5 532.5,-1210.5 532.5,-1210.5 526.5,-1210.5 520.5,-1204.5 520.5,-1198.5 520.5,-1198.5 520.5,-921.5 520.5,-921.5 520.5,-915.5 526.5,-909.5 532.5,-909.5"/>
<text text-anchor="middle" x="620.5" y="-1195.3" font-family="Times,serif" font-size="14.00">User</text>
<polyline fill="none" stroke="black" points="520.5,-1187.5 720.5,-1187.5 "/>
<text text-anchor="start" x="528.5" y="-1172.3" font-family="Times,serif" font-size="14.00">id :INTEGER</text>
<text text-anchor="start" x="528.5" y="-1157.3" font-family="Times,serif" font-size="14.00">email :varchar</text>
<text text-anchor="start" x="528.5" y="-1142.3" font-family="Times,serif" font-size="14.00">encrypted_password :varchar</text>
<text text-anchor="start" x="528.5" y="-1127.3" font-family="Times,serif" font-size="14.00">reset_password_token :varchar</text>
<text text-anchor="start" x="528.5" y="-1112.3" font-family="Times,serif" font-size="14.00">reset_password_sent_at :datetime</text>
<text text-anchor="start" x="528.5" y="-1097.3" font-family="Times,serif" font-size="14.00">remember_created_at :datetime</text>
<text text-anchor="start" x="528.5" y="-1082.3" font-family="Times,serif" font-size="14.00">sign_in_count :integer</text>
<text text-anchor="start" x="528.5" y="-1067.3" font-family="Times,serif" font-size="14.00">current_sign_in_at :datetime</text>
<text text-anchor="start" x="528.5" y="-1052.3" font-family="Times,serif" font-size="14.00">last_sign_in_at :datetime</text>
<text text-anchor="start" x="528.5" y="-1037.3" font-family="Times,serif" font-size="14.00">current_sign_in_ip :varchar</text>
<text text-anchor="start" x="528.5" y="-1022.3" font-family="Times,serif" font-size="14.00">last_sign_in_ip :varchar</text>
<text text-anchor="start" x="528.5" y="-1007.3" font-family="Times,serif" font-size="14.00">created_at :datetime</text>
<text text-anchor="start" x="528.5" y="-992.3" font-family="Times,serif" font-size="14.00">updated_at :datetime</text>
<text text-anchor="start" x="528.5" y="-977.3" font-family="Times,serif" font-size="14.00">admin :boolean</text>
<text text-anchor="start" x="528.5" y="-962.3" font-family="Times,serif" font-size="14.00">provider :varchar</text>
<text text-anchor="start" x="528.5" y="-947.3" font-family="Times,serif" font-size="14.00">uid :varchar</text>
<text text-anchor="start" x="528.5" y="-932.3" font-family="Times,serif" font-size="14.00">name :varchar</text>
<text text-anchor="start" x="528.5" y="-917.3" font-family="Times,serif" font-size="14.00">image :text</text>
</g>
<!-- User&#45;&gt;Person -->
<g id="edge8" class="edge"><title>User&#45;&gt;Person</title>
<path fill="none" stroke="#9d658d" d="M575.685,-901.375C573.708,-894.42 571.734,-887.478 569.78,-880.606"/>
<ellipse fill="none" stroke="#9d658d" cx="576.798" cy="-905.29" rx="4.00001" ry="4.00001"/>
<ellipse fill="#9d658d" stroke="#9d658d" cx="568.591" cy="-876.423" rx="4.00001" ry="4.00001"/>
</g>
<!-- Newsletter -->
<g id="node18" class="node"><title>Newsletter</title>
<path fill="none" stroke="black" d="M653,-691.5C653,-691.5 760,-691.5 760,-691.5 766,-691.5 772,-697.5 772,-703.5 772,-703.5 772,-800.5 772,-800.5 772,-806.5 766,-812.5 760,-812.5 760,-812.5 653,-812.5 653,-812.5 647,-812.5 641,-806.5 641,-800.5 641,-800.5 641,-703.5 641,-703.5 641,-697.5 647,-691.5 653,-691.5"/>
<text text-anchor="middle" x="706.5" y="-797.3" font-family="Times,serif" font-size="14.00">Newsletter</text>
<polyline fill="none" stroke="black" points="641,-789.5 772,-789.5 "/>
<text text-anchor="start" x="649" y="-774.3" font-family="Times,serif" font-size="14.00">id :INTEGER</text>
<text text-anchor="start" x="649" y="-759.3" font-family="Times,serif" font-size="14.00">subject :varchar</text>
<text text-anchor="start" x="649" y="-744.3" font-family="Times,serif" font-size="14.00">content :text</text>
<text text-anchor="start" x="649" y="-729.3" font-family="Times,serif" font-size="14.00">user_id :integer</text>
<text text-anchor="start" x="649" y="-714.3" font-family="Times,serif" font-size="14.00">created_at :datetime</text>
<text text-anchor="start" x="649" y="-699.3" font-family="Times,serif" font-size="14.00">updated_at :datetime</text>
</g>
<!-- User&#45;&gt;Newsletter -->
<g id="edge9" class="edge"><title>User&#45;&gt;Newsletter</title>
<path fill="none" stroke="#ce4879" d="M664.873,-901.116C672.629,-873.518 680.326,-846.132 686.952,-822.554"/>
<ellipse fill="none" stroke="#ce4879" cx="663.701" cy="-905.287" rx="4.00001" ry="4.00001"/>
<polygon fill="#ce4879" stroke="#ce4879" points="687.018,-822.321 694.056,-813.911 688.371,-817.507 689.723,-812.694 689.723,-812.694 689.723,-812.694 688.371,-817.507 685.391,-811.476 687.018,-822.321 687.018,-822.321"/>
</g>
<!-- Contact -->
<g id="node15" class="node"><title>Contact</title>
<path fill="none" stroke="black" d="M1235,-992C1235,-992 1342,-992 1342,-992 1348,-992 1354,-998 1354,-1004 1354,-1004 1354,-1116 1354,-1116 1354,-1122 1348,-1128 1342,-1128 1342,-1128 1235,-1128 1235,-1128 1229,-1128 1223,-1122 1223,-1116 1223,-1116 1223,-1004 1223,-1004 1223,-998 1229,-992 1235,-992"/>
<text text-anchor="middle" x="1288.5" y="-1112.8" font-family="Times,serif" font-size="14.00">Contact</text>
<polyline fill="none" stroke="black" points="1223,-1105 1354,-1105 "/>
<text text-anchor="start" x="1231" y="-1089.8" font-family="Times,serif" font-size="14.00">id :INTEGER</text>
<text text-anchor="start" x="1231" y="-1074.8" font-family="Times,serif" font-size="14.00">name :varchar</text>
<text text-anchor="start" x="1231" y="-1059.8" font-family="Times,serif" font-size="14.00">phone :varchar</text>
<text text-anchor="start" x="1231" y="-1044.8" font-family="Times,serif" font-size="14.00">email :varchar</text>
<text text-anchor="start" x="1231" y="-1029.8" font-family="Times,serif" font-size="14.00">message :text</text>
<text text-anchor="start" x="1231" y="-1014.8" font-family="Times,serif" font-size="14.00">created_at :datetime</text>
<text text-anchor="start" x="1231" y="-999.8" font-family="Times,serif" font-size="14.00">updated_at :datetime</text>
</g>
<!-- Vote -->
<g id="node16" class="node"><title>Vote</title>
<path fill="none" stroke="black" d="M1384,-999.5C1384,-999.5 1507,-999.5 1507,-999.5 1513,-999.5 1519,-1005.5 1519,-1011.5 1519,-1011.5 1519,-1108.5 1519,-1108.5 1519,-1114.5 1513,-1120.5 1507,-1120.5 1507,-1120.5 1384,-1120.5 1384,-1120.5 1378,-1120.5 1372,-1114.5 1372,-1108.5 1372,-1108.5 1372,-1011.5 1372,-1011.5 1372,-1005.5 1378,-999.5 1384,-999.5"/>
<text text-anchor="middle" x="1445.5" y="-1105.3" font-family="Times,serif" font-size="14.00">Vote</text>
<polyline fill="none" stroke="black" points="1372,-1097.5 1519,-1097.5 "/>
<text text-anchor="start" x="1380" y="-1082.3" font-family="Times,serif" font-size="14.00">id :INTEGER</text>
<text text-anchor="start" x="1380" y="-1067.3" font-family="Times,serif" font-size="14.00">email :varchar</text>
<text text-anchor="start" x="1380" y="-1052.3" font-family="Times,serif" font-size="14.00">document_num :integer</text>
<text text-anchor="start" x="1380" y="-1037.3" font-family="Times,serif" font-size="14.00">option :integer</text>
<text text-anchor="start" x="1380" y="-1022.3" font-family="Times,serif" font-size="14.00">created_at :datetime</text>
<text text-anchor="start" x="1380" y="-1007.3" font-family="Times,serif" font-size="14.00">updated_at :datetime</text>
</g>
<!-- Censo&#45;&gt;Opinion -->
<g id="edge10" class="edge"><title>Censo&#45;&gt;Opinion</title>
<path fill="none" stroke="#20c3e1" d="M159.048,-390.591C157.035,-383.656 154.978,-376.569 152.895,-369.392"/>
<ellipse fill="none" stroke="#20c3e1" cx="160.215" cy="-394.612" rx="4.00001" ry="4.00001"/>
<ellipse fill="#20c3e1" stroke="#20c3e1" cx="151.74" cy="-365.414" rx="4.00001" ry="4.00001"/>
</g>
<!-- Censo&#45;&gt;Child -->
<g id="edge11" class="edge"><title>Censo&#45;&gt;Child</title>
<path fill="none" stroke="#34b8c4" d="M219.958,-390.572C233.244,-344.799 248.459,-292.383 260.312,-251.547"/>
<ellipse fill="none" stroke="#34b8c4" cx="218.785" cy="-394.612" rx="4.00001" ry="4.00001"/>
<polygon fill="#34b8c4" stroke="#34b8c4" points="260.385,-251.296 267.495,-242.947 261.779,-246.494 263.173,-241.693 263.173,-241.693 263.173,-241.693 261.779,-246.494 258.851,-240.438 260.385,-251.296 260.385,-251.296"/>
</g>
</g>
</svg>
